<svg xmlns="http://www.w3.org/2000/svg" viewBox="0 0 280 280"><path d="M134.41 68.2c-8.51-3.65-23.1-4.86-29.18 0-6.08 4.86-3.65 12.16 2.43 15.8 6.08 3.65 9.73 0 9.73 0s0 4.86 7.29 7.29 12.16 0 12.16 0 2.43 6.08 8.51 6.08c9.73 0 9.16-8.72 7.29-13.37-2.43-6.08-9.73-12.16-18.24-15.8Z" style="fill:#e1771e"/><path d="M145.35 99.69c-5.14 0-8.16-3.35-9.61-5.58-2.37.61-6.55 1.13-11.79-.62-4.64-1.55-6.86-4.04-7.91-6.08-2.18.78-5.47 1.03-9.57-1.42-4.14-2.49-6.78-6.38-7.05-10.42-.23-3.47 1.32-6.73 4.36-9.17 7.25-5.8 23.24-3.87 31.53-.32 9.41 4.03 16.87 10.57 19.47 17.07 1.44 3.6 2.09 8.77-.42 12.48-1.26 1.85-3.84 4.06-9.02 4.06Zm-8.51-10.7c.28 0 .56.05.82.15.6.23 1.08.7 1.32 1.3.07.18 1.97 4.63 6.37 4.63 2.53 0 4.28-.68 5.19-2.03 1.39-2.06.96-5.68-.04-8.17-2.13-5.32-8.8-11.02-17-14.54-8.2-3.51-21.7-4.42-26.82-.32-1.89 1.51-2.77 3.28-2.64 5.25.17 2.49 2.01 5.09 4.82 6.77 4.29 2.57 6.68.55 6.93.32.67-.62 1.67-.8 2.51-.44.84.37 1.4 1.18 1.4 2.1 0 .08.24 3.28 5.72 5.1 6.21 2.07 10.35.15 10.39.13.32-.16.68-.24 1.03-.24Z"/><path d="M129.93 67.1s.83-3.76 3.26-6.19 6.08-2.43 6.08-2.43l4.86 3.65s-3.65 0-6.08 2.43-2.43 6.08-2.43 6.08-1.22 1.22-3.65 0-2.05-3.53-2.05-3.53Z" style="fill:#49771e"/><path d="M133.99 73.48c-.89 0-1.92-.21-3.05-.78-3.12-1.56-3.54-4.49-3.29-5.98 0-.04.01-.08.02-.12.04-.18 1.01-4.45 3.89-7.33 3.02-3.02 7.24-3.11 7.71-3.11.5 0 .99.16 1.39.46l4.86 3.65c.8.6 1.12 1.63.81 2.58-.31.94-1.2 1.58-2.19 1.58-.01 0-2.75.05-4.45 1.75-1.7 1.7-1.75 4.43-1.75 4.46 0 .6-.25 1.19-.68 1.62-.56.56-1.71 1.21-3.26 1.21Zm-1.78-5.99c0 .33.14.76.79 1.09.19.09.35.16.49.2.29-1.62 1.04-3.97 2.92-5.85.78-.78 1.65-1.37 2.51-1.81l-.35-.26c-.92.13-2.59.52-3.76 1.69-1.69 1.69-2.45 4.34-2.61 4.94Z"/><path d="M117.39 84.01s-.28-4.23 1.22-7.29c1.38-2.84 4.86-3.65 4.86-3.65" style="fill:#e1771e"/><path d="M117.38 86.31c-1.21 0-2.22-.94-2.3-2.16-.03-.5-.27-4.95 1.44-8.46 1.81-3.72 5.95-4.78 6.41-4.88 1.24-.28 2.48.48 2.77 1.73s-.48 2.48-1.73 2.77c0 0-2.44.62-3.31 2.41-.99 2.04-1.05 5.12-.99 6.13.08 1.27-.89 2.37-2.16 2.45h-.15Z"/><path d="M136.84 91.3s2.76-2.54 3.65-6.08c1.22-4.86-2.43-7.29-2.43-7.29" style="fill:#e1771e"/><path d="M136.84 93.61a2.317 2.317 0 0 1-1.57-4.01c.03-.03 2.28-2.16 2.98-4.94.78-3.11-1.26-4.66-1.5-4.83a2.326 2.326 0 0 1-.58-3.2 2.296 2.296 0 0 1 3.17-.62c.2.14 4.98 3.41 3.39 9.78-1.04 4.16-4.19 7.1-4.32 7.22-.44.41-1 .61-1.56.61Z"/><path d="M73 164.84c1.71-.31 3.46-.01 5.09.6 4.72 1.79 20.92 6.82 45.38 2.45 34.04-6.08 43.16-27.35 46.8-37.08 3.65-9.73 26.74-6.08 36.47 1.22 17.88 13.41 15.8 38.9 6.08 48.63-12.89 12.89-19.45 7.29-19.45 7.29s-1.48 13.96-13.37 19.45c-15.8 7.29-25.53 0-25.53 0s-2.48 10.65-17.02 13.37c-19.45 3.65-30.39-7.29-30.39-7.29s-1.17 4.86-17.02 4.86c-40.12 0-34.23-50.37-17.03-53.5Z" style="fill:#e1771e"/><path d="M129.57 223.83c-11.23 0-18.81-4.52-22.18-7.06-2.25 1.87-7.06 3.88-17.36 3.88s-18.1-2.97-23.87-8.83c-6.13-6.22-8.01-14.01-8.5-19.44-1.31-14.45 5.53-28.1 14.92-29.82 1.99-.36 4.12-.12 6.32.71 4.29 1.63 20.16 6.62 44.15 2.34 30.44-5.44 40.29-22.93 45.05-35.62 1.16-3.08 3.85-5.32 7.8-6.47 9.62-2.81 24.94 1.19 32.22 6.65 8.43 6.32 13.49 15.81 14.27 26.74.71 10.04-2.33 19.76-7.94 25.37-9.15 9.15-15.73 9.72-19.35 8.88-1.17 4.75-4.6 13.92-14.14 18.32-12.24 5.65-21.16 3.14-25.31 1.22-1.84 3.77-6.56 10.23-17.78 12.33-2.95.55-5.72.79-8.3.79Zm-22.52-12.67c.6 0 1.19.24 1.63.68.02.02 2.62 2.55 7.4 4.62 6.37 2.76 13.42 3.45 20.94 2.04 12.76-2.39 15.11-11.27 15.2-11.64.19-.75.74-1.37 1.47-1.63s1.54-.14 2.16.32c.35.25 8.93 6.32 23.18-.25 10.51-4.85 12.03-17.48 12.04-17.6a2.315 2.315 0 0 1 3.8-1.51s5.34 3.8 16.32-7.17c4.62-4.62 7.21-13.17 6.6-21.77-.68-9.57-5.1-17.87-12.43-23.37-6.97-5.23-20.65-8.1-28.15-5.91-2.53.74-4.13 1.97-4.77 3.66-2.97 7.92-12 32.01-48.56 38.54-25.16 4.5-42.03-.83-46.6-2.57-1.4-.54-2.7-.7-3.85-.49-7.02 1.28-12.23 12.9-11.15 24.86 2.02 22.33 21.76 24.07 27.77 24.07 12.39 0 14.64-3.01 14.84-3.31.25-.71.82-1.26 1.55-1.46.21-.06.42-.09.63-.09Zm-2.24 1.77Zm0 0Zm.08-.24Z"/><path d="M104.62 207.4s-3.65-3.65-4.86-12.16c-1.39-9.7 2.43-14.59 2.43-14.59" style="fill:#e1771e"/><path d="M104.61 209.7c-.59 0-1.17-.22-1.62-.67-.17-.17-4.21-4.3-5.52-13.46-1.51-10.56 2.72-16.11 2.9-16.34.79-1 2.24-1.18 3.24-.4 1 .79 1.18 2.24.4 3.24-.12.16-3.18 4.37-1.96 12.84 1.07 7.51 4.19 10.83 4.23 10.87.88.91.86 2.37-.04 3.26-.45.44-1.04.66-1.62.66Z"/><path d="M152.03 201.32s.47-6.16-1.22-14.59c-1.22-6.08-6.08-12.16-6.08-12.16" style="fill:#e1771e"/><path d="M152.03 203.63h-.18c-1.27-.1-2.22-1.2-2.13-2.48 0-.06.42-5.98-1.18-13.96-1.09-5.46-5.57-11.11-5.62-11.17-.8-1-.64-2.45.36-3.25 1-.8 2.45-.64 3.25.36.21.27 5.23 6.59 6.54 13.15 1.73 8.64 1.27 14.95 1.25 15.22a2.303 2.303 0 0 1-2.3 2.13Z"/><path d="M193.37 179.44s1.22-12.16-4.86-18.24c-5.5-5.5-12.16-7.29-12.16-7.29" style="fill:#e1771e"/><path d="M193.37 181.75c-.08 0-.15 0-.23-.01a2.311 2.311 0 0 1-2.07-2.53c.02-.17 1.01-11.17-4.2-16.37-5.01-5.01-11.06-6.68-11.12-6.7a2.312 2.312 0 0 1-1.63-2.83c.33-1.23 1.6-1.96 2.83-1.63.3.08 7.32 2.02 13.19 7.89 6.77 6.78 5.58 19.56 5.53 20.1a2.31 2.31 0 0 1-2.3 2.08Z"/></svg>