<svg xmlns="http://www.w3.org/2000/svg" viewBox="0 0 180 180"><path d="M63.18 168.85s14.14-7.78 21-18c9.42-14.04 14.22-34.75-5.27-44.06-12.96-6.19-23.86 23.83-23.86 23.83s-4.38 35.22 8.14 38.23Z" fill="#fff"/><path d="M59.41 125.34s3.41-18.97 15.64-18.97c7.08 0 11.37 3.75 13.59 9.18m1.68 6.95c1.13 10.17-2.25 22.55-7.31 28.98-6.46 8.19-13.31 13.74-17.04 16.46" fill="none" stroke="#000" stroke-linecap="round" stroke-linejoin="round" stroke-width="3.8"/><path d="M57.18 91.85c-14.27-23.32-43.28-31-63-34-20.05-3.05-24-11-24-11s-20.44 19.93-39.16 22.93c-15 2.4-25.84 5.07-36.84 3.07 0 0 3.74 3 0 24-2.44 13.67.57 33 9 53 6.14 14.58 4 29.46 4 29.46s-4.03 4.63-2 9.54c2.03 4.9 9.24 5.92 15 5 5.2-.83 3-2 9-2 4.12 0 8.33 6.54 19 5 7.61-1.1 10.86-2.79 11-8 .02-.86-1.79-7.08-2-11-.29-5.5 1-9 1-9s2 4 8 7 19.85 2.93 13 6c-2.4 1.07-1.15 5.94 1 9 2.81 4 19.35 3.93 25.74 3.93 12.17 0 31.4-4.53 37.45-8s18.21-5.93 21.81-25.93c4.14-22.99 10.68-38.48-8-69Z" fill="#fff"/><path d="M68.18 124.85s1.73-26.25-27.24-49.07C24.21 62.59-.04 59.02-16.32 56.94c-8.49-1.09-14.08-9.68-13.79-15.88.29-6.21-2.43-15.38-3.65-19.13m101.7 109.84s2.37 27.63-5 41c-7.37 13.37-32.7 20.4-41.3 20.77-8.6.37-12.06 1.23-18.7 1.23-3.74 0-15.07.63-19-1-3.43-1.42-5.77-7.07-5-11 1.24-6.29 17-12 17-12" fill="none" stroke="#000" stroke-linecap="round" stroke-linejoin="round" stroke-width="3.8"/></svg>