<svg xmlns="http://www.w3.org/2000/svg" viewBox="0 0 180 180"><path d="M68.81 139.43s65.8-45.07 45-78c-12-19-42.19-21.79-54 3-10 21 8.19 55.42 21 49 9.66-4.84-11.27-24.9-8-36 5-17 26.83-17.06 28 4 1 18-38 28-38 28" fill="#fff"/><path d="M70.25 139.59a1.9 1.9 0 0 1-.94-3.55c.65-.37 65.11-37.54 44.27-75.43-4.91-8.93-14.89-14.5-25.49-14.19-10.95.32-20.11 6.55-25.13 17.09-7.08 14.87.95 37.22 9.38 45.47 2.33 2.28 5.79 4.65 9.06 3.01.96-.48 1.22-1.01 1.33-1.37.71-2.23-1.74-6.88-4.11-11.36-3.74-7.08-8.39-15.89-6.21-24.06 2.37-8.88 9.59-14.51 17.58-13.7 9.76 1 13.73 10.37 14.16 18.08.51 9.14-5.8 17.05-18.25 22.89-.43.2-.9.23-1.32.11 1.64 3.52 2.6 6.63 1.77 9.2-.5 1.56-1.59 2.78-3.25 3.61-4.12 2.06-8.88.75-13.42-3.7-9.42-9.23-18.05-33.22-10.15-49.82 5.57-11.7 16.21-18.89 28.45-19.25 11.99-.33 23.34 5.99 28.93 16.15 9.44 17.16 4.41 36.6-14.55 56.24-14.03 14.53-30.49 23.94-31.18 24.33-.3.17-.62.25-.94.25Zm18.31-74.36c-4.79 0-10.44 3.29-12.48 10.95-1.8 6.74 2.29 14.48 5.9 21.3.46.88.91 1.73 1.34 2.57.17-.43.5-.81.96-1.02 7.62-3.57 16.59-9.81 16.06-19.24-.55-9.94-5.92-14.01-10.75-14.51-.34-.03-.69-.05-1.04-.05Z"/><path d="M57.18 91.85c-14.27-23.32-43.28-31-63-34-20.05-3.05-24-11-24-11s-20.44 19.93-39.16 22.93c-15 2.4-25.84 5.07-36.84 3.07 0 0 3.74 3 0 24-2.44 13.67.57 33 9 53 6.14 14.58 4 29.46 4 29.46s-4.03 4.63-2 9.54c2.03 4.9 9.24 5.92 15 5 5.2-.83 3-2 9-2 4.12 0 8.33 6.54 19 5 7.61-1.1 10.86-2.79 11-8 .02-.86-1.79-7.08-2-11-.29-5.5 1-9 1-9s2 4 8 7 19.85 2.93 13 6c-2.4 1.07-1.15 5.94 1 9 2.81 4 19.35 3.93 25.74 3.93 12.17 0 31.4-4.53 37.45-8s18.21-5.93 21.81-25.93c4.14-22.99 10.68-38.48-8-69Z" fill="#fff"/><path d="M68.18 124.85s1.73-26.25-27.24-49.07C24.21 62.59-.04 59.02-16.32 56.94c-8.49-1.09-14.08-9.68-13.79-15.88s-2.43-15.38-3.65-19.13m101.7 109.84s2.37 27.63-5 41c-7.37 13.37-32.7 20.4-41.3 20.77-8.6.37-12.06 1.23-18.7 1.23-3.74 0-15.07.63-19-1-3.43-1.42-5.77-7.07-5-11 1.24-6.29 18.81-7.73 18.81-7.73" fill="none" stroke="#000" stroke-linecap="round" stroke-linejoin="round" stroke-width="3.8"/></svg>