<svg xmlns="http://www.w3.org/2000/svg" xmlns:xlink="http://www.w3.org/1999/xlink" viewBox="0 0 310 178" style="enable-background:new 0 0 310 178" xml:space="preserve"><style>.st0{fill:#453800}.st1{fill:#f7eede}.st5{fill:#67a8e1}.st6{fill:#d79a59}.st8{fill:#fff}.st9{fill:#a87337}.st11{fill:#114600}.st12{fill:#bdb39a}.st15{fill:#8e7f5e}.st16{fill:#fbd18b}.st17{fill:#696969}.st22{fill:#ffe4c2}.st24{opacity:.5}.st25{fill:#efba64}.st26{fill:#fbdd6b}.st28{opacity:.5;fill:#efba64;enable-background:new}</style><g id="グループ_565" transform="translate(-57.22 -257.89)"><g id="グループ_468" transform="translate(115.832 257.89)"><g id="グループ_465" transform="translate(45.864 1.253)"><path id="パス_1520" class="st0" d="M13.7 9.8S2.4-1.3.8.2C0 1-.3 9.1 1.3 12.6c1 2.2 2.3 4.3 3.8 6.2 0 0 4-4 5.8-5.7 1-1 2-2.1 2.8-3.3z"/></g><g id="グループ_466" transform="translate(72.177 1.253)"><path id="パス_1521" class="st0" d="M.2 9.8S11.5-1.3 13.1.2c.8.8 1.1 8.9-.5 12.4-1 2.2-2.3 4.3-3.8 6.2 0 0-4-4-5.8-5.7-1.1-1-2-2.1-2.8-3.3z"/></g><path id="パス_1522" class="st0" d="M14.8 92.2S7.6 85.6 4.2 60.1C1.7 41.8-1.7 19.6 5.5 19.6c6.2 0 2.3 14 4.7 31.2 1.6 11.8 7.2 25.4 7.2 25.4s3 14.6-2.6 16z"/><path id="パス_1523" class="st1" d="M80 15.4c2.6 2.8 3.2 7.2 2 11-1.2 3.9-10 11-16.7 11S53 31.7 50 26.8c-1.4-2.4-1.9-8.7 2-12 4.6-3.9 7.9-5.2 14.2-5.2 5.7 0 9.8 1.3 13.8 5.8z"/><path id="パス_1524" class="st1" d="M21.3 65.1c3.9-8.3 10.9-11.9 17.6-17.2 2.1-1.7 5.1-2.6 7.7-4.8 5.7-4.8 5.7-12.9 5.7-12.9s6.8 4.7 12.5 4.7c5.8 0 8-.4 11.4-2.8-.8 2.1-1.3 4.4-1.3 6.7 0 4.5 1.2 10.3 1.4 15.3.6 11-3.4 30-6.7 36.8-3 6.2-2.9 18.7-2.9 18.7s4.1 2.5 3.3 4.8-3.1 2.3-5.3 1.9c-2-.4-.7-.9-2.9-.9s-3.1 2.1-7.2 1.4c-2.9-.5-3.8-1.8-1.4-4.6.5-.8.8-1.8 1-2.8 0 0 .3 2.6-.6-2.2-1.2 2.4-4.5.5-5.7 2.2-.4.6.4 2.3-.7 3.6s-.6 1.8-3.6 1.7-11.8 1-14.5-.6-10.5-5.4-12.1-14.6c-1.9-10.6-2.7-19.4 4.3-34.4z"/><linearGradient id="パス_1525_00000088845291389181051170000010522225315895349413_" gradientUnits="userSpaceOnUse" x1="-561.191" y1="464.513" x2="-561.191" y2="465.119" gradientTransform="matrix(22.179 0 0 -33.7218 12507.737 15775.317)"><stop offset=".576" style="stop-color:#453800"/><stop offset=".628" style="stop-color:#483b04"/><stop offset=".684" style="stop-color:#534611"/><stop offset=".744" style="stop-color:#645827"/><stop offset=".804" style="stop-color:#7d7146"/><stop offset=".867" style="stop-color:#9d926e"/><stop offset=".93" style="stop-color:#c4ba9f"/><stop offset=".993" style="stop-color:#f1e8d7"/><stop offset="1" style="stop-color:#f7eede"/></linearGradient><path id="パス_1525" style="fill:url(#パス_1525_00000088845291389181051170000010522225315895349413_)" d="M50 87.1c1.2 3.1 4.3 22.3 4.3 22.3-.1 1-.5 1.9-1 2.8-2.4 2.8-1.5 4.1 1.4 4.6 4.1.7 5-1.4 7.2-1.4s.9.5 2.9.9c2.2.4 4.5.3 5.3-1.9s-3.3-4.8-3.3-4.8-.2-12.4 2.9-18.7c1.1-2.5 2-5.1 2.6-7.7 0 0-2.1 2.5-4.5 3-1.5.3-3-.1-4.3-.9-1.8 2.1-4.4 3.5-7.2 3.8-2.3 0-4.5-.7-6.3-2z"/><linearGradient id="パス_1526_00000041998626366542282670000008748661128645140868_" gradientUnits="userSpaceOnUse" x1="-568.134" y1="460.206" x2="-568.604" y2="460.629" gradientTransform="matrix(31.415 0 0 -22.3296 17881.89 10384.055)"><stop offset=".343" style="stop-color:#453800"/><stop offset=".423" style="stop-color:#483b04"/><stop offset=".511" style="stop-color:#534611"/><stop offset=".602" style="stop-color:#645827"/><stop offset=".697" style="stop-color:#7d7146"/><stop offset=".793" style="stop-color:#9d926e"/><stop offset=".892" style="stop-color:#c4ba9f"/><stop offset=".99" style="stop-color:#f1e8d7"/><stop offset="1" style="stop-color:#f7eede"/></linearGradient><path id="パス_1526" style="fill:url(#パス_1526_00000041998626366542282670000008748661128645140868_)" d="M47.4 113c-2.1 1.3-6.5 1.9-10.8 1.8-2.7-.1-5.5-.4-8.1-1 0 0-8.6-2.4-11.5-14.4-1-4.2 4.2-10 11.4-5.2 7.3 4.9 5.3 12.1 7.3 11.9s6.2.5 9.9 1.3c2.8.8 3.5 4.6 1.8 5.6z"/><radialGradient id="パス_1527_00000054248767713801786100000005844486076115050382_" cx="-606.844" cy="458.491" r=".564" gradientTransform="matrix(-24.0739 0 0 -19.5127 -14543.284 8969.959)" gradientUnits="userSpaceOnUse"><stop offset=".576" style="stop-color:#453800"/><stop offset=".628" style="stop-color:#483b04"/><stop offset=".684" style="stop-color:#534611"/><stop offset=".744" style="stop-color:#645827"/><stop offset=".804" style="stop-color:#7d7146"/><stop offset=".867" style="stop-color:#9d926e"/><stop offset=".93" style="stop-color:#c4ba9f"/><stop offset=".993" style="stop-color:#f1e8d7"/><stop offset="1" style="stop-color:#f7eede"/></radialGradient><path id="パス_1527" style="fill:url(#パス_1527_00000054248767713801786100000005844486076115050382_)" d="M50.9 21.6c.2-4.3 5.2-10.1 14.8-10.1s14.8 5.8 15 10.1c.2 3.2-.2 4.5-3.1 7.6-1.9 2-4.2 3.6-6.6 4.9-1.5.9-3.3 1.5-5.1 1.5-1.8 0-3.6-.5-5.1-1.5-2.5-1.3-4.7-2.9-6.6-4.9-3.1-3.1-3.4-4.4-3.3-7.6z"/><g id="グループ_467"><path id="パス_1528" d="M17.2 78.6c.5 0 .9-.4.9-.9.1-2 .4-3.9 1.1-5.8 1.7-4.9 4.5-9.5 8.2-13.2 4.2-4.5 9-8.3 14.3-11.3 1.5-.9 3-1.8 4.6-2.9 4.8-3.2 7.7-9.2 6.6-13.9-.3-1.3-.9-2.6-1.7-3.7-.7-1-1.2-2.2-1.4-3.5-.2-1.7-.1-3.4.2-5.1.1-.5-.2-1-.7-1.1-.5-.1-1 .2-1.1.7-.4 1.9-.5 3.8-.2 5.7.2 1.5.8 2.9 1.7 4.2.7 1 1.2 2.1 1.4 3.2.9 3.9-1.7 9.2-5.8 12-1.6 1.1-3.1 2-4.5 2.8-5.5 3.1-10.4 7-14.7 11.6-9.9 10.4-9.8 19.8-9.8 20.2 0 .6.4 1 .9 1z"/><path id="パス_1529" d="M14.6 91.8c.2 0 .5-.1.6-.3.4-.4.3-.9 0-1.3-1.3-1.3-2.6-3-4.4-7.4C7.6 75 2.2 42.6 2.1 32.4c0-.3 0-.7-.1-1.1-.1-1.6-.1-3.3 0-4.9.1-.5-.3-.9-.8-1-.5-.1-.9.3-1 .8-.2 1.7-.2 3.5-.1 5.2 0 .4 0 .7.1 1 .2 10.6 5.5 43 8.9 51.1 1.9 4.7 3.3 6.6 4.8 8 .2.2.5.3.7.3z"/><path id="パス_1530" d="M15.6 72.7c.1 0 .3 0 .4-.1.5-.2.7-.7.5-1.2-2.2-4.8-4.3-15.4-5.6-23.7-.8-5.7-1-11.5-.6-17.2.3-6.5.5-10.8-3.4-11.8-1.1-.2-2.2 0-3.1.6-1.3.9-2.3 2.3-2.6 3.8-.1.5.2 1 .7 1.1.5.1 1-.2 1.1-.7.2-1.1.9-2 1.8-2.6.5-.3 1.1-.5 1.7-.4 2.3.6 2.3 3.6 2 9.9C8 36.3 8.2 42.2 9 48c.6 4.1 2.9 17.8 5.8 24.1.1.4.4.6.8.6z"/><path id="パス_1531" d="M58.8 11.6c.1 0 .3 0 .4-.1 0 0 2-1 6.5-1 2.3-.1 4.7.3 6.9 1 .5.2 1 0 1.2-.5.2-.5 0-1-.4-1.2-2.4-.9-5-1.3-7.6-1.2-5 0-7.3 1.2-7.4 1.2-.4.2-.6.8-.4 1.2.2.5.5.6.8.6z"/><path id="パス_1532" d="M48.3 17c.2 0 .4-.1.5-.2.4-.3.5-.8.3-1.3-.8-1.1-1.4-2.3-2-3.5-1.4-3-.8-9-.1-10.2 2.4 1.1 4.7 2.6 6.7 4.3C54.9 7.2 56 8.3 57 9.6c.3.4.9.5 1.3.1.4-.3.5-.9.1-1.3C57.2 7.3 56 6 54.8 4.9 52.7 3.1 48-.2 46.5.1c-.5.1-1 .5-1.2 1.1-1.1 2-1.4 8.5.1 11.7.6 1.3 1.3 2.5 2.2 3.7.1.2.4.4.7.4z"/><path id="パス_1533" d="M83.7 17c.3 0 .6-.2.8-.4.8-1.2 1.5-2.4 2.2-3.7 1.5-3.2 1.1-9.7.1-11.7-.2-.5-.7-.9-1.2-1.1-.3-.1-.9-.2-3.6 1.5-1.6 1-3.2 2.1-4.6 3.3C76 6 74.8 7.3 73.7 8.6c-.3.4-.3 1 .1 1.3.4.3 1 .3 1.3-.1 1-1.2 2.1-2.4 3.3-3.5 2-1.8 4.3-3.2 6.7-4.3.7 1.2 1.3 7.1-.1 10.2-.6 1.2-1.3 2.4-2 3.5-.3.4-.2 1 .3 1.3.1-.1.3 0 .4 0z"/><path id="パス_1534" d="M74.8 37.8h.2c.5-.1.8-.6.7-1-.1-.9.2-1.8.7-2.5.4-.5.9-1 1.4-1.5 2-1.9 5.1-4.8 5.7-9 .2-1.9.1-3.8-.2-5.7-.1-.5-.6-.8-1.1-.7-.5.1-.8.6-.7 1.1.3 1.7.4 3.4.2 5.1-.5 3.6-3.3 6.2-5.1 7.9-.6.5-1.2 1.1-1.7 1.8-.8 1.1-1.1 2.5-1 3.8.1.4.4.7.9.7z"/><path id="パス_1535" d="M61.3 111.8c.5 0 .9-.4.9-.9 0-.2.7-15.7 1.2-19.8.4-3.2 1.1-6.4 2.1-9.4l.1-.2 2-3.4c.3-.4.1-1-.3-1.2-.4-.3-1-.1-1.2.3L64 80.7c0 .1-.1.1-.1.2l-.2.1c-1.1 3.2-1.8 6.4-2.2 9.8-.5 4.2-1.2 19.4-1.2 20 0 .5.4.9 1 1-.1 0-.1 0 0 0z"/><path id="パス_1536" d="M55.6 117.7c.7 0 1.5-.1 2.2-.2 1.5-.1 2.8-.8 3.8-2 .4-.6.5-1.3.4-1.9-.1-.5-.6-.8-1.1-.7-.5.1-.8.6-.7 1.1 0 .2 0 .4-.1.5-.7.7-1.6 1.1-2.6 1.2-1.9.3-3.6.2-4.3-.4-.2-.1-.3-.3-.3-.6 0-1.2.4-2.3 1.3-3.2.4-.5.8-1.1 1.1-1.7.7-1.9-5.2-27.1-5.3-27.3a.8.8 0 0 0-1.1-.6c-.5.1-.8.7-.6 1.1.8 2.6 5.4 24.3 5.3 26.3-.2.4-.5.8-.8 1.1-1.1 1.2-1.7 2.8-1.7 4.5.1.7.4 1.4 1 1.8 1 .7 2.3 1.1 3.5 1zm-2.2-8.3z"/><path id="パス_1537" d="M66.4 117.4c2.9 0 4.7-1.6 4.7-4.3 0-1.3-.8-2.5-2.1-3.1-.9-.5-1.3-.8-1.3-1.8 0-3 1.3-13.1 2.3-16.1.2-.5.4-1.2.7-2 1.6-4.4 4.9-13.6 6-22.1 1.3-10.2.7-13.7-.1-18.6-.1-.7-.2-1.4-.4-2.2-.4-2.2-.6-7.5-.6-7.5 0-.5-.4-.9-.9-.9s-.9.4-.9.9c0 .2.2 5.4.6 7.7.1.8.3 1.5.4 2.3.8 4.7 1.4 8.1.1 18.1-1.1 8.3-4.3 17.4-5.9 21.7-.3.8-.6 1.5-.7 2.1-1.2 3.4-2.4 13.9-2.4 16.7 0 1.5.9 2.8 2.2 3.3.9.5 1.2.8 1.2 1.5 0 1.6-1 2.5-2.9 2.5-1.1.1-2.3-.2-3.2-.9-.4-.3-.9-.3-1.3 0-.3.4-.3.9 0 1.3 0 .1 1.4 1.4 4.5 1.4z"/><path id="パス_1538" d="M34.3 115.4h4.8c2.1 0 5.7-.1 7.5-.9 1.8-.7 2.7-2.7 2.2-4.5-.6-3.2-10.6-4.3-14.9-4.6-.5 0-.9.3-1 .8 0 .5.3.9.8 1 6.7.5 13.1 2 13.3 3.1.4 1-.1 2.1-1.2 2.5-1.2.5-4.2.7-6.7.7h-2.6c-1.5 0-2.9.1-5.2 0-3-.1-10.2-5.2-13.2-11.3-2.9-5.7-1-18.1-.9-18.2.1-.5-.3-1-.8-1-.5-.1-1 .3-1 .8-.1.5-2 13.1 1.1 19.3 2.6 5.2 10.1 12 14.8 12.3 1.2-.1 2.1 0 3 0z"/></g><path id="パス_1539" d="M63.3 30.7c.4 0 .9-.1 1.3-.3l.4-.2.9-.5h.2l1.2.7c.5.3 1.1.4 1.7.3.3-.1.6-.4.5-.7-.1-.3-.4-.6-.7-.5-.3 0-.6 0-.9-.2l-.4-.2-.8-.5c-.2-.1-.4-.2-.6-.2h-.2c-.2 0-.5.1-.7.2l-1.2.7c-.3.2-.6.2-.9.2-.3-.1-.6.2-.7.5-.1.3.2.6.5.7h.4z"/><path id="パス_1540" d="M64.2 25.1c.2-.2.6-.5 1.7-.6h.1c1.1 0 1.6.4 1.7.6.1.1.1.2 0 .3-.4.4-.9.7-1.4.9-.2.1-.5.1-.7 0-.5-.2-1-.5-1.4-.9-.1-.1-.1-.2 0-.3z"/><path id="パス_1541" class="st5" d="M73.4 20.6c-.6-.6-1.5-.6-2.1 0-.1.1-.2.2-.2.3-.5.9-.5 2-.1 3 .4.8 1.4 1.1 2.2.7.2-.1.3-.2.4-.3.9-1.2.8-2.7-.2-3.7z"/><path id="パス_1542" class="st5" d="M58.4 20.6c.6-.6 1.5-.6 2.1 0 .1.1.2.2.2.3.5.9.5 2 .1 3-.4.8-1.4 1.1-2.2.7-.2-.1-.3-.2-.4-.3-.8-1.2-.7-2.7.2-3.7z"/></g><g id="グループ_471" transform="translate(206.179 257.89)"><path id="パス_1543" class="st6" d="M71.6 83.5s7.2-6.6 10.6-32.1c2.5-18.2 5.9-40.5-1.3-40.5-6.2 0-1 15.3-4.6 31.1-2 8.3-4.5 16.5-7.4 24.5 0 0-3 15.7 2.7 17z"/><path id="パス_1544" d="M71.7 83.2c-.2 0-.5-.1-.7-.3-.4-.4-.3-.9 0-1.3 1.3-1.3 2.6-3 4.4-7.4 3.2-7.8 8.6-40.2 8.7-50.4 0-.3 0-.7.1-1.1.1-1.6.1-3.3 0-4.9-.1-.5.3-1 .8-1 .5-.1.9.3 1 .8.2 1.7.2 3.5.1 5.2 0 .4 0 .7-.1 1-.2 10.6-5.5 43-8.9 51.1-1.9 4.7-3.3 6.6-4.8 8-.1.2-.3.3-.6.3z"/><path id="パス_1545" d="M70.8 64c-.1 0-.3 0-.4-.1-.5-.2-.7-.7-.5-1.2 2.2-4.8 4.3-15.4 5.6-23.7.8-5.7 1-11.5.6-17.2-.3-6.5-.5-10.8 3.4-11.8 1.1-.2 2.2 0 3.1.6 1.3.9 2.3 2.3 2.6 3.8.1.5-.2 1-.7 1.1-.5.1-1-.2-1.1-.7-.2-1.1-.9-2-1.8-2.6-.5-.3-1.1-.5-1.7-.4-2.3.6-2.3 3.6-2 9.9.4 5.9.2 11.8-.6 17.6-.6 4.1-2.9 17.8-5.8 24.1 0 .4-.4.6-.7.6z"/><path id="パス_1546" class="st6" d="M6.9 14.8c-2.6 2.9-3.5 9.1-2.3 12.9 1.2 4 2.6 4.8 5.5 7.2 1.2 1 5.7 2.9 11.5 2.9 3.2 0 7.2-.2 10-2.4 2.6-2 4.2-5.9 5.3-7.7 1-1.7 1.9-9.6-2-12.9-4.6-3.9-7.1-4.8-14.4-4.8s-9.6.3-13.6 4.8z"/><path id="パス_1547" class="st6" d="M65.5 55c-6-12.9-19.6-12-24.4-12.2S33.5 34 33.5 34s-6.7 3.3-12.4 3.3c-5.8 0-8.1-3.2-10.5-1.4 0 0-4 18.6-2.9 24.9 1.3 7.1 3.6 14 6.7 20.6 3 6.2 2.4 19.6 2.4 19.6s-4.1 2.5-3.3 4.8 4.5 2 6.7 1.5c1.9-.4 3.8-.6 5.7-.6 2.2 0 2.2 2.1 6.2 1.4 2.9-.5 6.2-2.5 3.8-5.3-.6-.7-1.4-1.9-1.4-1.9s.2 0 .5-2.4c1.2 1 3 .9 3.9 2.3.4.6-.4 2.3.7 3.6s.6 1.8 3.6 1.7 11.8 1 14.5-.6 11.6-4.7 13.3-13.9C72.7 81 72.5 70 65.5 55z"/><path id="パス_1548" d="M24.9 101.3c-.5 0-.9-.4-.9-.9 0-.1.5-8.1.3-12.3-.1-1-.2-2.1-.6-3.1l-2.1-6.3c-.1-.5.1-.9.5-1.1.5-.1.9.1 1.1.6l2.1 6.3c.4 1.1.6 2.3.6 3.5.2 4.2-.3 12.1-.3 12.5.1.5-.3.8-.7.8z"/><g id="グループ_469"><path id="パス_1549" class="st6" d="M13.2 10.7S4.2.2 2.4 1.4C1.4 2 1 8.2 1.9 11.9c.5 2.1 1.5 4.1 2.9 5.7 1.6-1.5 3.2-2.9 5-4.1 1.2-.8 2.4-1.8 3.4-2.8z"/><path id="パス_1550" d="M3.3 15.7c-.3 0-.5-.1-.7-.3-1-1.4-1.8-3-2.1-4.7-.8-3.3-.3-8.3 1-9.9.3-.4.8-.7 1.3-.7 2.1 0 9.4 8.2 10.1 9.2.3.4.1 1-.3 1.2-.4.3-1 .1-1.2-.3C9 7.1 6.1 4.3 2.9 1.9c-.7.8-1.4 5.3-.6 8.4.3 1.4.9 2.8 1.7 3.9.3.4.3.9-.1 1.2-.2.2-.4.3-.6.3z"/></g><g id="グループ_470" transform="translate(28.154)"><path id="パス_1551" class="st6" d="M.2 10.7S9.2.2 11 1.4c.9.6 1.3 6.8.5 10.5-.5 2.2-1.5 4.1-3 5.7-1.6-1.5-3.2-2.9-5-4.1-1.2-.8-2.3-1.8-3.3-2.8z"/><path id="パス_1552" d="M10 15.7c-.2 0-.4-.1-.6-.2-.4-.3-.4-.9-.1-1.2.8-1.2 1.4-2.5 1.7-3.9.8-3.2.1-7.6-.6-8.4-1.5.7-7.5 6.8-8.5 8.4-.3.4-.8.5-1.2.3-.4-.3-.5-.8-.3-1.2C1 8.5 8.3.3 10.5.3c.5 0 1 .3 1.3.7 1.3 1.7 1.8 6.7 1 9.9-.3 1.7-1.1 3.3-2.1 4.7-.2 0-.4.1-.7.1z"/></g><path id="パス_1553" d="M70.5 69.9c-.5 0-.8-.4-.8-.9 0-.1.1-9.2-9.3-19-5.6-5.9-11.6-6.4-16.3-6.8-1.8-.1-3.5-.4-5.2-.9-3.9-1.6-5.9-6.6-6.2-7.7-.2-.4.1-.9.5-1.1.4-.2.9.1 1.1.5.2.5 2 5.4 5.3 6.7 1.5.5 3.1.7 4.7.8 4.8.4 11.3 1 17.4 7.3 9.9 10.3 9.7 19.8 9.7 20.2 0 .5-.4.9-.9.9z"/><path id="パス_1554" d="M33.4 108.6c-1.1 0-2.3-.1-3.4-.3-1.5-.1-2.8-.8-3.8-2-.4-.5-.5-1.2-.4-1.9.1-.5.6-.8 1-.7.5.1.8.6.7 1 0 .2 0 .4.1.5.7.7 1.6 1.2 2.6 1.2 4 .6 5.2 0 5.5-.2.1-.1.2-.2.2-.4 0-1.2-.4-2.4-1.3-3.2-.4-.5-.8-1.1-1.1-1.7-.7-1.9 5.2-27.1 5.3-27.3.1-.5.6-.7 1.1-.6.5.1.7.6.6 1.1-.8 2.6-5.4 24.4-5.3 26.3.2.4.5.8.8 1.2 1.1 1.2 1.7 2.8 1.7 4.4-.1.6-.4 1.2-.9 1.5-1 1-2.2 1.2-3.4 1.1zm1.9-7.9z"/><path id="パス_1555" d="M52.6 106.7h-4.8c-2.1 0-5.7-.1-7.4-.9-1.8-.7-2.7-2.6-2.2-4.5.6-3.4 5.5-4 5.7-4 .5-.1.9.3 1 .8.1.5-.3.9-.8 1 0 0-3.8.5-4.2 2.6-.4 1 .1 2.2 1.2 2.6 1.2.5 4.3.7 6.7.7h2.6c1.5 0 2.9.1 5.2 0 3.1-.1 10.2-5.3 13.3-11.3 2.9-5.7 1-18.1.9-18.2-.1-.5.2-.9.7-1 .5-.1.9.2 1 .7.1.5 2 13.1-1.1 19.3-2.6 5.2-10.1 12-14.7 12.2h-3.1z"/><path id="パス_1556" d="M4.3 28.2s10 7.1 16.7 7.1 15.8-7.1 15.8-7.1c-2.7 2.4-4.8 5.4-6.2 8.6-2.6 6 3.3 15 1.4 22.3-2.8 10.6-5.4 15.4-9.6 15.9s-8.1-6.5-10-15c-1.9-8.2.2-19.8-.5-23.2s-7.6-8.6-7.6-8.6z" style="fill:#e2b585"/><path id="パス_1557" class="st8" d="M32 31.1c0 2.3-7 4.8-11 4.8s-10.5-2.5-10.5-4.8c0-1.6 3.2-1.9 6.2-1.4 1.3.2 3.1 1 4.3 1 1.5-.2 2.9-.6 4.3-1 3.2-.5 6.7-.3 6.7 1.4z"/><path id="パス_1558" d="M18.2 32.6h-.4c-.3-.1-.6-.4-.5-.7.1-.3.4-.6.7-.5.3 0 .6 0 .9-.2l.4-.2.8-.5c.2-.1.4-.2.6-.2h.3c.2 0 .5.1.7.2l1.2.7c.3.2.6.2.9.2.3-.1.6.2.7.5.1.3-.2.6-.5.7-.6.1-1.2 0-1.7-.3l-.4-.2-.9-.6h-.3l-1.2.7c-.4.3-.8.4-1.3.4z"/><path id="パス_1559" class="st9" d="M20.9 10.5h-.1c-2.5-.1-5 .3-7.4 1.1l6.9 6.8c.1.1.3.2.4.2h.4c.1 0 .3-.1.4-.2l6.9-6.8c-2.5-.8-5-1.2-7.5-1.1z"/><path id="パス_1560" class="st9" d="M29.7 27.5c-.2-.1-.2-.4-.1-.5.1-.1.2-.2.4-.2.6 0 1.3-.2 1.9-.4.9-.3 1.7-.8 2.3-1.4.3-.3.9-.1.8.3-.3 1.1-1.2 2-2.3 2.4-1 .5-2.1.4-3-.2z"/><path id="パス_1561" class="st9" d="M13.2 27.5c.2-.1.2-.4.1-.5-.1-.1-.2-.2-.4-.2-.6 0-1.3-.2-1.9-.4-.9-.3-1.7-.8-2.3-1.4-.3-.3-.9-.1-.8.3.3 1.1 1.2 2 2.3 2.4 1 .5 2.1.4 3-.2z"/><path id="パス_1562" class="st9" d="M18.6 14.5c.2-.1.4.1.5.3 0 .1 0 .3-.1.4-.4.5-.7 1.1-.9 1.7-.4.8-.5 1.8-.3 2.7.1.4-.5.7-.8.4-.7-.9-.8-2.2-.4-3.2.3-1.2 1-2 2-2.3z"/><path id="パス_1563" class="st9" d="M23.5 14.5c-.2-.1-.4.1-.5.3 0 .1 0 .3.1.4.4.5.7 1.1.9 1.7.4.8.5 1.8.3 2.7-.1.4.5.7.8.4.7-.9.8-2.2.4-3.2-.2-1.2-1-2-2-2.3z"/><path id="パス_1564" d="M22.6 27c-.2-.2-.6-.5-1.7-.6h-.1c-1.1 0-1.6.4-1.7.6-.1.1-.1.2 0 .3.4.4.9.7 1.4.9.2.1.5.1.7 0 .5-.2 1-.5 1.4-.9.1-.1.1-.2 0-.3z" style="fill:#6b2927"/><path id="パス_1565" d="M28 12c-.1 0-.3 0-.4-.1 0 0-2.1-1-6.6-1-2.4-.1-4.7.3-6.9 1.1-.4.2-.9 0-1-.4-.2-.4 0-.9.4-1 2.4-.9 5-1.3 7.6-1.2 5 0 7.2 1.2 7.3 1.2.4.2.5.7.3 1.1-.1.1-.4.3-.7.3z"/><path id="パス_1566" class="st11" d="M13.4 21.5c.6-.6 1.5-.6 2.1 0 .1.1.2.2.2.3.5.9.5 2 .1 3-.4.8-1.4 1.1-2.2.7-.2-.1-.3-.2-.4-.3-.9-1.2-.8-2.7.2-3.7z"/><path id="パス_1567" class="st11" d="M28.4 21.5c-.6-.6-1.5-.6-2.1 0-.1.1-.2.2-.2.3-.5.9-.5 2-.1 3 .4.8 1.4 1.1 2.2.7.2-.1.3-.2.4-.3.9-1.2.8-2.7-.2-3.7z"/><path id="パス_1568" d="M18.6 108.5c-2.7 0-5.6-1-5.7-4 0-1.3.8-2.5 2.1-3 .9-.5 1.4-.9 1.4-1.8 0-3-1.3-13.1-2.3-16.1-.4-1.1-.9-2.2-1.4-3.2-2.7-5-4.5-10.5-5.3-16.2-1.5-11.9-.4-15.4 2-21.1.5-1.2.8-2.5.9-3.9 0-.5.4-.8.9-.8s.8.4.8.9c-.1 1.6-.4 3.1-1 4.5-2.5 5.5-3.5 8.6-2 20.1.8 5.5 2.5 10.8 5.1 15.7.6 1.1 1.1 2.2 1.5 3.4 1.2 3.4 2.4 13.9 2.4 16.7 0 1.4-.9 2.7-2.2 3.3-.9.5-1.2.8-1.2 1.5 0 2.2 3.1 2.3 4 2.3 1.7-.1 3.4-.5 4.9-1.3.4-.2.9-.1 1.2.3.2.4.1.9-.3 1.2-1.8.9-3.8 1.4-5.8 1.5z"/><path id="パス_1569" d="M10.9 37.5c-.3 0-.6-.2-.7-.5-.4-.8-.9-1.6-1.5-2.3-.3-.4-.7-.8-1.1-1.2-1.9-2.1-4.2-4.7-4.2-9.4 0-2.6.3-5.2.8-7.7.1-.4.5-.7.9-.6.4.1.7.5.6.9-.5 2.5-.7 4.9-.8 7.4 0 4 2 6.3 3.8 8.3.4.4.8.9 1.1 1.3.7.8 1.2 1.7 1.7 2.6.2.4 0 .9-.4 1.1.1 0-.1.1-.2.1z"/><path id="パス_1570" d="M31 37.5c-.1 0-.2 0-.3-.1-.4-.2-.6-.7-.4-1.1.5-.9 1-1.8 1.7-2.6.3-.4.7-.8 1.1-1.3 1.8-2 3.8-4.3 3.8-8.3 0-2.5-.3-5-.8-7.4-.1-.4.2-.9.6-.9.4-.1.9.2.9.6.5 2.6.7 5.1.8 7.7 0 4.7-2.3 7.3-4.2 9.4-.4.4-.7.8-1.1 1.2-.6.7-1.1 1.5-1.5 2.3 0 .3-.3.5-.6.5z"/><path id="パス_1571" d="M24.6 77.2c-1.8-.2-3.4-.9-4.8-1.9-1.8-1.3-3.2-3.1-4.1-5.2-.2-.4 0-.9.5-1.1.4-.2.9 0 1.1.5.7 1.7 1.9 3.2 3.4 4.4 1.2.8 2.5 1.4 3.9 1.6.5 0 .8.4.8.9.1.4-.3.8-.8.8z"/></g><g id="グループ_483" transform="translate(57.22 302.161)"><path id="パス_1572" class="st12" d="M82.5 6.7c4.7 0 8.5-.1 13.6 4.3 5.7 5 6.3 11.5 4.6 15.7-1.8 4.6-6.5 9.8-7.3 11s0 6.9 0 6.9-1.7-.1-13.6-1.8c-9.7-1.4-14.3-5.2-16.5-6.4-.2-.1 1.2-.8 1.5-.9.6-.2 2.6-.2 2.1-1.9-.9-3.2-4.2-4.6-4.3-9.1S63 16 68.7 11c5.1-4.5 8.8-4.3 13.5-4.3h.3z"/><path id="パス_1573" class="st12" d="M23.4 55c6.5-7.5 13.9-11.7 20.1-12.4 5.5-1 10.8-2.8 15.8-5.3 2.3-1.4 7.2-6.2 7.2-6.2s6.5 7.3 13.7 7.7c9.9.5 10.5-3.8 13.5-1.9 0 0 3.3 17 1.9 23.4s-2.3 9.2-6.5 16.3c-3.8 6.5-1.7 11.3-1.7 11.3s1.8 2.7.8 5-2.8 2.7-5.5 2.2c-2-.4-4-1-5.9-1.8 0 0-1.5 3.1-6.6 2.4-3.6-.5-4.7-2.8-4.8-5.3 0-.6.8-3.6 1-4.8-.1.2-9.7 2.8-14.5 2.9-.7 0 .9 4.4-.4 5.5s-.8 1.5-4.2 1.4-10.4 1.8-13.7.4S19.1 91 17.2 83.2C15 74.3 13.5 66.5 23.4 55z"/><path id="パス_1574" class="st8" d="M16.3 57.9s-1.4-10.2-6.9-10.3C2.7 47.6.6 52 1.1 58.2 1.9 68.8 9.2 72.9 11.6 75s2.7-4.2 3.5-7.4c.8-3.2 2-5.8 1.2-9.7z"/><path id="パス_1575" class="st12" d="M14.7 78.4c-3.9-2.6-7.3-5.8-10-9.6-5-7.3-7.2-17.2 1.9-21.5 6.2-3 11.9 12.9 11.9 12.9s2.2 16.8-3.8 18.2z"/><path id="パス_1576" d="M79.4 25.9c.2-.3.8-.8 2.4-.8h.1c1.6 0 2.2.5 2.4.8.1.1.1.3 0 .4-.6.6-1.2 1-2 1.3-.3.1-.7.1-1 0-.7-.3-1.4-.7-2-1.3 0-.1 0-.3.1-.4z" style="fill:#754c24"/><path id="パス_1577" class="st12" d="M89.4 7.6S98.8-.3 100.9.9s-1.4 13.4-1.4 13.4-3.4-2.6-5.8-3.9-4.3-2.8-4.3-2.8z"/><path id="パス_1578" class="st12" d="M75.8 7.6S66.4-.3 64.3.9s1.4 13.4 1.4 13.4 3.4-2.6 5.8-3.9 4.3-2.8 4.3-2.8z"/><g id="グループ_472" transform="translate(72.891 19.868)"><path id="パス_1579" d="M17.3.4c-.6-.6-1.6-.5-2.2.1 0 0-.1.1-.1.2-.5.8-.5 1.8-.1 2.6.5.8 1.5 1 2.3.5.1-.1.2-.1.2-.2.9-.9.8-2.3-.1-3.2z"/><path id="パス_1580" d="M.9.4c.6-.6 1.6-.5 2.2.1 0 0 .1.1.1.2.5.8.5 1.8.1 2.6-.5.8-1.6 1-2.3.5-.1 0-.2-.1-.3-.1-.8-1-.7-2.4.2-3.3z"/></g><path id="パス_1581" d="M78.2 31.1c.6 0 1.1-.1 1.7-.3l.6-.2 1.3-.6c.1 0 .2-.1.3-.1h.2c.1 0 .2 0 .3.1l1.8.8c.7.3 1.5.4 2.2.3.3 0 .6-.3.5-.7 0-.3-.3-.6-.7-.5-.5.1-1.1 0-1.6-.2l-.6-.2-1.2-.6c-.2-.1-.5-.2-.8-.2H82c-.3 0-.5.1-.8.2l-1.8.8c-.5.2-1 .3-1.6.2-.3 0-.6.2-.7.5 0 .3.2.6.5.7h.6z"/><path id="パス_1582" class="st12" d="M40.5 86.3s9.7.3 11.6 3.6c1.4 2.5.8 5.1-2.9 5.4s-15.6-.1-15.6-.1-1.6-5.2.6-7.2 3.3-2 6.3-1.7z"/><g transform="translate(15.396 31.01)" id="グループ_478"><defs><path id="SVGID_1_" d="M8 24c6.5-7.5 13.9-11.7 20.1-12.4 5.5-1 10.8-2.8 15.8-5.3C46.2 4.9 51 .1 51 .1s6.5 7.3 13.7 7.7c9.9.5 10.5-3.8 13.5-1.9 0 0 3.3 17 1.9 23.4s-2.3 9.2-6.5 16.3C69.9 52 72 56.8 72 56.8s1.8 2.7.8 5-2.8 2.7-5.5 2.2c-2-.4-4-1-5.9-1.8 0 0-1.5 3.1-6.6 2.4-3.6-.5-4.7-2.8-4.8-5.3 0-.6.8-3.6 1-4.8-.1.2-9.7 2.8-14.5 2.9-.7 0 .9 4.4-.4 5.5s-.8 1.5-4.2 1.4-10.4 1.8-13.7.4S3.7 59.9 1.8 52.2C-.4 43.3-1.9 35.5 8 24z"/></defs><clipPath id="SVGID_00000134217091666458468410000011517629779773796240_"><use xlink:href="#SVGID_1_" style="overflow:visible"/></clipPath><g id="グループ_477" style="clip-path:url(#SVGID_00000134217091666458468410000011517629779773796240_)"><g id="グループ_476" transform="translate(2.103 -4.414)"><g id="グループ_473"><path id="パス_1583" class="st15" d="M58 16.6c.5 0 .8-.3.8-.5s-.2-.5-.7-.6c-.3-.1-.6-.2-.8-.2-1.3-.4-2.5-.8-3.7-1.2-1.2-.5-2.3-1-3.5-1.6-.6-.3-1.1-.6-1.6-.9-.1-.1-.3-.2-.4-.2l-.2-.1c-.1 0-.1-.1-.2-.1l-.2-.1c-.1 0-.1-.1-.2-.1l-.2-.1c-.1 0-.1-.1-.2-.1-.5-.4-.9-.8-1.3-1.3s-.8-.9-1.2-1.4-.8-1-1.1-1.5-.7-1.1-1.1-1.6l-2.1-3.3-.5-.8c-.1-.8-.4-.9-.6-.8s-.4.4-.2.9c.1.3.2.6.2.9.4 1.3.9 2.6 1.4 3.8.3.6.6 1.3.9 1.9.3.6.7 1.2 1.1 1.8.4.6.8 1.2 1.3 1.7.5.6 1 1.1 1.6 1.6l.2.2.2.2c.1.1.2.1.2.2l.2.2c.1.1.2.1.2.1l.2.1c.2.1.3.2.5.3.6.3 1.3.7 1.9.9 1.3.6 2.6 1 4 1.3 1.4.3 2.7.5 4.1.5.4-.1.7-.1 1-.1z"/><path id="パス_1584" class="st15" d="M48.9 21.7c.5 0 .9-.2.9-.4s-.2-.5-.7-.7l-.9-.3c-1.3-.5-2.6-1-3.8-1.6-1.2-.6-2.4-1.3-3.5-2.1-.5-.4-1.1-.8-1.6-1.2-.5-.4-1-.9-1.4-1.4l-.3-.4-.2-.2-.2-.2c-.2-.3-.5-.5-.7-.8l-1.4-1.6c-.9-1.1-1.8-2.2-2.8-3.2-.9-1.1-1.9-2.1-2.9-3.2l-.4-.8c-.7-.8-1.4-.3-.9.7.2.3.3.6.5.9.7 1.3 1.4 2.5 2.2 3.7l2.4 3.6c.4.6.9 1.2 1.3 1.7.2.3.5.6.7.8l.2.2.2.2.4.4c.5.6 1.1 1.1 1.7 1.6.6.5 1.2.9 1.9 1.3 1.3.8 2.7 1.4 4.1 1.9 1.4.5 2.9.8 4.4.9.1.1.5.1.8.2z"/><path id="パス_1585" class="st15" d="M47.5 31.1c.7.2 1.2 0 1.3-.3s-.1-.6-.8-1l-1.2-.6c-1.8-.9-3.5-1.7-5.2-2.6s-3.3-1.6-5-2.6l-.3-.2-.3-.1-.6-.4c-.4-.2-.8-.5-1.2-.7-.8-.5-1.6-1-2.3-1.5l-.6-.4c-.2-.1-.4-.3-.5-.4l-.3-.3-.3-.2-.2-.2c-.1-.1-.2-.1-.3-.2l-.4-.4c-.1-.1-.2-.1-.2-.2l-.2-.2c-.1-.1-.2-.1-.2-.2l-.4-.4-.2-.2-.1-.1-.1-.1-.4-.5c-.1-.1-.1-.2-.2-.3l-.2-.3c-.3-.3-.5-.7-.8-1.1-.1-.2-.3-.4-.4-.6l-.4-.6-.4-.6-.1-.1-.2-.3c-1-1.5-1.9-3.1-2.8-4.7l-.6-1.1c-.3-.6-.7-.8-1-.7s-.5.5-.3 1.2l.3 1.2c.5 1.8 1.1 3.6 1.8 5.3l.1.3.1.3.3.6.3.6.3.6c.2.4.5.8.7 1.3l.2.3c.1.1.1.2.2.3l.4.6.1.2.1.1.2.3.2.3.3.3.3.3.3.3.6.5.3.3.3.2.3.2.3.2c.2.2.4.3.6.5l.6.4c.8.6 1.7 1.1 2.5 1.6.4.3.9.5 1.3.7l.7.4.3.2.3.2c1.8.9 3.7 1.7 5.6 2.4 1.9.7 3.9 1.3 5.9 1.8.7.2 1.2.3 1.6.4z"/><path id="パス_1586" class="st15" d="M14.3 12.3c-.2-.5-.8-.8-1.3-.7-.5 0-1 .4-1 .9v1c.1 1.6.3 3.2.8 4.7.5 1.6 1.3 3.2 2.2 4.6l.2.3c.1.1.1.2.2.3l.4.5c.3.4.6.7.9 1.1.7.7 1.4 1.4 2.1 2 1.6 1.3 3.2 2.5 5 3.5 1.8 1.1 3.7 2.1 5.6 3 1.9.9 4 1.8 6.1 2.5.5.2 1 .3 1.5.5.6.3 1.2.2 1.7-.1.3-.3.2-.7-.3-1.1 0 0-10-5.7-11.5-6.8s-3-2.2-4.3-3.3c-.7-.6-1.3-1.1-1.9-1.7-.3-.3-.6-.6-.8-.9l-.4-.5c-.1-.1-.1-.2-.2-.2l-.2-.2c-1-1.2-2-2.5-2.8-3.9-.9-1.3-.7-3.2-1.4-4.6-.1-.2-.2-.3-.2-.5s-.3-.3-.4-.4z"/><path id="パス_1587" class="st15" d="M9.4 22.2c0-.5-.2-.8-.6-.9s-.7.2-.9.7c-.1.3-.2.7-.3 1-.4 1.5-.5 3.1-.3 4.7s.7 3.2 1.5 4.7l.3.6.3.5.4.5.1.1.1.1.2.3c.1.1.1.2.2.3l.2.2.2.2.1.1.1.1.3.3c.1.1.2.2.3.2l.3.2.3.2c.7.5 1.5 1 2.2 1.5.8.5 1.5.9 2.3 1.3 1.6.8 3.2 1.5 4.8 2.1 1.6.6 3.3 1.2 5 1.7l1.2.3c.6.2 1.1 0 1.2-.2s0-.6-.6-.9l-1-.6c-1.5-.8-2.9-1.6-4.4-2.5s-2.9-1.6-4.3-2.4c-.7-.4-1.4-.8-2-1.3s-1.3-.9-1.9-1.3l-.2-.2-.2-.2-.2-.2-.2-.2-.1-.1-.1-.1-.2-.2-.1.2-.2-.2-.2-.2-.1-.1-.1-.1-.3-.4-.3-.4c-.1-.1-.2-.3-.3-.4-.8-1.2-1.4-2.4-1.8-3.8-.4-1.4-.7-2.7-.7-4.2v-1z"/><path id="パス_1588" class="st15" d="M1.5 33c-.4-.5-.8-.7-1-.5s-.3.5 0 1.1c.2.4.3.7.5 1.1.8 1.6 1.7 3.1 2.7 4.6 1 1.5 2.1 2.9 3.3 4.3.6.7 1.2 1.3 1.9 2l2.1 1.8c.2.1.4.3.6.4l.3.2c.1.1.2.1.3.2l.6.4c.2.1.4.3.6.4.4.2.8.5 1.2.7s.8.4 1.2.7c1.6.9 3.1 1.7 4.8 2.4s3.2 1.4 4.9 2.1c.4.1.8.3 1.1.4.6.2 1 .1 1.1-.1s-.1-.6-.6-.9l-1-.6c-1.5-.9-3-1.9-4.5-2.8s-3-1.8-4.4-2.7l-1.1-.7c-.4-.2-.7-.5-1.1-.7-.2-.1-.4-.2-.5-.4L14 46c-.1-.1-.2-.1-.3-.2l-.2-.2c-.2-.1-.3-.2-.5-.4-.7-.5-1.3-1.1-1.9-1.6s-1.2-1.2-1.8-1.8C8.1 40.6 7 39.3 5.8 38s-2.2-2.7-3.3-4c-.6-.4-.8-.7-1-1z"/><path id="パス_1589" class="st15" d="M1.3 47.6c-.3-.4-.7-.6-.9-.5s-.3.5-.1 1c.1.2.1.3.2.5l.2.5c.7 1.4 1.4 2.8 2.3 4.1.9 1.3 1.8 2.5 2.9 3.7 1.1 1.2 2.2 2.2 3.5 3.2.6.5 1.3.9 2 1.4.7.4 1.4.8 2.1 1.1 1.4.7 2.8 1.3 4.3 1.8s2.9 1 4.4 1.4c.3.1.7.2 1 .2.6.1.9 0 1-.2s-.1-.6-.6-.8l-.9-.5c-1.3-.7-2.7-1.4-4-2.1s-2.7-1.4-4-2.2c-.6-.4-1.3-.7-1.9-1.1s-1.2-.8-1.7-1.2C10 57 8.9 56 7.8 55c-1.1-1-2.1-2.1-3.1-3.2s-1.9-2.2-2.9-3.4l-.2-.4-.3-.4z"/></g><path id="パス_1590" class="st15" d="M67.9 16.6c-.5-.1-.8-.3-.8-.6s.2-.5.7-.6c.3-.1.6-.1.9-.2 1.3-.3 2.5-.6 3.8-.9 1.2-.4 2.4-.8 3.6-1.3.6-.2 1.2-.5 1.7-.8.1-.1.3-.1.4-.2l.2-.1c.1 0 .1-.1.2-.1l.2-.1c.1 0 .1-.1.2-.1l.2-.1c.1 0 .1-.1.2-.1.5-.3.9-.7 1.4-1.1.4-.4.8-.9 1.2-1.3s.8-1 1.2-1.5L84.4 6c.8-1 1.6-2.1 2.4-3.2l.5-.7c.3-.4.6-.5.8-.4s.3.4.2.9l-.3.9c-.4 1.3-1 2.5-1.7 3.7-.3.6-.6 1.2-1 1.8-.4.6-.8 1.1-1.2 1.7-.4.6-.9 1.1-1.4 1.6-.5.5-1.1 1-1.7 1.4-.1.1-.2.1-.2.2l-.2.2c-.1.1-.2.1-.3.2l-.3.1c-.1.1-.2.1-.2.1l-.2.1c-.2.1-.3.2-.5.2-.6.3-1.3.6-2 .8-1.3.4-2.7.8-4.1.9-1.4.2-2.8.2-4.1.2-.4 0-.7 0-1-.1z"/><path id="パス_1591" class="st15" d="M69.8 25.6c-.5 0-.8-.3-.8-.5s.3-.5.8-.6c.3-.1.6-.1.9-.2 1.3-.3 2.7-.7 4-1.1 1.3-.4 2.5-1 3.7-1.6.6-.3 1.1-.7 1.7-1 .5-.4 1.1-.8 1.6-1.2l.3-.4.2-.2.2-.2c.3-.2.5-.5.8-.7l1.6-1.4c1-1 2.1-1.9 3.2-2.9s2.1-1.9 3.3-2.8l.8-.6c.8-.7 1.4-.1.8.8-.2.3-.4.5-.6.8-.9 1.2-1.8 2.3-2.7 3.4s-1.9 2.2-2.9 3.2l-1.5 1.5-.8.8-.2.2c-.2.1-.3.1-.3.2l-.4.4c-.6.5-1.2.9-1.9 1.4-.7.4-1.3.8-2 1.1-1.4.6-2.8 1.1-4.3 1.4-1.5.3-2.9.4-4.4.4-.4-.1-.7-.1-1.1-.2z"/><path id="パス_1592" class="st15" d="M70.2 35.7c-.6.1-.9-.1-.9-.3s.2-.5.7-.8l1-.4c1.4-.6 2.8-1.2 4.2-1.9s2.8-1.3 4.1-2l.3-.1.3-.1.5-.3c.3-.2.7-.4 1-.6.7-.4 1.3-.8 1.9-1.2l.5-.3c.2-.1.3-.2.5-.3l.2-.2.2-.2.2-.2.2-.2.4-.3.2-.2.2-.2.2-.2.2-.2.2-.2.1-.1.1-.1.3-.1.2-.2.2-.2c.3-.3.5-.6.7-.9.1-.1.2-.3.4-.4l.4-.5.4-.5.2-.2.2-.2c.9-1.2 1.8-2.5 2.7-3.9l.6-.9c.3-.5.7-.6.9-.5s.3.5.1 1c-.1.3-.3.7-.4 1-.6 1.5-1.4 3-2.2 4.4l-.2.3-.2.3-.3.5c-.1.2-.2.3-.3.5s-.3.4-.4.6c-.2.3-.5.7-.7 1l-.2.3c-.1.1-.1.2-.2.2l-.4.5-.1.1-.1.1-.3.3-.2.2c-.1.1-.2.1-.2.2l-.2.2c-.1.1-.2.1-.2.2l-.6.5c-.1.1-.2.1-.2.2l-.2.2-.2.2-.3.2c-.2.1-.3.2-.5.4l-.5.3c-.7.4-1.4.9-2.1 1.2-.4.2-.7.4-1.1.6l-.5.3-.3.1-.3.1c-1.5.6-2.9 1.2-4.5 1.7-1.5.5-3 .8-4.6 1.1-.4 0-.7.1-1.1.1z"/><g id="グループ_474" transform="translate(58.678 34.182)"><path id="パス_1593" class="st15" d="M26.5.3c.2-.3.5-.3.8-.1.2.1.3.5 0 .9-.1.1-.1.2-.2.3s-.1.2-.2.3c-.7 1-1.4 1.9-2.2 2.8-.8.9-1.8 1.7-2.7 2.4l-.2.1c-.1 0-.1.1-.2.1l-.4.2c-.3.2-.5.3-.8.5-.5.3-1.1.5-1.7.8-1.1.4-2.3.7-3.5 1-1.2.2-2.3.4-3.5.5-1.2.1-2.3.1-3.5.1h-.8c-.4-.2-.6-.4-.7-.7s.2-.5.6-.6l.8-.2 3.3-.9c1.1-.3 2.2-.6 3.2-.9s2.1-.6 3.1-1l1.5-.6c.2-.1.5-.2.7-.4l.4-.2c.1 0 .1-.1.2-.1l.2-.1c.9-.5 1.8-1.1 2.7-1.8.9-.6 1.8-1.3 2.6-2 .1-.1.2-.2.3-.2s.1-.1.2-.2z"/><path id="パス_1594" class="st15" d="M22.6 10.5c.2-.3.5-.5.7-.4s.4.4.2.8c-.1.3-.1.5-.2.8-.4 1.2-1 2.3-1.7 3.2-.8 1-1.7 1.9-2.8 2.6-.1.1-.3.2-.4.3l-.4.2-.4.2s-.1 0-.1.1h-.1l-.2.1c-.1 0-.1.1-.2.1l-.2.1-.2.1h-.2l-.4.1c-.1 0-.2 0-.2.1l-.2.1h-.2c-.6.1-1.2.2-1.9.2h-1.8c-1.2 0-2.4-.1-3.6-.3-1.2-.2-2.4-.4-3.5-.6-.3-.1-.5-.1-.8-.2-.6-.2-.8-.4-.8-.6s.3-.4.7-.4h.8C5.7 17 6.9 17 8 17s2.3-.1 3.4-.1c.6 0 1.1-.1 1.7-.1s1.1-.1 1.6-.2h1l.2-.1.2-.1.2-.1.2-.1h.2l.4-.2.3-.2c.1-.1.2-.1.3-.2.9-.5 1.8-1.1 2.5-1.9.8-.8 1.5-1.6 2.1-2.5 0-.3.2-.5.3-.7z"/><path id="パス_1595" class="st15" d="M25.3 22c.4-.1.7-.1.8.1s0 .4-.4.6c-.2.1-.5.3-.7.4-1.1.6-2.2 1.2-3.3 1.7-1.1.5-2.3.9-3.5 1.2-.6.2-1.2.3-1.8.4-.6.1-1.3.2-1.9.3h-2.8c-.3 0-.6 0-.9-.1-1.2-.1-2.5-.2-3.7-.4s-2.4-.4-3.6-.7c-.3-.1-.6-.1-.8-.2-.4-.1-.6-.3-.6-.5s.3-.3.7-.3h.8c1.2 0 2.4.1 3.7.1s2.4.1 3.6.1h3.4c.6 0 1.2-.1 1.7-.2s1.2-.2 1.7-.3c1.2-.2 2.3-.5 3.5-.9s2.3-.7 3.4-1.1c.2 0 .4-.1.7-.2z"/><path id="パス_1596" class="st15" d="M22.1 29.2c.4-.1.7 0 .7.1s-.1.4-.4.6c-.1.1-.2.1-.4.2l-.4.2c-1.1.5-2.2 1-3.3 1.3-1.1.4-2.3.6-3.5.8-1.2.2-2.4.3-3.6.3-.6 0-1.2-.1-1.8-.1-.6-.1-1.2-.2-1.7-.3l-3.3-.9c-1.1-.4-2.1-.8-3.2-1.3-.2-.1-.5-.2-.7-.3-.4-.2-.5-.4-.4-.6s.3-.3.7-.2l.8.1 3.3.6 3.3.6c.5.1 1.1.2 1.6.2s1.1.1 1.6.1c1.1 0 2.2 0 3.3-.1s2.2-.3 3.3-.4 2.2-.4 3.3-.7l.4-.1.4-.1z"/></g><g id="グループ_475" transform="translate(35.649 37.345)"><path id="パス_1597" class="st15" d="M1.1.2C.9 0 .5 0 .3.2c-.2.2-.2.5.1.9l.3.3.3.3c.7.8 1.6 1.6 2.6 2.3 1 .7 2 1.3 3.1 1.9l.2.1s.1 0 .2.1l.4.2.9.3c.6.2 1.2.3 1.8.4 1.2.2 2.4.4 3.6.4 1.2 0 2.4 0 3.5-.1 1.2-.1 2.3-.3 3.5-.5.3-.1.5-.1.8-.2.4-.1.6-.4.6-.6s-.3-.5-.7-.5l-.8-.1-3.4-.3C16.2 5 15 4.9 14 4.8s-2.2-.3-3.2-.5c-.5-.1-1-.2-1.5-.4-.4-.1-.6-.1-.8-.2l-.4-.1c-.1-.1-.1-.1-.2-.1l-.2-.1c-1-.4-2-.8-3-1.3s-2-1-2.9-1.6c-.1 0-.2 0-.4-.1S1.2.3 1.1.2z"/><path id="パス_1598" class="st15" d="M3.7 8.5c-.3-.3-.6-.4-.8-.3s-.2.4-.1.8c.2.3.3.5.4.8.6 1.1 1.4 2.1 2.3 2.9.9.9 2 1.6 3.2 2 .1.1.3.1.4.2l.4.1.5.1h.2l.2.1c.1 0 .2 0 .2.1h1.7c.6 0 1.3 0 1.9-.1l1.8-.3c1.2-.2 2.3-.5 3.5-.9 1.1-.4 2.3-.8 3.4-1.3.3-.1.5-.2.8-.3.4-.2.6-.5.5-.7s-.3-.4-.8-.3l-.8.1c-1.2.2-2.3.4-3.5.5s-2.3.3-3.4.5c-.6.1-1.1.1-1.7.2s-1 .3-1.5.3h-2l-.4-.1-.4-.1c-.1 0-.2-.1-.4-.1-1-.3-1.9-.8-2.8-1.4-.7-.8-1.6-1.5-2.3-2.3-.2-.1-.3-.3-.5-.5z"/><path id="パス_1599" class="st15" d="M1.5 17.4c-.4-.1-.7-.1-.8.1s0 .4.4.6c.2.1.5.3.7.4 1.1.6 2.2 1.2 3.3 1.7 1.1.5 2.3.9 3.5 1.2.6.2 1.2.3 1.8.4.6.1 1.3.2 1.9.3h2.8c.3 0 .6 0 .9-.1 1.2-.1 2.5-.2 3.7-.4s2.4-.4 3.6-.7c.3-.1.6-.1.8-.2.4-.1.6-.3.6-.5s0-.2-.4-.2h-.8c-1.2 0-2.4.1-3.7.1s-2.4.1-3.6.1h-3.4c-.6 0-1.2-.1-1.7-.2s-1.2-.2-1.7-.3c-1.2-.2-2.3-.5-3.5-.9s-2.3-.7-3.4-1.1c-.5-.1-.7-.2-1-.3z"/><path id="パス_1600" class="st15" d="M5.2 24.6c-.4-.1-.7 0-.7.1s.1.4.4.6c.1.1.2.1.4.2l.4.2c1.1.5 2.2 1 3.3 1.3 1.1.4 2.3.6 3.5.8 1.2.2 2.4.3 3.6.3.6 0 1.2-.1 1.8-.1.6-.1 1.2-.2 1.7-.3l3.3-.9c1.1-.4 2.1-.8 3.2-1.3.2-.1.5-.2.7-.3.4-.2.5-.4.4-.6s-.3-.3-.7-.2l-.8.1-3.3.6-3.3.6c-.5.1-1.1.2-1.6.2s-1.2.1-1.7.1c-1.1 0-2.2 0-3.3-.1s-2.2-.3-3.3-.4-2.2-.5-3.3-.7l-.4-.1-.3-.1z"/></g></g></g></g><g id="グループ_481" transform="translate(63.88 6.978)"><g id="グループ_479" transform="translate(28.581 14.681)"><path id="パス_1602" class="st15" d="M7.1.4H5.6c-.5 0-.9 0-1.4-.1-.4.1-.8 0-1.2-.1C2.4.1 1.9 0 1.4.1c.4.3.8.7 1.2 1 .5.3 1 .5 1.6.5.6.1 1.1 0 1.6-.2s1-.5 1.3-1z"/><path id="パス_1603" class="st15" d="M6.8 5c-.5-.3-1.1-.5-1.7-.6-.5-.2-1.1-.3-1.6-.4l-.8-.2c-.3-.1-.5-.1-.8-.2-.6-.2-1.2-.3-1.7-.4.3.5.8 1 1.3 1.3.2.1.5.3.8.4l.9.3c.6.1 1.2.1 1.8.1.6 0 1.3-.1 1.8-.3z"/></g><g id="グループ_480" transform="translate(0 14.681)"><path id="パス_1604" class="st15" d="M.2.4c.3.5.8.8 1.3 1 .5.2 1.1.3 1.6.2.6-.1 1.1-.2 1.6-.5.4-.3.8-.6 1.2-1C5.4 0 4.8 0 4.3.2c-.4.1-.9.2-1.3.2s-.9.1-1.3.1S.7.5.2.4z"/><path id="パス_1605" class="st15" d="M.5 5c.5.2 1.1.3 1.8.3.6 0 1.2 0 1.8-.2.3 0 .6-.1.8-.2.3-.1.6-.3.8-.4.5-.3 1-.8 1.3-1.3-.5.1-1 .2-1.6.4-.3.1-.5.1-.8.2l-.8.2c-.5.1-1.1.2-1.7.4-.5.1-1.1.3-1.6.6z"/></g><path id="パス_1606" class="st15" d="M24 12.6c0 .1 0 0 0 0l.1-.2c0-.1.1-.2.1-.2 0-.2.1-.3.1-.5.1-.3.1-.7.2-1 .1-.7.1-1.3.1-2s-.1-1.4-.3-2c-.2-.7-.4-1.3-.7-2v-.1c-.1-.2-.3-.3-.4-.3-.1 0-.3 0-.4.1l-.1.1-.1.1c0 .1-.1.1-.1.2s-.1.2-.1.3c-.1.2-.1.4-.2.6-.1.4-.2.7-.4 1.1-.2.7-.4 1.5-.6 2.2.4-.7.8-1.3 1.1-2l.5-1c.1-.2.2-.3.3-.5 0-.1.1-.2.1-.2s0-.1.1-.1c-.1.1-.2.1-.3.1l-.5-.3c.2.6.3 1.2.4 1.8s.2 1.2.3 1.9l.3 1.9.1 1 .4 1z"/><path id="パス_1607" class="st15" d="M19.4 6.1c.3-.4.5-.8.6-1.3.1-.5.2-.9.2-1.4 0-.5 0-1-.2-1.5-.1-.2-.2-.5-.3-.7-.1-.2-.3-.4-.4-.6 0 .2 0 .5.1.7.1.2.1.4.1.7v1.3l-.1 1.4c.1.4.1.9 0 1.4z"/><path id="パス_1608" class="st15" d="M23.1 3.5c.1-.3.1-.7 0-1 0-.3-.1-.7-.2-1-.1-.3-.3-.6-.6-.9-.2-.3-.5-.4-.9-.5.3.5.6 1.1.8 1.7.3.5.6 1.1.9 1.7z"/><path id="パス_1609" class="st15" d="m12.9 12.6.2-1 .1-1 .3-1.9c.1-.6.2-1.2.3-1.9s.3-1.3.4-1.8l-.5.3c-.1 0-.2 0-.3-.1 0 0 0 .1.1.1 0 .1.1.1.1.2.1.2.2.3.3.5l.5 1c.4.7.7 1.3 1.1 2-.1-.8-.3-1.5-.5-2.2-.1-.4-.2-.7-.4-1.1-.1-.2-.1-.4-.2-.6 0-.1-.1-.2-.1-.3 0 0-.1-.1-.1-.2 0 0 0-.1-.1-.1l-.1-.1c-.1-.1-.2-.1-.4-.1s-.4.1-.4.3v.1c-.3.6-.5 1.3-.7 2-.2.7-.3 1.3-.3 2s0 1.3.1 2c0 .3.1.7.2 1 0 .2.1.3.1.5 0 .1 0 .2.1.2l.2.2c.1.1 0 0 0 0z"/><path id="パス_1610" class="st15" d="M13.9 3.5c.3-.6.6-1.2.8-1.8.2-.6.5-1.1.8-1.7-.3.1-.6.3-.9.5l-.6.9c-.1.3-.2.7-.2 1 0 .4 0 .8.1 1.1z"/><path id="パス_1611" class="st15" d="M17.6 6.1c-.1-.5-.1-.9-.1-1.4l-.1-1.4V2c0-.2.1-.4.1-.7.1-.2.1-.5.1-.7-.1.2-.2.4-.4.6-.1.2-.2.4-.3.7-.1.5-.2 1-.2 1.5s.1 1 .2 1.4c.2.4.4.9.7 1.3z"/></g><path id="パス_1612" class="st15" d="M5.3 64.1c1-.5 1.8-1 2.5-1.5l2.2-1.4c.1-.1.2-.1.3-.2l.2-.1c.2-.1.3-.2.5-.2.4-.2.8-.3 1.2-.4.9-.2 1.8-.4 2.8-.7-.9-.6-1.9-.9-3-1-.5-.1-1.1 0-1.6 0-.3 0-.6.1-.8.2l-.4.1c-.1.1-.2.1-.3.2-1 .4-1.9 1.1-2.5 2-.7.9-1.1 1.9-1.1 3z"/><path id="パス_1613" class="st15" d="M3.8 57.6c1.1-.3 2-.6 2.8-.9l2.5-.9c.1 0 .2-.1.3-.1l.3-.1c.2 0 .4-.1.6-.1.4-.1.9-.1 1.3-.1h2.9c-.7-.7-1.7-1.3-2.7-1.6-.5-.2-1.1-.3-1.6-.3H8.9c-.1 0-.3 0-.4.1-1.1.2-2.1.7-2.9 1.4-.9.6-1.5 1.5-1.8 2.6z"/><g id="グループ_482"><path id="パス_1614" d="M16 57.1h.2c.5-.1.8-.6.7-1.1-.1-.4-1.8-9.8-8.4-9.8-3.3-.1-6.3 1.9-7.3 5-.2.5 0 1 .5 1.2.5.2 1 0 1.2-.5.8-2.4 3.1-4 5.7-3.8 5 0 6.6 8.2 6.6 8.3-.1.4.3.7.8.7z"/><path id="パス_1615" d="M75.5 72.7c2-.2 3.9-.9 5.6-2 2.1-1.3 3.8-3.2 4.8-5.5.2-.5 0-1-.5-1.2-.5-.2-1 0-1.2.5-.9 1.9-2.3 3.5-4.1 4.6-1.4.9-3.1 1.5-4.8 1.7-.5 0-.9.4-.9.9.2.6.6 1 1.1 1z"/><path id="パス_1616" d="M53.1 88.7c1.8 0 3.6-.2 5.4-.5 1.8-.4 3.6-.9 5.4-1.5.5-.2.7-.7.5-1.2-.2-.5-.7-.7-1.2-.5-1.7.6-3.4 1-5.1 1.4-1.7.3-3.4.4-5.1.5-.5 0-.9.4-.9.9.1.5.5.9 1 .9z"/><path id="パス_1617" d="M73.7 8.5c.1 0 .2 0 .3-.1 2.8-1 5.8-1.6 8.8-1.7 2.4-.1 4.8.5 7 1.6.4.3 1 .1 1.3-.3.3-.4.1-1-.3-1.3-2.4-1.3-5.2-2-8-1.9-3.2.1-6.5.7-9.5 1.8-.5.2-.7.7-.5 1.2.2.4.5.7.9.7z"/><path id="パス_1618" d="M99.9 12.8c.3 0 .6-.1.8-.4 1-1.5 2.4-8.6 1.7-11-.1-.5-.4-1-.9-1.2-2.2-1-8.9 3.3-10 4.7-.3.4-.2 1 .2 1.3.4.3 1 .2 1.3-.2 1-1.3 6.4-4.2 7.7-4.2.5 1.4-.6 8.3-1.4 9.6-.3.4-.2 1 .3 1.3 0 .1.1.1.3.1z"/><path id="パス_1619" d="M65.3 12.8c.2 0 .4-.1.5-.2.4-.3.5-.8.3-1.3-.8-1.2-2-8.2-1.4-9.6 1.3 0 6.6 2.8 7.6 4.2.3.4.9.5 1.3.2s.5-.9.2-1.3C72.7 3.4 66-.9 63.8.1c-.5.2-.8.7-.9 1.2-.7 2.4.7 9.5 1.7 11 .1.4.4.5.7.5z"/><path id="パス_1620" d="M12.8 77.5c.3 0 .6-.1.7-.4.3-.4.2-1-.2-1.3-3-2.2-5.7-4.8-8-7.7C3 65.2 1.6 59.4 2.1 55c.1-.5-.3-.9-.8-1-.5-.1-.9.3-1 .8-.5 4.9 1 11.2 3.7 14.5 2.4 3 5.2 5.7 8.3 8 .1.1.3.2.5.2z"/><path id="パス_1621" d="M77.3 90.2c.5 0 .9-.4.9-.9 0 0-.1-4.4.1-9.3 0-1.3.1-2.7.5-3.9.2-.1.4-.3.4-.5.2-.5-.1-1-.6-1.1-.3-.1-.7 0-.9.2-.5.4-1.1 1.3-1.2 5.4-.2 4.9-.1 9.3-.1 9.4 0 .3.4.7.9.7z"/><path id="パス_1622" d="M83.8 95.7c3.4 0 5.4-1.7 5.5-4.5.1-1.1-.3-2.2-1.1-3.1-.6-.6-.8-1.4-.7-2.2v-.8c0-2.3 0-2.4 1.1-5.5.3-.9.7-1.8 1.2-2.9 2.4-5.3 4.3-10.7 5.8-16.3 2.5-9-.3-21-.5-21.5-.1-.5-.6-.8-1.1-.7-.5.1-.8.6-.7 1.1 0 .1 2.9 12.1.5 20.6-1.5 5.5-3.4 10.9-5.7 16.1-.5 1.1-.9 2.1-1.3 3-1.2 3.3-1.2 3.6-1.2 6.1v.9c-.1 1.2.3 2.4 1.2 3.3.5.5.7 1.2.7 1.9 0 2.3-2 2.8-3.7 2.7-1.5.1-2.9-.3-4.2-1.1-.4-.3-.9-.3-1.3.1-.3.4-.3.9.1 1.3 1.5 1.1 3.4 1.6 5.4 1.5z"/><path id="パス_1623" d="M71.7 96.4c.5 0 1 0 1.4-.1 2.1-.3 3.8-1.1 4.5-2.2.4-.6.5-1.3.4-1.9-.1-.5-.6-.8-1.1-.7-.5.1-.8.6-.7 1.1 0 .2 0 .3-.1.5-.3.5-1.4 1.1-3.2 1.4-2.4.3-4.5-.4-5.6-1.8-1-1.3-.6-2.6.1-4.2.1-.2.2-.4.2-.6.7-1.9-.6-10.1-1.3-12.1-.2-.5-.7-.7-1.2-.6-.5.2-.7.7-.6 1.2.8 2.4 1.7 9.8 1.3 10.9-.1.2-.1.3-.2.5-.6 1.5-1.5 3.8.2 6 1.4 1.7 3.6 2.7 5.9 2.6z"/><path id="パス_1624" d="M94.5 37.5c.3 0 .6-.2.8-.4.5-.8 1.1-1.5 1.7-2.2 2.2-2.6 5.2-6.1 5.2-11.4-.1-3.2-.7-6.5-2-9.5-.2-.5-.7-.7-1.2-.5-.5.2-.7.7-.5 1.2 1.1 2.8 1.8 5.7 1.8 8.7 0 4.6-2.7 7.7-4.8 10.2-.7.8-1.3 1.6-1.9 2.5-.3.4-.1 1 .3 1.2.3.2.4.2.6.2z"/><path id="パス_1625" d="M18 66.9c.5 0 .9-.4.9-.9 0-.1.2-8.6 13.1-17.4 4.8-3.2 10.5-4.7 16-6.1 7.1-1.8 13.9-3.6 17.3-9 0 0 0-.1.1-.1.6-1.4.6-3.1-.1-4.5-.9-1.7-1.4-3.6-1.4-5.5.1-3 .7-6 1.8-8.7.2-.5 0-1-.5-1.2-.5-.2-1 0-1.2.5-1.2 3-1.9 6.2-2 9.5 0 2.2.5 4.4 1.6 6.3.4.9.5 1.9.1 2.9-3 4.7-9.4 6.4-16.2 8.1-5.7 1.5-11.5 3-16.6 6.4C17.1 56.6 17 65.7 17 66.1c.1.4.5.8 1 .8z"/><path id="パス_1626" d="M37 96.3h5.5c1.9 0 6.5-.1 8.5-.7 2.4-.8 2.4-2.9 2.4-4.1 0-4.3-11.6-6.2-15.1-6.6-.5-.1-1 .3-1 .8-.1.5.3 1 .8 1 6.6.9 13.6 3 13.6 4.8 0 1.6-.2 2.1-1.2 2.4-1.8.6-6.5.7-7.9.6h-2.9c-1.7 0-3.3.1-6 0-4-.1-12.2-4.9-15.5-9.7-3.2-4.7-.3-13.1-.3-13.2.2-.5-.1-1-.6-1.2-.5-.2-1 .1-1.2.5-.1.4-3.3 9.3.5 14.8 3.7 5.4 12.5 10.4 16.9 10.5 1.4.1 2.5.1 3.5.1z"/></g></g><g id="グループ_457" transform="translate(100.503 331.746)"><path id="パス_1444" class="st16" d="M14.1 82.8s-6.8-3.7-10-8.6c-4.5-6.7-6.8-16.6 2.5-21.1 6.2-3 11.4 11.4 11.4 11.4s2.1 16.9-3.9 18.3z"/><path id="パス_1445" d="M15.9 62.8h.1c.4-.1.7-.5.7-.9-.1-.4-1.8-9.7-8.3-9.7C5.2 52 2.3 54 1.2 57c-.2.4 0 .9.4 1.1.4.2.9 0 1.1-.4.8-2.4 3.2-4 5.7-3.9 5.1 0 6.7 8.3 6.7 8.4.1.3.4.6.8.6z"/><path id="パス_1446" d="M12.8 83.2c.3 0 .5-.1.7-.3.3-.4.2-.9-.2-1.1-3-2.2-5.7-4.8-8-7.7-2.4-3-3.8-8.7-3.3-13.3.1-.4-.3-.8-.7-.9-.4 0-.8.3-.9.7-.6 4.8 1 11.1 3.6 14.4 2.4 3 5.2 5.7 8.3 8 .2.1.3.2.5.2z"/><path id="パス_1447" class="st8" d="M81.8 3.9c5.9 0 8.7 1 14.1 5.3 6.1 4.7 6.8 8.7 6.7 12.9s-.4 8.7-3.1 12.6c-1.8 2.6-5 6.5-5 6.5s.8 1.4-12 1.4c-10 0-23.4-7.3-23.4-18.2 0-7.4.2-10.6 6.2-15.3C70.7 4.9 76 3.9 81.8 3.9z"/><path id="パス_1448" class="st8" d="M17 46c6.8-11.2 20.6-15.5 30.1-16.3 11.5-1 12-6.2 12-6.2s4 12.4 12.9 13.9c7.2 1.1 19.1 1 24.4 0 0 0-3.2 1-1.4 11 1.2 6.5-.3 15.8-4.3 25.4-1.8 4.5-2.4 9.3-1.9 14.1 0 0 1.9 2.2 1 4.6s-4.4 2.8-7.2 2.4c-2.5-.4-1.4-1-4.3-1-2 0-4 3.1-9.1 2.4-3.6-.5-5.2-1.3-5.3-3.8 0-.4.9-3.4 1-5.3.1-1.5-.1-2.9-.5-4.3-.9 1.5-2.2 2.6-3.8 3.3-2.9 1.4-9.5 1.4-6.2 2.9 1.1.5.5 2.8-.5 4.3-1.3 1.9-9.3 1.9-12.3 1.9-5.8 0-15-2.2-17.9-3.8s-8.8-3-10.5-12.5c-2-11-5.1-18.4 3.8-33z"/><path id="パス_1449" class="st16" d="M71.1 6.7s-8-6.5-10-5.4 0 13.5 0 13.5 3.7-2.7 5.7-4.6c1.3-1.2 2.7-2.4 4.3-3.5z"/><path id="パス_1450" class="st17" d="M91.2 6.7s7.9-6.5 9.9-5.4-1.3 13.5-1.3 13.5-2.4-2.7-4.4-4.6c-1.8-1.6-4.2-3.5-4.2-3.5z"/><g transform="translate(10.832 23.423)" id="グループ_449"><defs><path id="SVGID_00000109003286350582199690000008831040999938489475_" d="M6.2 22.5C13 11.4 26.8 7.1 36.3 6.3c11.5-1 12-6.2 12-6.2s4 12.4 12.9 13.9c7.2 1.1 19.1 1 24.4 0 0 0-3.2 1-1.4 11 1.2 6.5-.3 15.8-4.3 25.4-1.8 4.5-2.4 9.3-1.9 14.1 0 0 1.9 2.2 1 4.6s-4.4 2.8-7.2 2.4c-2.5-.4-1.4-1-4.3-1-2 0-4 3.1-9.1 2.4-3.6-.5-5.2-1.3-5.3-3.8 0-.4.9-3.4 1-5.3.1-1.5-.1-2.9-.5-4.3-.9 1.5-2.2 2.6-3.8 3.3-2.9 1.4-9.5 1.4-6.2 2.9 1.1.5.5 2.8-.5 4.3-1.3 1.9-9.3 1.9-12.3 1.9-5.8 0-15-2.2-17.9-3.8s-8.8-3-10.6-12.5c-1.9-11-5.1-18.5 3.9-33.1z"/></defs><clipPath id="SVGID_00000036224270047389417740000005228778846109832875_"><use xlink:href="#SVGID_00000109003286350582199690000008831040999938489475_" style="overflow:visible"/></clipPath><g id="グループ_448" style="clip-path:url(#SVGID_00000036224270047389417740000005228778846109832875_)"><g id="グループ_447" transform="translate(-2.333 -7.329)"><path id="パス_1451" class="st17" d="M46.5 3.7c3.3 5.7 1 16.2 1.9 19.3s2.5 6.1-.9 8.9-11.7-4.7-16.3-10.5c-5.3-6.7-6.2-13.9-1-17.7s12.9-5.8 16.3 0z"/><path id="パス_1452" d="M28.3 33.6c3.4-.7 6.9-4 3.5-8.8s-2.7-8.1-6.7-7.7-7.4 6.8-6.1 11.6 4.3 6 9.3 4.9z" style="fill:none"/><path id="パス_1453" class="st16" d="M18.4 45.3c6.2 1 14.4 4.9 10.7 11.3s-9.9 10.9-18.5 10.1S-.1 55.8.2 51s8.8-7.2 18.2-5.7z"/><path id="パス_1454" class="st17" d="M22.5 52.6c-8.3.8-16.2.7-19.1-4.9-1.9-3.7-.6-9.8.5-13.4.4-1.2 2.6-1.6 3.8-.7 3 2.3 7.7 5.5 10.4 5.3 4.1-.3 10.5-1.2 13.2 2.3s-.4 10.6-8.8 11.4z"/></g></g></g><g transform="translate(58.945 3.808)" id="グループ_452"><defs><path id="SVGID_00000010995201500360432600000002409235783481317306_" d="M22.9.1c5.9 0 8.7 1 14.1 5.3 6.1 4.7 6.8 8.7 6.7 12.9s-.4 8.7-3.1 12.6c-1.8 2.6-5 6.5-5 6.5s.8 1.4-12 1.4C13.6 38.8.2 31.5.2 20.6.2 13.2.4 10 6.4 5.3 11.8 1.1 17 .1 22.9.1z"/></defs><clipPath id="SVGID_00000078761323939232065600000014071354346059410366_"><use xlink:href="#SVGID_00000010995201500360432600000002409235783481317306_" style="overflow:visible"/></clipPath><g id="グループ_451" style="clip-path:url(#SVGID_00000078761323939232065600000014071354346059410366_)"><g id="グループ_450" transform="translate(-1.914 -2.369)"><path id="パス_1456" class="st16" d="M45.8 25c-2.9 1.7-10 2.7-13.6-2.5-1.9-2.9-5-14-7.5-14-2.2 0-6.6 11.6-7.8 13.6-3.5 6.2-11.5 5.5-14.4 3.4s-3.6-9.8 0-15.2C6.6 4.3 13.4.1 25.1.1c9.3 0 17.1 5.7 19.5 10.2 3.3 6.2 4.1 13.1 1.2 14.7z"/><path id="パス_1457" class="st17" d="M30.6 1.4c-1.6-.4-3.2.5-3.7 2-.9 3.1 2.5 5.7 8.8 10.4 5 3.7 9.2 6.2 11.5 4.1.7-.7.7-7.4-6.9-12.9-4.3-3.1-7.5-3.2-9.7-3.6z"/></g></g></g><g id="グループ_455" transform="translate(69.949 18.4)"><path id="パス_1459" d="M8.5 3.6c.2 0 .3-.1.4-.2.6-.8 1.5-1.2 2.5-1.2.9 0 1.7.5 2.3 1.2.2.2.5.3.7.1.2-.2.3-.5.1-.7-.7-1-1.9-1.6-3.1-1.6-1.3 0-2.6.6-3.3 1.6-.2.3-.1.6.1.7.1.1.2.1.3.1z"/><path id="パス_1460" d="M9.5 4.2c.2-.2.6-.6 1.9-.6h.1c1.2 0 1.7.4 1.9.6.1.1.1.2 0 .3-.4.4-1 .8-1.6 1-.3.1-.5.1-.8 0-.6-.2-1.1-.6-1.6-1 0-.1 0-.2.1-.3z" style="fill:#f39489"/><path id="パス_1461" d="M16.2 12.7c.2 0 .5 0 .7-.1.3-.1.4-.5.3-.8-.1-.3-.5-.4-.8-.3 0 0-.5.2-1.2-.4-.9-.7-1.6-1.5-2.1-2.5l-.7-1.3s0-.1-.1-.1c-.5-.5-1.3-.6-1.8-.1l-.1.1s0 .1-.1.1l-.6 1.2c-.5 1-1.3 1.9-2.1 2.6-.4.2-.9.4-1.4.4-.3 0-.6.3-.6.6s.3.6.6.6c.7 0 1.4-.2 2-.6 1-.8 1.9-1.8 2.5-3l.7-1.1.7 1.2c.6 1.1 1.4 2 2.4 2.8.4.4 1.1.7 1.7.7z"/><g id="グループ_453" transform="translate(17.941)"><circle id="楕円形_33" cx="2.3" cy="2.2" r="2.2"/></g><g id="グループ_454" transform="translate(0 .239)"><circle id="楕円形_34" cx="2.3" cy="2.2" r="2.2"/></g></g><g id="グループ_456" transform="translate(10.703)"><path id="パス_1464" d="M64.8 72.2c2-.2 3.9-.9 5.6-2 2.1-1.3 3.8-3.2 4.8-5.5.2-.5 0-1-.5-1.2-.5-.2-1 0-1.2.5-.9 1.9-2.3 3.5-4.1 4.6-1.4.9-3.1 1.5-4.8 1.7-.5 0-.9.4-.9.9.2.6.6 1 1.1 1z"/><path id="パス_1465" d="M67.2 89.8h.2c.4-.1.7-.6.6-1-.4-2.1-.6-4.3-.4-6.5 0-2 .3-4 .9-5.9.2-.4 0-.9-.4-1.1-.4-.2-.9 0-1.1.4-.7 2.1-1 4.3-1 6.5-.2 2.3 0 4.7.5 6.9 0 .5.3.7.7.7z"/><path id="パス_1466" d="M50.4 11.2c.4 0 .8-.4.8-.8-.1-.7-.2-1.4-.4-2.1-.4-1.6-1.3-6-.4-6.6.9-.3 5.5 2 6.5 3.3.3.4.8.4 1.1.1.4-.3.4-.8.1-1.1-1-1.3-6.8-5-8.7-3.7-1.7 1.1-1.1 4.6-.3 8.3.1.6.3 1.2.3 1.8.1.5.5.8 1 .8-.1 0 0 0 0 0z"/><path id="パス_1467" d="M90.3 11.2c.4 0 .8-.4.8-.8l.3-1.8c.8-3.7 1.4-7.2-.3-8.3C89.2-1 83.4 2.7 82.4 4c-.3.4-.2.9.1 1.1.4.3.9.2 1.1-.1 1-1.3 5.7-3.7 6.5-3.3.9.6 0 5-.4 6.6-.2.7-.3 1.4-.4 2.1.2.5.6.8 1 .8z"/><path id="パス_1468" d="M73.1 95.7c3.2 0 6.9-1.1 6.9-4.3.1-1.1-.1-2.2-.6-3.1-.4-.7-.6-1.3-.9-2.1-.8-2.4-.4-5.7 1.2-9.9.2-.6.4-1.1.6-1.6 1.9-4.9 3.4-9.8 4.7-14.9 2.4-9-.7-19-.8-19.4-.1-.4-.6-.7-1-.5-.4.1-.7.6-.5 1 0 .1 3.1 10 .8 18.5-1.2 5-2.8 9.9-4.6 14.7-.2.5-.4 1.1-.6 1.6-1.7 4.5-2.1 8.2-1.2 10.9.2.8.6 1.6 1 2.3.4.7.6 1.5.4 2.3 0 2.7-5.1 2.7-5.3 2.7-1.5.1-3-.3-4.2-1.1-.3-.3-.8-.3-1.1.1-.3.3-.3.8.1 1.1 1.2 1.2 3.1 1.8 5.1 1.7z"/><path id="パス_1469" d="M60 96.5c2.9 0 7.9-.5 8.5-4 .1-.4-.2-.9-.7-.9-.4-.1-.9.2-.9.7-.4 2.5-5.3 2.7-6.9 2.7-3.3 0-4.4-.1-5.6-1.6-1.1-1.5-.2-4 .4-5.5.1-.2.1-.3.2-.5.7-1.9-2.4-13.8-2.9-15.3-.1-.4-.6-.7-1-.5-.4.1-.7.6-.5 1 .9 2.5 3.3 13 2.9 14.3 0 .1-.1.3-.2.4-.7 1.7-1.9 4.8-.2 7s3.7 2.2 6.9 2.2z"/><path id="パス_1470" d="M1 62.6c.5 0 .8-.4.8-.9 0-2.5.4-5 1.3-7.4 1.4-4 4.5-9.9 11.4-15.4 8.2-6.4 20.4-8 27-8.8 4.2-.7 7.2-4.2 7.3-8.4-.1-2.9 1.3-7.5 1.7-8.9.1-.4-.1-.9-.5-1-.4-.1-.9.1-1 .5-.6 1.8-1.9 6.3-1.8 9.4-.1 3.4-2.6 6.2-5.9 6.8-6.7.9-19.3 2.5-27.8 9.2C-.5 48.7.2 61.3.2 61.8c.1.4.4.8.8.8z"/><path id="パス_1471" d="M36.1 96.1c1.9.1 3.8-.1 5.6-.6 2.1-.9 3.3-4 2.9-6.2-.7-3.4-7.8-6.1-8.7-6.3-.4-.2-.9.1-1 .5-.2.4.1.9.5 1 2.7 1 7.2 3.3 7.6 5.1.3 1.6-.7 3.8-1.9 4.4-1.4.6-5.4.5-7.5.4h-1.3c-1.5 0-2.9-.1-4.4-.3-1.2-.1-2.6-.2-4.5-.3-4.2-.2-15.8-3.6-19.1-9.5C.9 78.2 2 65.3 2 65.1c0-.4-.3-.8-.7-.9-.4 0-.8.3-.9.7 0 .6-1.1 13.5 2.5 20.1 2 3.7 6.6 6.2 10.1 7.7 3.3 1.4 6.8 2.3 10.4 2.7 1.9.1 3.2.2 4.4.3 1.5.2 3 .3 4.5.3h1.3c.8.1 1.6.1 2.5.1z"/><path id="パス_1472" d="M59.4 7.2c.1 0 .3 0 .4-.1 3.5-1.8 7.4-2.6 11.4-2.6C78 4.5 81.5 7 81.5 7c.4.3.9.2 1.1-.2.3-.4.2-.9-.2-1.1-.2-.1-4-2.9-11.3-2.9-4.2 0-8.4.9-12.1 2.9-.4.2-.5.7-.3 1.1.1.2.4.4.7.4z"/><path id="パス_1473" d="M84.7 39.7c.2 0 .5-.1.6-.3 1.4-1.6 2.6-3.3 3.7-5.1l.2-.4c1.5-2.5 3.1-5.1 3.1-11.4-.2-3.5-.9-7.1-2.1-10.4-.2-.4-.6-.6-1-.5-.4.2-.6.6-.5 1 0 .1 2 5.5 2 9.8 0 5.8-1.4 8.2-2.8 10.5l-.2.4c-1.1 1.7-2.2 3.3-3.5 4.9-.3.3-.3.9.1 1.1 0 .4.2.4.4.4z"/><path id="パス_1474" d="M43.3 88.8c1.2 0 2.4-.1 3.5-.4 1.3-.4 2.5-.9 3.6-1.7.4-.3.5-.8.2-1.1-.3-.4-.8-.5-1.1-.2-.9.6-2 1.1-3.1 1.4-1 .2-2.1.3-3.2.4-.4 0-.8.4-.8.8 0 .5.4.8.9.8z"/></g></g><g id="グループ_494" transform="translate(267.305 306.255)"><path id="パス_1627" class="st8" d="M49.8 35.2c-.9.8 2.8-1.5 4.7-1.4h2c3.9.9 7.4 2.9 10.2 5.7 1.8 2.1 3.4 4.4 4.6 6.9l.9 2.2s1.5 5.5 3.4 6.3c1.4.6 3.1 2.1 4.9 6.7 1.1 2.7 1.2 8.9 1.2 8.9s1.5-.4 2 2.1c0 0 2.4 7.7 1.7 14s-5.6 10.8-8.3 11c-1.3.1-2.7.3-4 .6l-2.1.6c-1.8.8-3.6 1.5-5.5 2.1-1.5.4-2.1 2.1-5.5 1.7-1.2-.4-2.4-.7-3.7-.7-1.5-.2-3 .1-4.4.7-2 1-4.8-.7-5.1-1.3-.6-1.4-.8-2.9-.6-4.4l-1 2.6c-1.2-.1-2.4-.1-3.6 0-1.3.2-2.6-.3-3.4-1.3l-1.8-.1"/><path id="パス_1628" class="st8" d="M84.8 89.9c0-1.5 3.1-3.4 5.2-5.5s2.4-3.6 2.4-3.6c.1-1.4 0-2.9-.5-4.3 0 0 1.2-3.2 1.8-5.1.4-1 .4-2 0-3-.4-1.9-1-3.7-1.8-5.4.4-1.3.7-2.6.9-3.9.2-1.2.2-2.4 0-3.6l-.9-2.1s1.8-3.2 1.8-5c0-3.2-.4-6.4-.9-9.5-.6-2.8.9-3.6.9-6.1v-3.4c-.6-1-.9-2.2-.9-3.4 0-1.8 3.7-4.9 5.2-8.6 1-2.4.3-5.8 0-7.6l-1.5-4.3c-.6-2.7-2.8-3.7-2.8-1.5s-3.1.3-6 2c-2 1.3-3.6 3.2-4.5 5.4-.2.4-.5.9-.9 1.2-1.1 1.1-3.2 2-4.2 5.1-1.1 3.3-.8 4.3-.5 5.5.2.9-.1 1.8-.8 2.4-.5.5-.9 1-1.3 1.6-.7 1.6-1.2 3.3-1.3 5-.1.6-.3 1.1-.6 1.6-1 1.6-1.6 3.3-1.8 5.1-.1 1.4-.4 2.9-.7 4.3 0 0-2.1 18.5-2.1 21.5s15.8 25.2 15.8 25.2z"/><path id="パス_1629" class="st8" d="M85 89.9c0-1.5 3.1-3.4 5.2-5.5s2.4-3.6 2.4-3.6c.1-1.4 0-2.9-.5-4.3 0 0 1.2-3.2 1.8-5.1.4-1 .4-2 0-3-.4-1.9-1-3.7-1.8-5.4.4-1.3.7-2.6.9-3.9.2-1.2.2-2.4 0-3.6l-.9-2.1s1.8-3.2 1.8-5c0-3.2-.4-6.4-.9-9.5-.6-2.8.9-3.6.9-6.1v-3.4c-.6-1-.9-2.2-.9-3.4 0-1.8 3.7-4.9 5.2-8.6 1-2.4.3-5.8 0-7.6l-1.5-4.3c-.6-2.7-2.8-3.7-2.8-1.5s-3.1.3-6 2c-2 1.3-3.6 3.2-4.5 5.4-.2.4-.5.9-.9 1.2-1.1 1.1-3.2 2-4.2 5.1-1.1 3.2-.8 4.2-.5 5.4.2.9-.1 1.8-.8 2.4-.5.5-.9 1-1.3 1.6-.7 1.6-1.2 3.3-1.3 5-.1.6-.3 1.1-.6 1.6-1 1.6-1.6 3.3-1.8 5.1-.1 1.4-.4 2.9-.7 4.3 0 0-2.1 18.5-2.1 21.5S85 89.9 85 89.9z"/><path id="パス_1630" class="st8" d="M48 63.2c-.2 4.4-1.4 8.7-3.6 12.5-2.7 4.8-7.4 13-7.6 15.8s.5 7.3-.9 8.7c-1.4 1.4-4.4 1.7-6.3 1.4s-2.8-1.5-2.4-3.1c.3-1.1.3-2.3 0-3.4 0 0-.3-.2-.3 0-.3 1.1-.3 2.3 0 3.4.3 1.5-.6 2.8-2.4 3.1s-4.9 0-6.3-1.4c-1.4-1.4-.8-5.9-.9-8.7s-4.9-11-7.6-15.8c-2.2-3.8-3.4-8.1-3.6-12.5l-.3-2.4-.4-1.6S3.6 52.7 4 48.1s1.3-6 1.3-6l.9-1.1c.3-.6.7-1.1 1.2-1.5v-.6c6.2 1.9 12.7 2.7 19.2 2.5 7.2-.3 23-6 23-6"/><path id="パス_1631" class="st22" d="M70.8 43.7s.9-1.1 1.4-4.8c.2-1.8.9-3.6 1.8-5.1.3-.5.5-1 .6-1.6.2-1.7.6-3.4 1.3-5 .4-.6.8-1.1 1.3-1.6.6-.6.9-1.5.8-2.4-.2-1.2-.5-2.2.5-5.4 1-3.1 3.2-4 4.2-5.1l.9-1.2c.9-2.2 2.5-4.1 4.5-5.4 2.9-1.7 6 .2 6-2s2.1-1.2 2.8 1.5l1.5 4.3c.3 1.8 1 5.2 0 7.6-1.5 3.7-5.2 6.8-5.2 8.6 0 .3 0 .6.1 1 .3 1.6 0 3.2-.8 4.6-.6 1.1-1.1 2.2-1.6 3.4-1.9 4.6.2 11.2-1.9 15.8-2 4-4.3 7.9-6.8 11.7 0 0-5.8-9.9-7-11.5s-4.4-7.4-4.4-7.4z"/><path id="パス_1632" class="st22" d="M56.9 33.8c3.9.9 7.4 2.9 10.2 5.7 2.3 2.3 6.2 8.6 6.2 8.6s5.1 5.8 4.7 9.9c-.9 10.4-10.1 14.9-15.4 18.6s-14.1 1.5-17.8 6.7-7.4 5.1-7.4 5.1 9.7-16.2 9.9-20 .8-9.9.8-9.9 3.7-1.8 4.9-7.6c2.1-9.9-1-13.4-1.9-14.5s.2-2.8.2-2.8c1.9-.4 3.8-.3 5.6.2z"/><path id="パス_1633" d="M5.3 61c-.4 0-.8-.3-.9-.7 0-.3-1.7-6.7-1.4-11.4.1-2.7.9-5.4 2.3-7.8.3-.4.9-.5 1.3-.3.4.3.5.8.3 1.3-1.2 2.1-1.9 4.5-2 6.9-.3 4.4 1.4 10.7 1.4 10.8.1.5-.2 1-.6 1.1-.2.1-.3.1-.4.1z"/><g id="グループ_484" transform="translate(4.949 63.099)"><path id="パス_1634" d="M18 40.4c-1.8 0-4.2-.4-5.5-1.8-1.3-1.3-1.2-4.1-1.2-6.8v-2.5c-.1-2.6-5.3-11.5-7.5-15.4C1.6 10 .3 5.5.2 1c0-.5.4-.9.9-.9s.9.4.9.9c.2 4.2 1.4 8.4 3.4 12 3.9 6.8 7.6 13.5 7.7 16.2v2.7c0 2-.1 4.7.6 5.4 1 1.1 3.7 1.4 5.5 1.1.6-.1 1.1-.3 1.5-.8.2-.3.3-.8.2-1.2-.3-1.3-.3-2.6 0-3.9.2-.5.7-.7 1.2-.5.5.2.7.7.5 1.2-.2.9-.2 1.9 0 2.9.2.9 0 1.8-.5 2.6-.7.9-1.6 1.4-2.7 1.6-.4 0-.9.1-1.4.1z"/><path id="パス_1635" d="M21.9 30.5c-.5 0-.9-.4-.9-.9V22c0-2-.3-3.9-.9-5.8-.1-.5.1-1 .6-1.1.5-.1 1 .1 1.1.6.6 2.1.9 4.2 1 6.4v7.6c0 .4-.4.8-.9.8z"/></g><g id="グループ_485" transform="translate(25.978 63.099)"><path id="パス_1636" d="M5 40.4c-.5 0-1.1 0-1.6-.1-1.1-.1-2.1-.7-2.7-1.6-.5-.8-.7-1.7-.5-2.6.2-.9.3-1.9 0-2.9-.2-.5.1-1 .6-1.2.5-.2 1 .1 1.2.5.3 1.3.4 2.6 0 3.9-.1.4 0 .8.2 1.2.4.5.9.7 1.5.8 1.8.3 4.4-.1 5.5-1.1.7-.8.7-3.5.6-5.4v-2.7c.1-2.7 3.8-9.4 7.7-16.2 2.1-3.7 3.2-7.8 3.4-12 0-.5.4-.9.9-.9s.9.4.9.9c-.2 4.6-1.4 9-3.7 13-2.2 3.8-7.3 12.8-7.5 15.4v2.5c.1 2.7.1 5.5-1.2 6.8C9.2 40 6.8 40.4 5 40.4z"/><path id="パス_1637" d="M1.1 30.5c-.5 0-.9-.4-.9-.9V22c0-2.2.4-4.3 1-6.4.1-.5.7-.8 1.1-.6.5.1.8.7.6 1.1-.5 1.9-.8 3.9-.8 5.8v7.6c0 .6-.5 1-1 1z"/></g><g id="グループ_486" transform="translate(6.173 58.174)"><path id="パス_1638" d="M3.4 9c-.3 0-.5-.2-.7-.4-.6-.8-1.1-1.5-1.5-2.4C.1 4.6-.1 2.5.5.6c.2-.5.7-.7 1.2-.5.5.2.7.7.5 1.2-.4 1.4-.2 2.8.6 4 .4.7.8 1.5 1.3 2.1.3.4.2 1-.2 1.3-.1.2-.3.3-.5.3z"/><path id="パス_1639" d="M10.1 14.2c-.2 0-.5-.1-.7-.3 0 0-.5-.5-2.5-2.2-2.5-2.2-1.8-5.8-1.8-6 .1-.5.6-.8 1.1-.7.5.1.8.6.7 1.1 0 0-.5 2.8 1.2 4.2 2.1 1.8 2.6 2.3 2.7 2.4.4.4.3.9 0 1.3-.2.1-.5.2-.7.2z"/><path id="パス_1640" d="M17.8 19.3c-.1 0-.3 0-.4-.1-.3-.2-3.4-1.7-4.3-3.9-.6-1.4-.8-3-.6-4.5.1-.5.6-.8 1.1-.7.5.1.8.6.7 1.1-.2 1.1 0 2.3.5 3.4.6 1.4 2.7 2.6 3.4 3 .5.2.6.8.4 1.2-.1.3-.4.5-.8.5z"/></g><g id="グループ_487" transform="translate(29.44 57.722)"><path id="パス_1641" d="M16.2 9.2c-.2 0-.4-.1-.6-.2-.4-.3-.5-.9-.1-1.3.5-.7 1-1.4 1.4-2.2.8-1.2 1-2.7.7-4.1-.2-.5 0-1 .5-1.2.5-.2 1 0 1.2.5.6 1.9.3 4-.8 5.8-.5.9-1 1.7-1.6 2.4-.1.2-.4.3-.7.3z"/><path id="パス_1642" d="M9.2 14.6c-.3 0-.5-.1-.7-.3-.4-.4-.4-1 0-1.3.1-.1.6-.6 2.8-2.4 1.8-1.5 1.3-4.3 1.3-4.3-.1-.5.2-1 .7-1.1.5-.1 1 .2 1.1.7 0 .2.8 3.9-1.9 6.1-2.1 1.8-2.6 2.3-2.7 2.3-.1.2-.3.3-.6.3z"/><path id="パス_1643" d="M1.1 19.8c-.4 0-.7-.2-.9-.5-.2-.5 0-1 .4-1.3.8-.4 3-1.7 3.6-3.1.5-1.1.7-2.3.5-3.4-.1-.5.2-1 .7-1.1.5-.1 1 .2 1.1.7.3 1.6.1 3.2-.6 4.6-1 2.3-4.2 3.8-4.5 4 0 .1-.1.1-.3.1z"/></g><path id="パス_1644" d="M72.7 49c-.3 0-.7-.2-.8-.5 0-.1-3.1-6.1-5.3-8.3-2.7-2.6-6.1-4.5-9.8-5.4-.5-.1-.8-.6-.7-1.1.1-.5.6-.8 1.1-.7 4 .9 7.8 3 10.7 5.9 2.4 2.4 5.5 8.5 5.7 8.8.2.5.1 1-.4 1.2-.3 0-.4.1-.5.1z"/><path id="パス_1645" d="M51.5 57.8c-.3 0-.5-.1-.7-.3-.3-.4-.3-1 .1-1.3.6-.6 1-1.4 1.2-2.3.1-1.3.1-2.6 0-3.9-.1-.5.3-1 .8-1 .5-.1 1 .3 1 .8.1 1.4.1 2.9 0 4.3-.2 1.3-.8 2.5-1.8 3.4-.1.2-.3.3-.6.3z"/><path id="パス_1646" d="M71.4 44.1c-.1 0-.2 0-.3-.1-.5-.2-.7-.7-.5-1.2.3-1.4.5-2.7.7-4.1.3-1.9.9-3.8 2-5.5.2-.4.4-.8.5-1.2.2-1.9.6-3.7 1.4-5.4.4-.6.9-1.2 1.4-1.8.4-.4.6-.9.5-1.5v-.2c-.2-1.2-.5-2.4.6-5.7.6-1.9 1.9-3.5 3.5-4.6.3-.2.6-.5.9-.8.3-.3.6-.7.8-1 .1-.1.1-.2.2-.4 1-2.2 2.6-4.1 4.6-5.4 1.3-.7 2.8-1 4.3-1 .4 0 .8 0 1.2-.1V4c0-1.4.8-2 1.5-2.1 1.3-.1 2.6 1.3 3.1 3.4.1.5-.2 1-.7 1.1-.5.1-1-.2-1.1-.7-.1-.7-.4-1.3-.9-1.9v.1c0 2-1.8 2.1-3 2.1-1.2-.1-2.3.2-3.4.7-1.7 1.1-3.1 2.7-3.9 4.6-.1.2-.2.3-.2.5-.3.5-.6 1-1 1.4-.4.4-.7.7-1.1 1-1.3.9-2.4 2.2-2.9 3.8-.9 2.8-.8 3.7-.5 4.8v.2c.2 1.2-.2 2.4-1 3.2-.4.4-.8.9-1.1 1.4-.7 1.5-1.1 3.1-1.2 4.7-.1.7-.3 1.4-.7 2-.9 1.4-1.5 3.1-1.7 4.7-.1 1.5-.4 3-.8 4.5-.4.4-.8.6-1.2.6z"/><path id="パス_1647" d="M94 30.3c-.3 0-.6-.2-.8-.4-.7-1.2-1-2.5-1-3.8 0-1.2 1-2.6 2.3-4.2 1.2-1.4 2.2-3 3-4.7.8-2 .3-4.9 0-6.7l-.1-.5c-.1-.5.3-1 .8-1.1.5-.1 1 .3 1.1.8l.1.4c.3 1.9.9 5.2-.1 7.7-.9 1.8-1.9 3.6-3.2 5.1-1.1 1.3-2.1 2.5-2.1 3.2 0 1 .3 2 .8 2.9.3.4.1 1-.3 1.3H94z"/><path id="パス_1648" d="M92.2 54.3c-.2 0-.3 0-.5-.1-.4-.3-.6-.8-.3-1.3.5-.8 1.7-3.3 1.7-4.5 0-3.1-.3-6.2-.9-9.3-.3-1.3-.2-2.8.4-4 .3-.7.5-1.5.5-2.3 0-.5.4-.9.9-.9s.9.4.9.9c0 1-.2 2-.6 2.9-.4.9-.6 2-.3 3 .6 3.2.9 6.5.9 9.7 0 2-1.8 5.1-2 5.4-.1.3-.4.5-.7.5z"/><path id="パス_1649" d="M92.2 64h-.3c-.5-.2-.7-.7-.6-1.2.4-1.2.7-2.5.9-3.7.2-1.1.2-2.2 0-3.3-.1-.5.2-1 .7-1.1.5-.1 1 .2 1.1.7.2 1.3.2 2.6 0 3.9-.2 1.4-.5 2.7-1 4 0 .4-.4.6-.8.7z"/><path id="パス_1650" d="M92.2 77.5c-.1 0-.2 0-.3-.1-.5-.2-.7-.7-.5-1.2 0 0 1.2-3.1 1.8-5.1.3-.7.3-1.5.1-2.3-.3-.4-.1-1 .3-1.2.4-.3 1-.1 1.3.3.5 1.2.6 2.5.1 3.7-.6 2-1.8 5-1.9 5.2-.2.5-.5.7-.9.7z"/><path id="パス_1651" d="M85.2 90.8c-.5 0-.9-.4-.9-.9 0-1.5 1.5-2.7 3.3-4.2.7-.6 1.5-1.3 2.2-1.9 1-.8 1.7-1.9 2.1-3.1.1-.5.6-.8 1.1-.7.5.1.8.5.8 1 0 .2-.3 1.8-2.6 4.1-.7.7-1.5 1.4-2.3 2-1.1.9-2.6 2.2-2.6 2.8-.2.5-.6.9-1.1.9z"/><path id="パス_1652" d="M82.1 71.3c-.5 0-.9-.4-.9-.9 0-.1-.2-6.1-1.2-8.5-.8-2.1-2-3.9-3.7-5.4-.4-.3-.8-.7-1.1-1.1-.3-.4-.2-1 .2-1.3.4-.3 1-.2 1.3.2.3.3.5.6.8.9 1.9 1.6 3.3 3.7 4.2 6.1 1.1 2.8 1.3 8.9 1.3 9.2.1.4-.3.8-.9.8z"/><path id="パス_1653" d="M73.6 99.1c-.4 0-.8-.3-.9-.7-.1-.5.2-1 .7-1.1 1.4-.3 2.7-.5 4.1-.6 2.2-.2 6.8-4.3 7.4-10.2.7-6.1-1.6-13.6-1.6-13.7-.1-.5.1-1 .6-1.1.5-.2 1 .1 1.1.6.1.3 2.4 8 1.7 14.4-.7 6.7-6 11.5-9.1 11.8-1.3.1-2.6.3-3.8.6h-.2z"/><path id="パス_1654" d="M61.4 103.5c-.4 0-.7 0-1.1-.1-.5-.1-.9-.5-.8-1 .1-.5.5-.9 1-.8 1.2.2 2.5-.1 3.5-.9.5-.4 1-.7 1.6-.8 1.4-.4 5.3-2 5.4-2 .5-.2 1 0 1.2.5.2.5 0 1-.5 1.2-1.8.8-3.7 1.5-5.6 2.1-.4.1-.7.3-1 .6-1.1.8-2.4 1.3-3.7 1.2z"/><path id="パス_1655" d="M50.9 103.8c-1.7 0-3.3-.8-4.5-2-.7-1.5-1-3.3-.7-4.9.1-.6.9-2.9 7.1-4.5.5-.1 1 .2 1.1.7.1.5-.2 1-.7 1.1-2.6.7-5.7 2-5.8 2.9-.2 1.3 0 2.6.5 3.7.4.4 2.5 1.6 3.9.9 1.5-.7 3.3-1 5-.8.5.1.9.5.8 1-.1.5-.5.9-1 .8-1.3-.1-2.7.1-3.9.6-.5.4-1.1.5-1.8.5zm-2.8-2.9z"/><path id="パス_1656" d="M45.7 100.4h-.1c-1.1-.1-2.3-.1-3.4 0-1.6.2-3.2-.5-4.2-1.8-.3-.4-.2-1 .3-1.3.4-.3 1-.2 1.3.3.7.7 1.6 1.1 2.6.9 1.2-.1 2.5-.1 3.7 0 .5.1.9.5.8 1-.2.6-.6.9-1 .9z"/><path id="パス_1657" class="st8" d="M26.3 41.7c10.4 0 23.3-6.8 23.8-7.1"/><path id="パス_1658" class="st8" d="M51.3 34c-1 1.5-.9.5-1.2.6-.5.2-13.4 7.1-23.8 7.1-7-.1-13.9-1.1-20.7-2.8-.3-.7-.6-1.5-.7-2.3v-.7s-.5-.3-2.1 0-2.3-1.9-2-2.2 4.6-5.2 4.6-5.2-1.5-1.2-.3-2.1c.8-.7 1.4-1.7 1.6-2.8 0 0-2.2-.6-2.5-1.5s1.5-1.2 3.1-3.1 2-2.4 2-2.4l.9-3.1S8.8 11.6 9.7 7c.8-4.2 1.2-5.7 2.4-6s4.9 3.7 5.5 4.6l1.8 2.8s2-.4 4.3-.6c.8-.1 1.6-.1 2.4 0h.9c1.6 0 3.3.2 4.9.6l1.8-2.8c.6-.9 4.3-4.9 5.5-4.6s1.6 1.8 2.4 6c.9 4.7 0 6.8 0 6.8l1 2.9s.4.5 1.9 2.3 3.4 2.1 3.1 3.1-2.5 1.5-2.5 1.5c.2 1.1.8 2 1.6 2.8 1.2.9-.3 2.1-.3 2.1s2.5 3 2.8 3.3c0 0 2.4 1.8 2.1 2.2z"/><g id="グループ_488" transform="translate(.612 .614)"><path id="パス_1661" class="st22" d="M21.5 7s2.4-.2 4.9-.2c1.6 0 3.3.2 4.9.6l1.8-2.8c.6-.9 4.3-4.9 5.5-4.6s1.6 1.8 2.4 6c.9 4.7 0 6.8 0 6.8l1 2.5"/><path id="パス_1662" class="st22" d="M28.8 7s-2.5-.2-5-.2c-1.6 0-3.3.2-4.9.6L17 4.7c-.6-.9-4.3-4.9-5.5-4.6s-1.6 1.8-2.4 6c-.9 4.7 0 6.8 0 6.8l-.5 2.3c-.5 1-1.2 2-2 2.9-1.5 1.8-3.4 2.1-3.1 3.1S6 22.7 6 22.7c-.2 1.1-.8 2-1.6 2.8-1.2.9.3 2.1.3 2.1S.4 32.5.1 32.8s.6 2.4 2.1 2.1 2.1 0 2.1 0v.7c0 .8.2 1.6.7 2.3l2-2.3c2.4-.9 4.7-2.1 6.9-3.4 3.7-2.4.9-4.6 4.9-7.6 1.8-1.6 3.4-3.4 4.6-5.5.3-.6.8-1.1 1.5-1.4.2 0 .4-.1.5-.1.3 0 .5.1.8.1.6.3 1.2.8 1.5 1.4.6 1.2 3 4.7 4.6 5.8 4 2.8 2.8 5.5 5.8 7.9 2.3 1.7 4.7 3.2 7.2 4.6l.2.5c.5-.7.7-1.5.7-2.3V35s.5-.3 2.1 0 2.4-1.8 2.1-2.1-4.6-5.2-4.6-5.2 1.5-1.2.3-2.1c-.8-.7-1.4-1.7-1.6-2.8 0 0 2.2-.6 2.5-1.5s-1.5-1.2-3.1-3.1c-.8-.9-1.5-1.9-2.1-2.9"/></g><path id="パス_1663" d="M26.3 26.5c-.9 0-2.4.3-2.4.8 0 .4 1.4 1.3 2.1 1.6.4.2.2.1.6 0 .3-.1 2.1-.9 2.1-1.5.1 0-.2-.9-2.4-.9z" style="fill:#ffc4c5"/><path id="パス_1664" d="M30.1 32.4c-.6 0-1.1-.1-1.7-.3l-.6-.2-1.3-.6c-.1 0-.2-.1-.3-.1H26c-.1 0-.2 0-.3.1l-1.8.8c-.7.3-1.5.4-2.2.3-.3 0-.6-.3-.5-.7 0-.3.3-.6.7-.5.5.1 1.1 0 1.6-.2l.6-.2 1.2-.6c.2-.1.5-.2.8-.2h.2c.3 0 .5.1.8.2l1.8.8c.5.2 1 .3 1.6.2.3 0 .6.2.7.5 0 .3-.2.6-.5.7h-.6z"/><g id="グループ_489" transform="translate(18.553 9.177)" class="st24"><path id="パス_1666" class="st25" d="M2.5 4.4c-.1-.1.2-.6.4-.6h.2c.3.1.6.2.8.4.2.1.5.3.7.5.2 0 .3.1.4.2.1.1.2.2.3.4.3.5.6 1 .7 1.6 0 .2.1.5.1.8v.2c0 .2-.5.4-.6.3L5.3 8l-.6-.6c-.3-.4-.6-.8-.8-1.1l-.2-.2c-.1-.1-.1-.2-.2-.3-.2-.2-.3-.4-.5-.6l-.4-.6-.1-.2z"/><path id="パス_1667" class="st25" d="M3 10.3c.1.2 0 .4-.2.5-.1.1-.3 0-.4-.1l-.3-.3c-.4-.4-.7-.9-1-1.3-.1-.2-.2-.5-.3-.7-.1-.2-.1-.3-.2-.5-.1-.1-.1-.2-.1-.4C.3 7 .2 6.4.2 5.8.1 4.7.3 3.5.6 2.5c.2-.5.3-1 .6-1.5l.1-.3c.1-.2.3-.3.4-.2.2-.1.3.1.3.2v2c0 1-.1 2 0 3 0 .5.1 1 .2 1.4 0 .1 0 .2.1.3s0 .2.1.3c-.1.3 0 .6 0 .8.2.5.4 1 .5 1.5l.1.3z"/><path id="パス_1668" class="st25" d="M6.8 6.4c0 .3-.4.6-.6.4L6 6.6c-.3-.2-.6-.5-.8-.7L4.6 5c-.3-.4-.4-.7-.5-1.1-.3-.8-.3-1.6-.2-2.4.1-.3.2-.7.3-1.1 0-.1.1-.2.1-.2.2-.3.7-.1.7.1v.2c.1.4.1.7.2 1 .1.6.3 1.2.4 1.8.2.4.3.6.4.9.1.3.3.6.4 1s.2.7.3 1l.1.2z"/></g><g id="グループ_490" transform="translate(27.199 9.177)" class="st24"><path id="パス_1669" class="st25" d="M3.4 4.8c.1-.1.6-.2.7 0 0 .1 0 .1.1.2.1.3.1.6 0 .8-.1.5-.3 1-.6 1.4-.2.3-.4.4-.6.6-.2.2-.4.3-.7.4-.2.1-.5.1-.7.2h-.2c-.2 0-.4-.4-.4-.6 0-.1.1-.1.1-.1.1-.2.2-.4.4-.6s.2-.3.4-.5l.3-.4c.2-.3.5-.6.7-.9.1-.1.2-.3.4-.4 0-.1 0-.1.1-.1z"/><path id="パス_1670" class="st25" d="M4.5 10.7c-.1.2-.3.2-.5.1-.1-.1-.2-.2-.1-.4V10c.1-.5.2-1 .4-1.5L4.6 7c.1-.2.1-.5.2-.7 0-.2.1-.4.1-.7.1-.9 0-1.9 0-3v-2c0-.2.2-.3.4-.3s.3.1.3.3c0 .1.1.2.1.3.2.5.4 1 .5 1.5.3 1.1.4 2.2.4 3.3 0 .3-.1.6-.1.9l-.3.9L5.6 9c-.3.4-.6.9-.9 1.4l-.2.3z"/><path id="パス_1671" class="st25" d="M.8 6.8c-.2.2-.7-.1-.6-.4l.1-.2c.1-.4.2-.7.3-1s.2-.7.4-1c0-.3.1-.5.2-.8.2-.6.3-1.2.4-1.8l.2-1V.4c0-.2.6-.4.7-.1 0 .1.1.2.1.2.2.3.4.7.4 1.1.1.8.1 1.6-.1 2.3-.1.4-.3.7-.5 1.1-.2.3-.4.6-.7.9-.2.2-.5.5-.7.8l-.2.1z"/></g><g id="グループ_491" transform="translate(8.387 22.325)" class="st24"><path id="パス_1672" class="st25" d="M.2 1.1C0 .9.3.5.5.5h1c.5 0 1 0 1.5-.1S4 .3 4.6.1c.3-.1.6-.1 1-.1h.2c.2.1.3.6.2.7l-.2.2c-.2.2-.4.3-.7.5-.5.4-1.2.7-1.9.7-.7.1-1.4 0-2-.3-.3-.1-.6-.3-.8-.5-.1-.1-.1-.2-.2-.2z"/><path id="パス_1673" class="st25" d="M.7 5.6c-.2-.1-.2-.6 0-.7l.2-.1c.3-.1.7-.2 1-.3.7-.2 1.3-.4 1.9-.5l.9-.2c.3-.1.6-.2.9-.2s.6-.2 1-.3l.2-.1c.3-.1.6.4.4.6 0 .1 0 .2-.1.2-.2.3-.5.6-.8.8-.3.2-.6.4-1 .6-.3.1-.7.2-1.1.3-.7.2-1.4.2-2.1.2-.4-.1-.8-.1-1.1-.2l-.3-.1z"/></g><g id="グループ_492" transform="translate(36.498 22.325)" class="st24"><path id="パス_1674" class="st25" d="M7 .5c.2 0 .5.4.3.6-.1 0-.1.1-.2.2-.2.2-.5.4-.8.5-.6.3-1.3.4-2 .3-.7 0-1.4-.3-1.9-.7-.3-.2-.5-.3-.7-.5L1.5.7c-.1-.1 0-.6.2-.6h.2c.3 0 .6 0 1 .1.6.1 1 .2 1.5.2s1 .1 1.5.1H7z"/><path id="パス_1675" class="st25" d="M6.8 4.9c.2.1.2.6 0 .7l-.3.1c-.3.1-.7.1-1.1.2-.7 0-1.4 0-2.1-.2-.4-.1-.8-.2-1.1-.3-.4-.2-.7-.4-1-.6C.9 4.6.6 4.3.4 4l-.2-.2c-.2-.2.1-.6.4-.6l.2.1c.3.1.7.2 1 .3s.6.2.9.2l.9.2c.6.1 1.3.3 1.9.5.3.1.7.2 1 .3l.3.1z"/></g><g id="グループ_493"><path id="パス_1676" d="M10 14.7c-.4 0-.7-.2-.8-.6 0-.1-1-2.5-.1-7.3.8-4 1.2-6.3 3.1-6.7.6-.1 1.6 0 3.8 2.1 1 .8 1.9 1.8 2.7 2.9l1.5 2.2c1.5-.3 3-.5 4.5-.5 2.5 0 5.1.2 5.1.2.5 0 .9.5.9 1s-.5.9-1 .9c0 0-2.5-.2-5-.2-1.6 0-3.1.2-4.7.6-.4.1-.8-.1-1-.4l-1.8-2.8c-.7-1.1-3.7-4-4.6-4.2-.7.2-1 1.9-1.7 5.3-.8 4.3-.1 6.3-.1 6.3.2.5 0 1-.5 1.2H10z"/><path id="パス_1677" d="M42 14.7c-.1 0-.2 0-.4-.1-.5-.2-.7-.7-.5-1.2 0-.1.8-2.1-.1-6.3-.7-3.4-1.1-5.1-1.7-5.3-.9.2-3.9 3.1-4.6 4.2L33 8.8c-.2.3-.6.5-1 .4-1.5-.4-3.1-.6-4.7-.6-2.5 0-4.9.1-4.9.2-.5 0-.9-.4-1-.9 0-.5.4-.9.9-1 0 0 2.5-.2 5-.2 1.5 0 3 .2 4.5.5L33.3 5c.8-1 1.7-2 2.7-2.9C38.3 0 39.2-.1 39.8 0c1.9.5 2.3 2.7 3.1 6.7 1 4.9 0 7.2-.1 7.3-.1.5-.4.7-.8.7z"/><path id="パス_1678" d="M6 39.8c-.3 0-.6-.2-.8-.4-.5-.8-.8-1.8-.8-2.8-.3 0-.6 0-1 .1-1.2.2-2.4-.5-2.9-1.6-.5-.9-.5-1.6 0-2.1.2-.2 2.4-2.7 4-4.5-.3-.4-.5-.9-.5-1.3 0-.6.3-1.2.8-1.5.5-.4.8-.9 1-1.5-1-.3-1.8-.9-2.2-1.8-.4-1.2.6-1.8 1.4-2.4.7-.4 1.3-1 1.9-1.6 1.4-1.7 1.8-2.2 1.8-2.2.3-.4.8-.5 1.3-.3.4.3.5.8.3 1.3 0 .1-.4.6-1.9 2.4-.8.8-1.5 1.4-2.4 1.9-.2.1-.4.3-.5.4.5.4 1.1.6 1.8.8.5.1.8.6.7 1.1-.3 1.3-1 2.5-2 3.3l-.1.1c.1.2.2.4.4.6.2.2.3.4.3.6 0 .2-.1.5-.2.7-.6.7-3.5 3.9-4.4 5 .1.3.3.5.5.7.1.1.3.2.5.1 1-.3 2-.2 2.8.2.3.2.4.5.4.8v.7c0 .7.2 1.3.5 1.8.3.4.2 1-.3 1.3 0 .1-.2.1-.4.1z"/><path id="パス_1679" d="M46.4 39.8c-.2 0-.4-.1-.5-.1-.4-.3-.5-.8-.3-1.3.4-.5.5-1.2.5-1.8v-.7c0-.3.2-.6.4-.8.9-.4 1.8-.4 2.7-.2.2 0 .4 0 .5-.1.2-.2.4-.4.5-.7-.9-1-3.7-4.2-4.4-5-.2-.2-.2-.4-.2-.7 0-.2.1-.5.3-.6.2-.2.4-.4.4-.6l-.1-.1c-1-.9-1.7-2-2-3.3-.1-.5.2-1 .7-1.1.6-.2 1.2-.4 1.8-.8-.1-.1-.4-.3-.5-.4-.8-.5-1.6-1.2-2.2-1.9-1.5-1.8-1.9-2.3-1.9-2.3-.3-.4-.3-1 .1-1.3.4-.3 1-.3 1.3.1 0 0 .4.5 1.9 2.3.5.6 1.2 1.2 1.9 1.6.8.5 1.7 1.2 1.4 2.3-.5.9-1.3 1.5-2.2 1.8.2.6.6 1.1 1 1.5.5.3.8.9.8 1.5 0 .5-.2 1-.5 1.4 1.6 1.9 3.8 4.3 4 4.5.4.4.4 1.2 0 2.1-.5 1.1-1.7 1.8-2.9 1.6-.3-.1-.6-.1-1-.1 0 1-.3 1.9-.8 2.8-.1.3-.4.4-.7.4z"/></g><path id="パス_1680" d="M18.6 21.9c.6-.6 1.6-.5 2.2.1 0 .1.1.1.1.2.5.8.5 1.8.1 2.6-.5.8-1.6 1-2.3.5-.1-.1-.2-.1-.3-.2-.9-.9-.8-2.4.2-3.2z"/><path id="パス_1681" d="M33.6 21.9c-.6-.6-1.6-.5-2.2.1 0 0-.1.1-.1.2-.5.8-.5 1.8-.1 2.6.5.8 1.6 1 2.3.5.1-.1.2-.1.3-.2.8-.9.7-2.4-.2-3.2z"/></g><g id="グループ_464" transform="translate(206.179 331.746)"><path id="パス_1475" class="st8" d="M20.5 5.4c-4.7 0-8.5 0-13.6 4.7-5.8 5.2-5.8 10.2-5.8 14.8s4 10.5 4.8 11.8.7 6.1.7 6.1 6.5.5 18.5-1.4c9.8-1.5 15.2-5.7 17.5-7 .2-.1.2-.3.1-.5 0-.1-.1-.1-.2-.1-1.3-.5-2.2-1.6-2.5-2.9-.4-2.7.4-3 .5-7.7s-.4-8-6.1-13.2c-5.2-4.7-8.9-4.5-13.6-4.5l-.3-.1z"/><path id="パス_1476" class="st8" d="M72.5 54.5c-6.7-13.3-21.2-16.9-21.2-16.9-3.7-1.7-9.8-4.4-9.8-4.4s-9.8 3.9-16.9 5.4-14.5.8-17.6 2.7c0 0-2.5 12.5-1 18.9 1.8 7.7 4.7 15.2 8.7 22 3.8 6.5 1.2 13.6 1.2 13.6s-1.8 2.7-.9 5 2.8 2.7 5.6 2.2c2.5-.4 2.6-1.5 5.3-1.5s3.2 2 8.3 1.2c3.7-.5 5.2-2.5 5.2-4.9-.1-.9-.4-1.9-.7-2.8 0 0 1.7-.3 3.4 2.2.4.6-.5 2.4.8 3.7s.7 1.9 4 1.7 12.2 2.2 15.3.5 14.5-7.7 16.3-17.2c2-10.8 1.9-15.9-6-31.4z"/><path id="パス_1477" class="st8" d="M75.6 62.2S77 52 82.5 51.9c6.7 0 8.8 4.4 8.3 10.6-.9 10.5-8.2 14.7-10.5 16.8s-2.7-4.2-3.5-7.4-2-5.8-1.2-9.7z"/><g id="グループ_463"><g id="グループ_462"><path id="パス_1478" class="st26" d="M81.3 79.3s20.2-19.9 4.1-27.6C79.1 48.7 73.9 63 73.9 63s1.4 14.8 7.4 16.3z"/><path id="パス_1479" d="M76 61.4h-.2c-.5-.1-.8-.6-.7-1.1.1-.4 1.8-9.8 8.4-9.8 3.3-.1 6.3 1.9 7.3 5 .2.5 0 1-.5 1.2-.5.2-1 0-1.2-.5-.8-2.4-3.1-4-5.7-3.8-5 0-6.6 8.2-6.6 8.3 0 .4-.3.7-.8.7z"/><path id="パス_1480" d="M27 77c-2-.2-3.9-.9-5.6-2-2.1-1.3-3.8-3.2-4.8-5.5-.2-.5 0-1 .5-1.2.5-.2 1 0 1.2.5.9 1.9 2.3 3.5 4.1 4.6 1.4.9 3.1 1.5 4.8 1.7.5 0 .9.4.9.9-.2.6-.6 1-1.1 1z"/><path id="パス_1481" d="M27.6 97.9c-.5 0-.9-.4-.9-.9 0 0 .1-4.4-.1-9.3-.1-2.8-.4-5.6-1-8.4-.1-.5.2-1 .7-1.1.5-.1 1 .2 1.1.7.6 2.9.9 5.8 1 8.7.2 4.9.1 9.3.1 9.4 0 .5-.4.9-.9.9z"/><path id="パス_1482" class="st26" d="M16.6 26.6c-.6-.5-.8-1.3-.3-2 .1-.2.3-.3.5-.4 1.1-.4 1-4 3.8-4 2.5 0 2.4 2.8 3.9 3.8.7.4.9 1.3.5 2-.1.1-.2.3-.3.4-1.6 1.2-6.6 1.2-8.1.2z"/><path id="パス_1483" d="M23.1 26.3c-.2-.3-.8-.8-2.4-.8h-.1c-1.6 0-2.2.5-2.4.8-.1.1-.1.3 0 .4.6.6 1.2 1 2 1.3.3.1.7.1 1 0 .7-.3 1.4-.7 2-1.3 0-.1 0-.2-.1-.4z" style="fill:#c25845"/><g id="グループ_458" transform="translate(.681 1.136)"><path id="パス_1484" class="st26" d="M1.3 27.9s8.8-2.9 11.3-5.4 4.8-10.4 7.2-10.4c2.1 0 5.7 8.7 7.2 10.4 2.9 3.4 11.5 5.4 11.5 5.4S45.5 5 19.4 5 1.3 27.9 1.3 27.9z"/><path id="パス_1485" class="st26" d="M11.1 6S3.8-1 1.7.2s1 12.5 1 12.5C4 11.2 5.5 9.9 7.2 8.8 8.6 8 9.9 7 11.1 6z"/><path id="パス_1486" class="st26" d="M28.4 6s7.3-7 9.4-5.8-1 12.5-1 12.5c-1.3-1.5-2.8-2.8-4.5-3.9C30.9 8 29.6 7 28.4 6z"/></g><path id="パス_1487" d="M2.6 13c-.5 0-.9-.4-.9-.9 0-.3-.2-1.3-.4-2.4C.3 3.6.1.9 1.6.2c2.2-1 8.9 3.3 10 4.7.3.4.2 1-.2 1.3-.4.3-1 .2-1.3-.2C9 4.7 3.8 1.9 2.4 1.9c-.3 1.1.5 5.8.8 7.6.2.9.3 1.8.4 2.7 0 .4-.5.8-1 .8z"/><path id="パス_1488" d="M38.7 13c-.5 0-.9-.4-.9-.9.1-.9.2-1.8.4-2.7.3-1.8 1.1-6.5.7-7.6-1.3 0-6.6 2.8-7.6 4.2-.3.4-.9.5-1.3.2s-.5-.9-.2-1.3c1.1-1.4 7.8-5.7 10-4.7 1.5.7 1.2 3.4.2 9.6-.2 1-.4 2.1-.4 2.4 0 .4-.4.8-.9.8z"/><path id="パス_1489" d="M28.8 8c-.1 0-.2 0-.3-.1-2.8-1-5.8-1.6-8.8-1.7-2.4-.1-4.8.5-7 1.6-.4.3-1 .1-1.3-.3-.3-.4-.1-1 .3-1.3 2.4-1.3 5.2-2 8-1.9 3.2.1 6.5.7 9.5 1.8.5.2.7.7.5 1.2-.2.5-.5.7-.9.7z"/><path id="パス_1490" d="M6.9 41.1h-.1C6.3 41 6 40.5 6 40c-.1-1.2-.5-2.4-1.2-3.4-.2-.4-.4-.7-.7-1.1-2.6-3.6-4-7.9-4-12.4 0-3.1.6-6.1 1.6-9 .3-.5.8-.7 1.3-.5.5.2.7.7.5 1.2-1 2.7-1.5 5.5-1.5 8.4 0 4.1 1.3 8.1 3.7 11.4.3.4.5.8.7 1.2 1.6 2.8 1.5 4.4 1.5 4.6-.1.3-.5.7-1 .7z"/><path id="パス_1491" d="M19.2 103.9c-3.4 0-5.4-1.7-5.5-4.5-.1-1.1.3-2.2 1.1-3.1.6-.6.8-1.4.7-2.2v-.8c0-2.9 0-6.2-1.1-9.3-.6-1.3-1.2-2.6-2-3.9-2.9-4.8-5.1-10-6.6-15.5-2.4-9-.1-21.1 0-21.6s.6-.8 1.1-.7c.5.1.8.6.7 1.1 0 .1-2.3 12.2 0 20.8 1.4 5.3 3.6 10.3 6.4 15 .8 1.3 1.5 2.7 2.1 4.1 1.3 3.4 1.2 6.9 1.2 9.9v.8c.1 1.2-.3 2.4-1.2 3.3-.5.5-.7 1.2-.7 1.9 0 2.3 2 2.8 3.7 2.7 1.5.1 2.9-.3 4.1-1.1.4-.3.9-.3 1.3.1.3.4.3.9-.1 1.3-1.3 1.2-3.2 1.8-5.2 1.7z"/><g id="グループ_459" transform="translate(11.366 20.347)"><path id="パス_1492" d="M.9.4c.6-.6 1.6-.5 2.2.1 0 0 .1.1.1.2.5.8.5 1.8.1 2.6-.5.8-1.6 1.1-2.3.6-.1-.1-.2-.2-.3-.2-.8-1-.7-2.4.2-3.3z"/><path id="パス_1493" d="M17.3.4c-.6-.6-1.6-.5-2.2.1 0 0-.1.1-.1.2-.5.8-.5 1.8-.1 2.6.5.8 1.5 1 2.3.5.1-.1.2-.1.2-.2.9-.9.8-2.3-.1-3.2z"/></g><path id="パス_1494" class="st26" d="M60.6 59.9c2.8 5.4-4.6 19-4.5 23.8s1.7 7.9 6.7 11.3c3.5 2.4 13 2.1 14.7-4.7s2-27.1-7.8-39.7C63 41.7 51.3 37.3 44.8 35c-1.7-.6-3.6.3-4.3 2-.3.7-.3 1.5 0 2.3 1 4.1 3.4 7.6 6.8 10.1 4.9 3.4 12.1 8.2 13.3 10.5z"/><path id="パス_1495" class="st26" d="M53.5 63.9c.9 6.1-5 11.5-9.3 16.1-1 1.2-2.4 2.1-3.9 2.6-1.3.4-2.6-.4-2.9-1.6-.1-.4-.1-.7-.1-1.1.6-3.3-3.1-6.3-2.7-12.6.4-6.3 2.6-10.8 8.5-11.5 9.3-1.2 10 5.6 10.4 8.1z"/><path id="パス_1496" d="M76.9 67.3c-.5 0-.9-.4-.9-.8-.3-2.6-1-5.1-2.1-7.4-2.8-6.1-7-11.3-12.2-15.4-4-3.1-8.4-4.7-12.3-6.1-4.9-1.7-9.1-3.2-10.3-7.1-.3-1.5-.2-3 .3-4.4.4-1.5.5-3.1.6-4.7-.1-2.3-.7-4.5-1.8-6.5-.3-.4-.1-1 .3-1.2.4-.3 1-.1 1.2.3 1.3 2.3 2 4.8 2.1 7.4 0 1.7-.2 3.4-.6 5.1-.3 1.1-.4 2.3-.3 3.5.9 3 4.6 4.3 9.2 5.9 4.1 1.4 8.7 3.1 12.9 6.4 14 11 15 23.6 15.1 24.1-.3.5-.7.9-1.2.9z"/><path id="パス_1497" d="M33.2 104.1c-.5 0-1 0-1.4-.1-2.1-.3-3.8-1.1-4.5-2.2-.4-.6-.5-1.3-.4-1.9.1-.5.6-.8 1.1-.7.5.1.8.6.7 1.1 0 .2 0 .3.1.5.3.5 1.4 1.1 3.2 1.4 2.4.3 4.5-.4 5.6-1.8 1-1.3.6-2.6-.1-4.2-.1-.2-.2-.4-.2-.6-.7-1.8.5-13.7 1.3-15.9.2-.5.7-.7 1.2-.6.5.2.7.7.6 1.2-.7 2.2-1.7 13.4-1.3 14.7.1.2.1.3.2.5.6 1.5 1.5 3.8-.2 6-1.5 1.7-3.6 2.7-5.9 2.6z"/><path id="パス_1498" d="M57.9 103.7h-5.5c-2.4 0-6.6-.1-8.6-.9-2-.7-3.1-2.8-2.5-4.8.7-3.6 6.3-4.2 6.6-4.2.5 0 .9.3 1 .8 0 .5-.3.9-.8 1-1.2.1-4.6.9-4.9 2.8-.4 1.1.2 2.3 1.3 2.7h.1c1.4.6 5 .8 7.8.8h3c1.7 0 3.3.1 6 0 3.6-.2 11.9-5.6 15.4-12 3.3-6 .3-16.5.3-16.6-.1-.5.1-1 .6-1.1.5-.1 1 .1 1.1.6.1.5 3.2 11.3-.4 18-3 5.5-11.6 12.8-16.9 13-1.6-.1-2.7-.1-3.6-.1z"/><path id="パス_1499" d="M79.2 81.8c-.3 0-.6-.1-.7-.4-.3-.4-.2-1 .2-1.3 3-2.2 5.7-4.8 8-7.7 2.3-3 3.8-8.8 3.3-13.2-.1-.5.3-.9.8-1 .5-.1.9.3 1 .8.5 4.9-1 11.2-3.7 14.5-2.4 3-5.2 5.7-8.3 8-.3.3-.5.3-.6.3z"/><g id="グループ_460" transform="translate(2.901 21.175)" class="st24"><path id="パス_1500" class="st25" d="M.2.4h1.5c.5 0 .9 0 1.3-.1.4 0 .9-.1 1.3-.2.5 0 1.1-.1 1.6 0-.4.3-.8.7-1.2 1-.5.3-1 .5-1.6.5-.5.1-1.1 0-1.6-.2C.9 1.2.5.9.2.4z"/><path id="パス_1501" class="st25" d="M.5 5c.5-.3 1.1-.5 1.6-.6.6-.2 1.1-.3 1.7-.4l.8-.2c.2-.1.5-.1.8-.2.6-.2 1.1-.3 1.7-.4-.3.5-.8 1-1.3 1.3-.3.1-.6.3-.8.4l-.9.3c-.6.1-1.2.1-1.8.1C1.6 5.3 1 5.2.5 5z"/></g><g id="グループ_461" transform="translate(31.481 21.175)" class="st24"><path id="パス_1502" class="st25" d="M7.1.4c-.3.5-.8.8-1.3 1-.5.2-1.1.3-1.6.2-.6 0-1.1-.2-1.6-.5-.4-.3-.8-.6-1.2-1 .5-.1 1-.1 1.6.1.4.1.9.2 1.3.2s.9.1 1.4.1.9 0 1.4-.1z"/><path id="パス_1503" class="st25" d="M6.8 5c-.5.2-1.2.3-1.8.3-.6 0-1.2 0-1.8-.2-.3 0-.6-.1-.9-.2-.3-.1-.5-.3-.8-.5C1 4.1.5 3.7.2 3.1c.6.1 1.2.3 1.7.4.3.1.5.2.8.2l.8.3c.5.1 1.1.2 1.6.4.6.1 1.2.3 1.7.6z"/></g><path id="パス_1504" class="st28" d="M14.7 19.1s.1 0 0 0c0 .1 0 0 0 0l-.1-.2c0-.1-.1-.2-.1-.2 0-.2-.1-.3-.1-.5-.1-.3-.1-.7-.2-1-.1-.7-.1-1.3-.1-2s.1-1.4.3-2c.2-.7.4-1.3.7-2v-.1c.1-.2.3-.3.4-.3.1 0 .3 0 .4.1l.1.1.1.1c0 .1.1.1.1.2s.1.2.1.3c.1.2.1.4.2.6.1.4.2.7.4 1.1.2.7.4 1.5.6 2.2-.4-.7-.8-1.3-1.1-2l-.5-1c-.1-.2-.2-.3-.3-.5 0-.1-.1-.2-.1-.2s0-.1-.1-.1c.1.1.2.1.3.1l.5-.3c-.2.6-.3 1.2-.4 1.8s-.2 1.2-.3 1.9l-.5 2-.1 1-.2.9z"/><path id="パス_1505" class="st28" d="M19.3 12.6c-.3-.4-.5-.8-.6-1.3-.1-.5-.2-.9-.2-1.4 0-.5 0-1 .2-1.5.1-.2.2-.5.3-.7.1-.2.3-.4.4-.6 0 .2 0 .5-.1.7-.1.2-.1.4-.1.7v1.3l.1 1.4v1.4z"/><path id="パス_1506" class="st28" d="M15.7 10c-.1-.3-.1-.7 0-1 0-.3.1-.7.2-1 .1-.3.3-.6.6-.9.2-.3.5-.4.9-.5-.3.5-.6 1.1-.8 1.7-.3.5-.6 1.1-.9 1.7z"/><path id="パス_1507" class="st28" d="m25.8 19.1-.2-1-.1-1-.3-1.9c-.1-.6-.2-1.2-.3-1.9s-.3-1.3-.4-1.8l.5.3c.1 0 .2 0 .3-.1 0 0 0 .1-.1.1 0 .1-.1.1-.1.2-.1.2-.2.3-.3.5l-.5 1c-.4.7-.7 1.3-1.1 2 .1-.8.3-1.5.5-2.2.1-.4.2-.7.4-1.1.1-.2.1-.4.2-.6 0-.1.1-.2.1-.3 0 0 .1-.1.1-.2 0 0 0-.1.1-.1l.1-.1c.1-.1.2-.1.4-.1s.4.1.4.3v.1c.3.6.5 1.3.7 1.9.2.7.3 1.3.3 2s0 1.3-.1 2c0 .3-.1.7-.2 1 0 .2-.1.3-.1.5 0 .1 0 .2-.1.2l-.2.3c0 .1 0 0 0 0z"/><path id="パス_1508" class="st28" d="M24.9 10c-.3-.6-.6-1.2-.8-1.8-.2-.6-.5-1.1-.8-1.7.3.1.6.3.9.5l.6.9c.1.3.2.7.2 1 0 .4 0 .8-.1 1.1z"/><path id="パス_1509" class="st28" d="M21.2 12.6c.1-.5.1-.9.1-1.4l.1-1.4V8.5c0-.2-.1-.4-.1-.7-.1-.2-.1-.5-.1-.7.1.2.2.4.4.6.1.2.2.4.3.7.1.4.1.9.1 1.4 0 .5-.1 1-.2 1.4-.1.5-.3 1-.6 1.4z"/><path id="パス_1510" class="st28" d="M55 37c-.8 1-1.6 1.8-2.3 2.6-.7.8-1.3 1.6-1.8 2.4-.5.9-1 1.9-1.3 2.9-.5 1.1-1 2.1-1.6 3.2-.2-1.2-.2-2.4-.1-3.6.1-1.2.4-2.5.9-3.6.6-1.2 1.5-2.2 2.6-2.9.5-.3 1.1-.6 1.7-.8.6-.1 1.2-.2 1.9-.2z"/><path id="パス_1511" class="st28" d="M86.5 66.9c-1-.5-1.8-1-2.5-1.5L81.8 64c-.1-.1-.2-.1-.3-.2l-.2-.1c-.2-.1-.3-.2-.5-.2-.4-.2-.8-.3-1.2-.4-.9-.2-1.8-.4-2.8-.7.9-.6 1.9-.9 3-1 .5-.1 1.1 0 1.6 0 .3 0 .6.1.8.2l.4.1c.1 0 .2.1.4.2 1 .4 1.9 1.1 2.5 2 .6.9 1 1.9 1 3z"/><path id="パス_1512" class="st28" d="M87.9 60.4c-1.1-.3-2-.6-2.8-.9l-2.5-.9c-.1 0-.2-.1-.3-.1l-.3-.1c-.2 0-.4-.1-.6-.1-.4-.1-.9-.1-1.3-.1h-2.9c.7-.7 1.7-1.3 2.7-1.6.5-.2 1.1-.3 1.6-.3h1.3c.1 0 .3 0 .4.1 1.1.2 2.1.7 2.9 1.4.9.6 1.5 1.5 1.8 2.6z"/><path id="パス_1513" class="st28" d="M60 41.4c-.8 1-1.5 1.8-2.3 2.5-.7.7-1.4 1.5-2.1 2.2-.3.4-.5.8-.7 1.2-.2.5-.5.9-.7 1.5-.4 1-.9 2.1-1.4 3.1-.2-1.2-.3-2.3-.2-3.5l.3-1.8c.2-.6.4-1.2.7-1.8.2-.3.3-.5.5-.8.2-.2.4-.5.6-.7.4-.4.9-.8 1.5-1.1.5-.3 1.1-.5 1.7-.7.8-.1 1.5-.2 2.1-.1z"/><path id="パス_1514" class="st28" d="M59.6 56.3c-.5-.5-.8-1-1-1.6-.2-.6-.3-1.2-.3-1.8 0-.6.1-1.3.2-1.9l.3-.9c.1-.1.1-.3.2-.4l.3-.5c.7-1 1.5-1.9 2.5-2.6.9-.7 1.9-1.3 3-1.8-.6 1-1.3 1.9-1.9 2.9-.6.8-1.2 1.7-1.7 2.7l-.1.3-.1.2c-.1.2-.1.5-.2.7l-.4 1.5c-.2 1-.4 2-.8 3.2z"/><path id="パス_1515" class="st28" d="M68.8 49.9c.5.6.9 1.3 1.1 2 .2.7.3 1.5.2 2.3-.1.8-.3 1.5-.6 2.2-.2.4-.4.7-.6 1.1-.2.3-.5.7-.7 1-1 1.1-2.1 2-3.3 2.8-1.2.8-2.4 1.4-3.8 2 .9-1.1 1.9-2.1 2.8-3.1.9-1 1.8-2 2.6-3 .2-.2.3-.5.4-.7.1-.3.2-.5.3-.8.2-.6.4-1.2.5-1.8.5-1.3.8-2.5 1.1-4z"/><path id="パス_1516" class="st28" d="M73.4 56.3c.5.9.7 1.9.9 2.9.1 1 .1 2-.1 3.1-.2 1-.5 2-1 3-.3.5-.5.9-.9 1.3-.2.2-.3.4-.5.6l-.6.6c-.8.7-1.6 1.2-2.5 1.7-.8.5-1.7.9-2.6 1.3-1.8.8-3.6 1.4-5.5 1.9 1.6-1.1 3.2-2.2 4.7-3.2.8-.5 1.5-1.1 2.3-1.6.7-.5 1.4-1.1 2-1.7l.4-.4.2-.2c.1-.1.1-.2.2-.3.2-.4.4-.7.6-1.1.4-.8.7-1.6 1-2.4.5-1.9 1-3.7 1.4-5.5z"/><path id="パス_1517" class="st28" d="M77.3 68.7c0 1.2-.1 2.3-.5 3.5-.3 1.1-.7 2.2-1.3 3.3-1.1 2.1-2.7 4-4.7 5.3-1 .7-2 1.2-3.1 1.7s-2.1.9-3.2 1.2c-1.1.4-2.2.7-3.3.9-1.1.3-2.2.5-3.4.6 2-1 4.1-2 6-3 1-.5 2-1 2.9-1.6.9-.5 1.8-1.1 2.7-1.8 1.6-1.4 3-2.9 4.3-4.6 1.3-1.7 2.5-3.6 3.6-5.5z"/><path id="パス_1518" class="st28" d="M77.8 78.6c0 1-.1 2.1-.4 3.1-.2 1-.6 2-1 2.9-.9 1.9-2.2 3.6-3.8 5-.4.3-.8.7-1.3 1l-.7.4c-.2.1-.5.3-.7.4-.9.5-1.9.9-2.9 1.2-2 .6-4 .9-6.1.8 1.9-.7 3.7-1.5 5.4-2.4.8-.4 1.7-.9 2.4-1.4.8-.5 1.5-1.1 2.1-1.7 1.3-1.3 2.6-2.7 3.6-4.3 1.3-1.6 2.3-3.2 3.4-5z"/></g><path id="パス_1519" d="M16.6 31.6h-.5c-.3 0-.6-.3-.5-.7 0-.3.3-.6.7-.5.5.1 1.1 0 1.6-.2l.6-.2 1.2-.6c.2-.1.5-.2.8-.2h.2c.3 0 .5.1.8.2l1.8.8c.5.2 1 .3 1.6.2.3 0 .6.2.7.5 0 .3-.2.6-.5.7-.7.1-1.5 0-2.2-.3l-.8-.3-1.3-.6c-.1 0-.2-.1-.3-.1h-.2c-.1 0-.2 0-.3.1l-1.8.8c-.4.3-1 .4-1.6.4z"/></g></g></g></svg>