<svg version="1.1" id="ear" xmlns="http://www.w3.org/2000/svg" xmlns:xlink="http://www.w3.org/1999/xlink" x="0" y="0" viewBox="0 0 140 140" style="enable-background:new 0 0 140 140" xml:space="preserve"><style>.st0{clip-path:url(#SVGID_00000054229472875886700300000009891265354118733719_)}</style><defs><path id="SVGID_1_" d="M-10-1h160v105H-10z"/></defs><clipPath id="SVGID_00000176019027538726708620000010539923136325371562_"><use xlink:href="#SVGID_1_" style="overflow:visible"/></clipPath><g style="clip-path:url(#SVGID_00000176019027538726708620000010539923136325371562_)"><path d="M208.5 77.6c-13 0-8.1 29-12.9 65.1-2.5 18.6-7.3 33.8-10.6 42.6-2.2-5.6-5.1-11.9-8.9-19.4-14.1-27.9-44.4-35.3-44.4-35.3-7.8-3.5-20.5-9.1-20.6-9.1-1.2-1-2.5-2.6-2.8-4.7-.8-5.6.9-6.4 1-16.2.1-7.3-.4-13-5.6-19.9 1.3-8.9 3.9-29.5.1-30.7-2.3-.8-13 10.4-18.1 15.9-6-2.5-11.5-2.4-17.9-2.4h-.7c-6.6 0-12.3 0-18.6 3-4.8-5.2-16.3-17.3-18.6-16.5-4.2 1.4-.4 27.5.6 33.6-3.8 7.2-3.9 14.1-3.8 20.8.1 9.8 8.5 22 10.1 24.7 1.6 2.6 1.5 12.7 1.5 12.7h.1c-1.2 7.3-3.9 25.8-1.5 36.5 3 13.5 9.5 31.2 18.3 46 8 13.5 2.5 28.5 2.5 28.5s-3.8 5.6-1.8 10.5c2 4.9 5.9 5.6 11.7 4.7 5.2-.8 5.3-3.1 11.1-3.1s6.7 4.1 17.4 2.5c7.7-1.1 10.8-5.1 10.9-10.4 0-1.1-.8-3.6-1.6-5.8 0 0 3.5-.6 7 4.5.9 1.3-1 4.9 1.6 7.7s1.5 3.9 8.3 3.6c6.8-.3 27.3 3 33.7-.5s28.4-14.5 32.3-34.5c.2-.9.3-1.8.5-2.6h.1s17.3-14.4 24.5-67.7c5.3-38.1 10.1-84.1-4.9-84.1z" style="fill:#fff"/><path d="M29.8 80c-.6 0-1.2-.3-1.6-.8-2.9-4.2-3.9-22-2.2-28 .3-1 .8-2.4 2.1-3 5.2-2.4 20 14.7 20.2 14.9.6.8.5 2-.3 2.7-.8.6-2 .5-2.7-.3-2.8-3.7-12.5-12.8-15.5-13.6-1.5 3.5-.9 21.7 1.5 25.3.6.9.4 2.1-.5 2.6-.3.1-.7.2-1 .2zm74.2 0c-.4 0-.7-.1-1.1-.3-.9-.6-1.1-1.8-.5-2.6 2.4-3.6 3.1-21.8 1.5-25.3-3 .8-12.7 9.9-15.5 13.6-.6.8-1.8 1-2.7.3-.8-.6-1-1.8-.3-2.7.1-.2 14.9-17.2 20.2-14.9 1.3.6 1.8 2 2.1 3 1.7 6 .7 23.8-2.2 28-.3.6-.9.9-1.5.9zm-.2-28.6zM84.4 69.5c-.2 0-.5 0-.7-.1-.1 0-8.9-3.5-18.4-3.5s-14.6 3.3-14.6 3.3c-.9.6-2.1.3-2.6-.6-.6-.9-.3-2.1.6-2.6.2-.2 6.2-3.9 16.7-3.9s19.5 3.6 19.8 3.8c1 .4 1.4 1.5 1.1 2.5-.4.6-1.1 1.1-1.9 1.1zm-45.6 69.1h-.3c-1-.1-1.8-1.1-1.6-2.1 0 0 .2-2.6-2.5-7.2-.4-.7-.9-1.5-1.4-2.3-3.5-5.6-8.3-13.2-8.3-25.8 0-10.2 3.3-18.5 3.4-18.9.4-1 1.5-1.4 2.5-1.1s1.5 1.5 1.1 2.5c0 .1-3.1 8-3.1 17.5 0 11.5 4.5 18.6 7.7 23.8.5.8 1 1.7 1.5 2.4 3.5 5.8 3.1 9.3 3 9.6-.2.9-1.1 1.6-2 1.6zm148.1 56.2c-.9 0-1.8-.7-1.9-1.6 0-.1-1-6.8-5.4-16.2-4.1-8.6-12-21.4-26.6-32.9-8.3-6.5-17.6-9.8-25.8-12.7-10.2-3.6-19-6.7-21.5-14.9-.8-2.5-.2-5.6.5-9.1.6-3 1.3-6.3 1.2-9.8-.2-7.6-3.8-13.6-3.8-13.7-.5-.9-.2-2.1.7-2.6s2.1-.2 2.6.7c.2.3 4.1 6.9 4.4 15.5.1 3.9-.6 7.5-1.2 10.7-.6 3-1.1 5.7-.6 7.3 2 6.4 9.5 9 19.1 12.4 8.5 3 18.1 6.4 26.9 13.3 29.2 23 33.3 50.3 33.4 51.5.1 1-.6 2-1.6 2.1h-.4z"/></g></svg>