<svg version="1.1" id="ear" xmlns="http://www.w3.org/2000/svg" xmlns:xlink="http://www.w3.org/1999/xlink" x="0" y="0" viewBox="0 0 140 140" style="enable-background:new 0 0 140 140" xml:space="preserve"><style>.st0{clip-path:url(#SVGID_00000053503146111985225630000002719861544834415551_)}</style><defs><path id="SVGID_1_" d="M-9.8-1h160v105h-160z"/></defs><clipPath id="SVGID_00000032625609114517484360000005604648704708264639_"><use xlink:href="#SVGID_1_" style="overflow:visible"/></clipPath><g style="clip-path:url(#SVGID_00000032625609114517484360000005604648704708264639_)"><path d="M210.5 76.8c-13 0-8.1 29-12.9 65.1-2.9 21.8-9 38.8-12.1 46.5-2.3-6.2-5.5-13.4-9.9-22.1-14.1-27.9-44.3-35.4-44.3-35.4-7.8-3.5-20.5-9.1-20.6-9.2-1.2-1-2.5-2.6-2.8-4.7-.8-5.6.9-6.4 1-16.2.1-7-.3-12.5-5-19.1V70.1l6 4s3-9-2.7-12.4c-7.2-4.3-12.9-4.1-16.9-1.1-3.3 2.5-5.4 4.6-5.9 5.1-5.6-2.1-10.9-2-16.9-2h-.7c-6.2 0-11.7 0-17.6 2.5l.3-.3s-2.2-2.3-6.1-5.3c-3.9-3-9.6-3.3-16.9 1.1-5.7 3.4-2.7 12.4-2.7 12.4l6-4v14c-3.6 7.1-3.7 13.8-3.6 20.4.1 9.8 8.5 22.1 10 24.7s1.5 12.7 1.5 12.7h.1c-1.2 7.3-4 25.8-1.6 36.5 3 13.5 9.4 31.2 18.2 46.1 8 13.6 2.5 28.5 2.5 28.5s-3.8 5.6-1.8 10.5c2 4.9 5.9 5.6 11.7 4.7 5.2-.8 5.3-3.1 11.1-3.1s6.7 4.1 17.4 2.6c7.7-1.1 10.8-5.1 10.9-10.3 0-1.1-.8-3.6-1.6-5.8 0 0 3.5-.6 7 4.6.9 1.3-1 4.9 1.6 7.7s1.5 3.9 8.3 3.6 27.3 3 33.7-.5c6.5-3.5 28.5-14.4 32.3-34.4.3-1.7.6-3.3.9-4.9.7.5 1.4.9 2.3 1.1 0 0 17.3-14.4 24.5-67.7 5.5-38.4 10.3-84.3-4.7-84.3z" style="fill:#fff"/><path d="M38.5 138.3h-.3c-1-.1-1.8-1.1-1.6-2.1 0 0 .2-2.6-2.5-7.2-.4-.7-.9-1.5-1.4-2.3-3.5-5.6-8.3-13.2-8.3-25.8 0-10.2 3.3-18.5 3.4-18.9.4-1 1.5-1.4 2.5-1.1 1 .4 1.5 1.5 1.1 2.5 0 .1-3.1 8-3.1 17.5 0 11.5 4.5 18.6 7.7 23.8.5.8 1 1.7 1.5 2.4 3.5 5.8 3.1 9.3 3 9.6-.3.9-1.1 1.6-2 1.6zm146.1 54.9c-1 0-1.8-.8-1.9-1.8 0-.1-.5-6.5-4.4-15.5-3.6-8.3-11-20.6-25.6-32.1-8.3-6.5-17.6-9.8-25.8-12.7-10.2-3.6-19-6.7-21.5-14.9-.8-2.5-.2-5.6.5-9.1.6-3 1.3-6.3 1.2-9.8-.2-7.6-3.8-13.6-3.8-13.7-.5-.9-.2-2.1.7-2.6s2.1-.2 2.6.7c.2.3 4.1 6.9 4.4 15.5.1 3.9-.6 7.5-1.2 10.7-.6 3-1.1 5.7-.6 7.3 2 6.4 9.5 9 19.1 12.4 8.5 3 18.1 6.4 26.9 13.3 29.3 23.1 31.4 49.2 31.5 50.3.1 1.1-.7 1.9-1.8 2-.1-.1-.2-.1-.3 0zM24.5 75.6c-.7 0-1.3-.3-1.6-.4-2.5-1.6-2.5-6.4-2-8.1 1-3.8 4.1-8.6 13.1-9.8 6.9-1 14.9 6.1 15.2 6.4.8.7.8 1.9.1 2.7s-1.9.8-2.7.1c-1.9-1.7-7.9-6.1-12.2-5.5-5.6.8-8.9 3.2-10 7.1-.2.9-.1 2.6.2 3.4 5.1-4.5 9.3-4.1 9.8-4.1 1 .1 1.8 1.1 1.7 2.1-.1 1-1.1 1.8-2.1 1.7-.1 0-3.1-.2-7 3.3-.9.9-1.8 1.1-2.5 1.1z"/><path d="M29.9 81c-1 0-1.9-.8-1.9-1.9v-8c0-1.1.9-1.9 1.9-1.9s1.9.8 1.9 1.9v8c0 1-.8 1.9-1.9 1.9zm79.5-5.4c-.7 0-1.6-.3-2.6-1.2-3.9-3.5-6.8-3.3-7-3.3-1 .1-2-.7-2.1-1.7s.6-1.9 1.7-2.1c.5-.1 4.7-.4 9.8 4.1.3-.9.4-2.5.2-3.4-1.1-3.9-4.4-6.3-10-7.1-4.3-.6-10.2 3.8-12.2 5.5-.8.7-2 .6-2.7-.1s-.6-2 .1-2.7c.3-.3 8.3-7.4 15.2-6.4 9 1.2 12.1 6 13.1 9.8.4 1.7.5 6.5-2 8.1-.2.3-.8.6-1.5.5z"/><path d="M104.9 82c-1 0-1.8-.8-1.9-1.8l-.6-8.8c-.1-1.1.7-2 1.8-2 1.1-.1 2 .7 2 1.8l.6 8.8c.1 1.1-.7 2-1.8 2h-.1zM84.1 69.2c-.2 0-.5 0-.7-.1-.1 0-8.9-3.5-18.4-3.5s-14.6 3.3-14.6 3.3c-.9.6-2.1.3-2.6-.6-.6-.9-.3-2.1.6-2.6.2-.2 6.2-3.9 16.7-3.9s19.4 3.6 19.8 3.8c1 .4 1.4 1.5 1.1 2.5-.4.6-1.1 1.1-1.9 1.1z"/></g></svg>