<svg xmlns="http://www.w3.org/2000/svg" viewBox="0 0 280 280"><path d="M178.38 172.56s9.73-3.65 18.24-12.16c4.02-4.02 8.57-9.63 11.19-12.97a6.038 6.038 0 0 1 5.77-2.23l32.88 5.48s-16.17 5.23-23.1 12.16c-6.08 6.08-3.65 13.37-3.65 13.37s-7.29-2.43-15.8 0c-8.51 2.43-8.51 7.29-8.51 7.29l-17.02-10.94Z" style="fill:#6d4974"/><path d="M195.4 185.81c-.44 0-.87-.12-1.25-.37l-17.02-10.94c-.73-.47-1.14-1.32-1.05-2.19s.67-1.61 1.48-1.92c.09-.04 9.39-3.6 17.41-11.63 4-4 8.61-9.71 11-12.76a8.358 8.358 0 0 1 7.97-3.09l32.88 5.48c1.05.17 1.84 1.05 1.92 2.11.08 1.06-.58 2.04-1.59 2.37-.16.05-15.72 5.14-22.18 11.59-5.01 5.01-3.11 10.95-3.09 11.01.28.83.06 1.75-.56 2.36s-1.54.83-2.36.56c-.06-.02-6.77-2.16-14.44.03-6.43 1.84-6.83 5.04-6.83 5.07 0 .85-.46 1.62-1.2 2.03-.35.19-.73.28-1.11.28Zm-12.21-12.91 11.04 7.1c1.23-2.04 3.77-4.51 9.05-6.02 5.48-1.57 10.48-1.27 13.66-.77-.12-3.16.61-7.83 4.8-12.02 3.99-3.98 10.65-7.37 15.96-9.64l-24.48-4.08c-1.36-.22-2.73.3-3.58 1.38-2.46 3.13-7.2 9-11.37 13.18-5.43 5.43-11.29 8.94-15.06 10.87Z"/><path d="M98.14 183.5s-4.29-.96-13.89-8.22c-4.53-3.43-9.81-8.36-12.86-11.31a6.083 6.083 0 0 0-6.03-1.42l-31.82 9.94s16.73 2.96 24.55 8.87c6.85 5.19 5.45 12.75 5.45 12.75s11.11-4.05 18.8.34c8.51 4.86 13.37 8.51 13.37 8.51l2.43-19.45Z" style="fill:#6d4974"/><path d="M95.71 205.26c-.49 0-.98-.16-1.39-.46-.05-.04-4.87-3.63-13.13-8.35-6.68-3.81-16.76-.21-16.86-.17-.78.28-1.65.13-2.28-.41a2.33 2.33 0 0 1-.78-2.19c.04-.24 1.01-6.26-4.57-10.48-7.28-5.51-23.39-8.41-23.55-8.44a2.309 2.309 0 0 1-.28-4.48l31.82-9.94c2.93-.92 6.12-.16 8.32 1.97 2.79 2.69 8.14 7.72 12.65 11.13 8.88 6.72 12.99 7.81 13.03 7.82 1.13.28 1.9 1.38 1.76 2.53l-2.43 19.45a2.296 2.296 0 0 1-2.29 2.02Zm-22.13-15.17c3.26 0 6.8.57 9.9 2.35 4.57 2.61 8.09 4.87 10.41 6.43l1.73-13.81c-2.25-.95-6.41-3.12-12.76-7.93-4.47-3.38-9.58-8.12-13.07-11.49a3.76 3.76 0 0 0-3.73-.88l-23.69 7.4c5.57 1.53 12.63 3.96 17.13 7.37 4.85 3.67 6.16 8.36 6.42 11.51 1.98-.47 4.71-.93 7.67-.93Z"/><path d="M151.62 101.16c-.07-2.54-.43-9.94-2.42-14.91-1.48-3.7-4.89-6.94-8.29-8.92-1.48-.86-3.26.45-2.89 2.11.68 3.06 1.46 7.06 1.46 9.24 0 3-.92 5.53-1.63 7.03-2.84-.59-5.95-.95-9.31-.95-2.84 0-5.47.26-7.91.7-.69-1.53-1.51-3.94-1.51-6.78 0-2.18.78-6.18 1.46-9.24.37-1.67-1.42-2.97-2.89-2.11-3.4 1.98-7.11 5.22-8.59 8.92-1.86 4.64-2.12 11.4-2.14 14.34-5.93 3.6-8.8 7.55-8.8 7.55s15.8-4.86 30.39-4.86c13.37 0 31.61 4.86 31.61 4.86s-2.9-3.54-8.52-6.97Z" style="fill:#6d4974"/><path d="M160.14 110.44c-.2 0-.4-.03-.59-.08-.18-.05-18.1-4.78-31.01-4.78-14.06 0-29.56 4.71-29.71 4.76a2.312 2.312 0 0 1-2.55-3.57c.12-.17 2.86-3.87 8.38-7.47.09-3.75.54-9.56 2.28-13.91 1.46-3.66 5.04-7.42 9.57-10.06 1.48-.86 3.27-.77 4.66.24 1.39 1.01 2.02 2.69 1.65 4.37-.9 4.09-1.4 7.19-1.4 8.74s.31 3.02.69 4.2c4.71-.65 9.62-.57 14.3.21.42-1.23.75-2.74.75-4.41 0-1.55-.5-4.65-1.4-8.74-.37-1.68.26-3.36 1.65-4.37a4.228 4.228 0 0 1 4.66-.24c4.28 2.49 7.75 6.25 9.27 10.06 1.85 4.62 2.38 10.98 2.54 14.46 5.2 3.38 7.93 6.66 8.05 6.81a2.31 2.31 0 0 1-1.78 3.78Zm-31.61-9.48c7.49 0 16.33 1.45 22.85 2.79-.31-.2-.64-.41-.98-.61a2.305 2.305 0 0 1-1.1-1.91c-.05-2.13-.38-9.43-2.25-14.11-1.06-2.64-3.55-5.41-6.61-7.36.89 4.12 1.34 7.12 1.34 8.93 0 3.38-1.01 6.22-1.85 8.01-.46.97-1.51 1.49-2.56 1.28-5.3-1.11-11.01-1.2-16.34-.24-1.05.19-2.08-.36-2.51-1.32-.78-1.74-1.72-4.49-1.72-7.73 0-1.81.45-4.81 1.34-8.93-2.68 1.7-5.72 4.39-6.91 7.36-1.73 4.32-1.95 10.88-1.97 13.49 0 .8-.43 1.54-1.11 1.96-.58.35-1.13.71-1.65 1.06 5.97-1.3 14.13-2.66 22.03-2.66Z"/></svg>