<svg xmlns="http://www.w3.org/2000/svg" viewBox="0 0 280 280"><path d="M87.4 118.71c11.78 0 22.09 8.84 23.56 17.67 1.45 8.72-1.48 22.14-23.56 22.9-19.15.66-25.45-20.6-22.09-27.32 2.95-5.89 10.31-13.26 22.09-13.26Z" style="fill:#fff"/><ellipse cx="88.14" cy="137.11" rx="12.52" ry="18.41"/><path d="M192.6 118.71c-11.78 0-22.09 8.84-23.56 17.67-1.45 8.72 1.48 22.14 23.56 22.9 19.15.66 25.45-20.6 22.09-27.32-2.95-5.89-10.31-13.26-22.09-13.26Z" style="fill:#fff"/><ellipse cx="191.87" cy="137.11" rx="12.52" ry="18.41"/></svg>