<svg xmlns="http://www.w3.org/2000/svg" viewBox="0 0 280 280"><path d="M124.35 81.75s35.47-17.41 40.09-15.89c3.65 1.21 17 4.18 18.25 6.04 2.44 3.64-13.01 3.95-13.36 7.32-1.6 15.34-4.8 32.21-4.8 32.21l3.94 5.81c1.48 1.85.19 5.79-2.09 5.14-7.35-2.11-20.68-9.68-29.81-15.14-11.79-7.04-19.02-16.12-22.66-21.66-1.26-1.92.39-4.42 2.66-4l7.8.16Z" style="fill:#6d4974"/><path d="M166.87 124.77c-.37 0-.75-.05-1.13-.16-5.9-1.69-16.12-6.86-30.36-15.37-11.85-7.07-19.27-16.07-23.41-22.38-1.1-1.68-1.1-3.75.01-5.42a4.923 4.923 0 0 1 4.78-2.15l7.08.14c31.18-15.28 39.28-16.44 41.32-15.76.96.32 2.72.79 4.76 1.33 9.82 2.63 13.51 3.87 14.68 5.62.68 1.01.83 2.15.44 3.2-.9 2.37-4.09 3.21-8.12 4.27-1.7.45-4.47 1.17-5.33 1.77-1.39 13.09-3.93 27.32-4.61 31.07l3.36 4.96c1.61 2.1 1.24 5.09.05 6.87-.86 1.29-2.14 2.01-3.51 2.01Zm-50.81-40.92c-.07 0-.15.02-.23.14-.11.17-.04.28 0 .33 3.17 4.83 10.24 13.98 21.92 20.95 13.39 8 23.36 13.1 28.88 14.78.18-.4.24-1.1.03-1.36-.04-.05-.08-.1-.11-.15l-3.94-5.81c-.34-.51-.47-1.13-.36-1.73.03-.17 3.2-16.96 4.77-32.02.33-3.16 4.22-4.18 8.71-5.36 1.02-.27 2.44-.64 3.55-1.02-2.72-1.04-7.8-2.4-10.57-3.14-2.11-.56-3.93-1.05-5.02-1.41-2.96-.37-22.24 7.86-38.34 15.76-.33.16-.69.24-1.07.24l-7.8-.16c-.12 0-.25-.02-.37-.04h-.08Zm64.89-10.44Z"/><path d="M134.06 76.86s8.58 9.25 14.62 13.34c6.04 4.09 18.26 12.12 18.26 12.12l-1.2 7.3s-14.23-6.52-22.34-12.52c-9.3-6.87-17.83-16.58-17.83-16.58l8.5-3.66Z" style="fill:#e1771e"/><path d="M165.74 111.93c-.33 0-.66-.07-.96-.21-.59-.27-14.54-6.69-22.75-12.76-9.4-6.94-17.84-16.51-18.2-16.91-.49-.56-.68-1.31-.52-2.03.16-.72.66-1.32 1.34-1.61l8.5-3.66c.9-.39 1.94-.17 2.61.55.08.09 8.47 9.1 14.22 13 5.95 4.04 18.11 12.02 18.23 12.1.76.5 1.16 1.4 1.01 2.31l-1.2 7.3a2.306 2.306 0 0 1-2.27 1.93Zm-36.27-30.57c3.08 3.26 9.05 9.27 15.3 13.89 5.72 4.22 14.7 8.79 19.19 10.97l.46-2.79c-3.28-2.16-12.19-8.03-17.03-11.31-4.93-3.35-11.32-9.82-13.89-12.49l-4.03 1.74Z"/><path d="M114.21 175.98s-3.88 9.78-10.9 19.47c-9.7 13.39-20.63 18.28-20.63 18.28s-11.62 3.35-14.61-8.48c-1.23-4.86 3.75-8.89 6.05-15.82 2.42-7.3 3.61-18.24 3.61-18.24s3.66 6.07 13.38 6.05c9.73-.02 23.1-1.26 23.1-1.26Z" style="fill:#6d4974"/><path d="M79.08 216.48c-2.07 0-4.63-.37-7.02-1.74-3.1-1.78-5.19-4.78-6.24-8.91-.97-3.85.89-7.06 2.86-10.46 1.18-2.03 2.4-4.14 3.23-6.65 2.31-6.98 3.5-17.66 3.51-17.77.11-.99.83-1.79 1.8-2.01.96-.21 1.96.21 2.48 1.06.12.18 3.21 4.93 11.36 4.93h.04c9.51-.02 22.75-1.24 22.89-1.25.79-.08 1.58.27 2.06.92.48.64.59 1.49.3 2.24-.16.41-4.07 10.16-11.18 19.98-9.95 13.73-21.09 18.82-21.56 19.03-.1.04-.2.08-.3.11-.13.04-1.87.52-4.23.52Zm.32-40.39c-.59 3.93-1.62 9.61-3.09 14.08-.98 2.96-2.38 5.38-3.62 7.51-1.85 3.18-2.87 5.08-2.38 7.01.72 2.86 2.08 4.89 4.03 6.02 3.02 1.75 6.75 1.03 7.55.84 1.34-.65 10.99-5.63 19.54-17.45 4.26-5.89 7.36-11.86 9.08-15.49-4.72.37-12.82.93-19.39.94h-.05c-5.43 0-9.21-1.72-11.66-3.47Z"/><path d="M123.32 175.36s12.3 15.06 21.93 23.05c14.61 12.13 39.52 6.61 50.45 1.72 15.1-6.75 34.16-22.36 19.39-28-15.82-6.05-38.33-17.55-38.33-17.55s-1.2 6.08-14.56 14.62c-13.36 8.54-38.89 6.16-38.89 6.16Z" style="fill:#6d4974"/><path d="M169.03 208.04c-9.15 0-18.33-2.1-25.26-7.85-9.69-8.04-21.74-22.75-22.24-23.37-.59-.72-.69-1.72-.25-2.55.44-.82 1.31-1.31 2.25-1.21.25.02 24.91 2.2 37.43-5.8 12.04-7.69 13.54-13.13 13.55-13.18.14-.71.6-1.28 1.25-1.6.65-.32 1.41-.28 2.05.05.22.12 22.59 11.52 38.1 17.45 5.5 2.1 6.74 5.44 6.8 7.87.25 9.17-15.86 19.83-26.08 24.39-6.98 3.12-17.28 5.8-27.61 5.8Zm-40.5-30.09c4.3 4.99 11.89 13.45 18.2 18.69 13.04 10.82 36.39 6.6 48.04 1.39 12.36-5.52 23.48-15.08 23.35-20.05-.02-.55-.06-2.24-3.84-3.69-12.87-4.92-30.31-13.51-36.37-16.55-1.61 2.84-5.44 7.65-14.45 13.41-10.15 6.49-26.48 7.01-34.93 6.8Z"/><path d="M120.89 175.36s21.87-4.91 32.8-12.22c10.93-7.32 10.92-12.18 10.92-12.18l1.19-12.16s7.3 1.2 14.6 4.83c5.44 2.71 8.53 9.71 8.53 9.71s6.11 13.36-23.06 20.71c-29.16 7.35-44.98 1.31-44.98 1.31Z" style="fill:#6d4974"/><path d="M138.61 180.02c-11.78 0-18.12-2.34-18.54-2.5-.95-.36-1.55-1.31-1.48-2.32s.8-1.86 1.8-2.09c.21-.05 21.58-4.9 32.02-11.89 8.74-5.85 9.78-9.79 9.89-10.32 0-.07 0-.04.02-.17l1.19-12.16c.06-.64.39-1.22.89-1.61.51-.39 1.15-.55 1.78-.45.31.05 7.73 1.3 15.25 5.04 6.12 3.04 9.47 10.53 9.61 10.84.07.14 1.9 4.28-.55 9.38-3.06 6.37-11.15 11.25-24.05 14.5-11.26 2.84-20.57 3.73-27.83 3.73Zm-7.39-5.01c7.37.72 18.88.63 34.08-3.2 14.34-3.61 19.34-8.53 21.02-12.02 1.5-3.13.51-5.47.5-5.49-.04-.09-2.85-6.31-7.46-8.6-4.41-2.2-8.87-3.47-11.52-4.11l-.93 9.52c-.06 1.33-1.05 6.66-11.94 13.95-6.45 4.32-16.36 7.77-23.76 9.96Zm-10.33.34Zm41.41-24.4Z"/><path d="M115.42 175.98s-20.66 4.9-35.27-7.22c-5.83-4.84-12.93-13.08-13.41-20.64 0 0-4.24 1.8-6.06 7.31-3.62 10.95 1.97 18.02 10.99 21.86 17.03 7.26 43.76-1.3 43.76-1.3Z" style="fill:#6d4974"/><path d="M88.56 182.53c-6.12 0-12.38-.81-17.8-3.12-11.39-4.86-15.86-13.86-12.27-24.71 2.13-6.42 7.14-8.62 7.35-8.71.69-.29 1.48-.23 2.12.16.64.39 1.05 1.07 1.09 1.82.43 6.67 7.05 14.41 12.58 19.01 13.52 11.22 33.07 6.8 33.26 6.75 1.2-.28 2.42.44 2.76 1.63.33 1.19-.34 2.44-1.52 2.82-.78.25-13.79 4.35-27.57 4.35Zm-23.4-30.35c-.84.92-1.71 2.21-2.29 3.97-2.86 8.65.4 15.05 9.7 19.01 6.03 2.57 13.45 3.02 20.37 2.58-4.81-1.27-9.78-3.49-14.26-7.21-5.5-4.57-11.46-11.45-13.52-18.36Z"/><path d="m111.15 172.59-14.35-5.06c-2.71-.96-5.49 1.24-5.48 4.34l.02 8.72c0 2.93 2.52 5.09 5.15 4.42l14.34-3.66c1.89-.48 3.23-2.32 3.23-4.44 0-1.97-1.17-3.71-2.9-4.32Z" style="fill:#e1771e"/><path d="M95.52 187.44a6.28 6.28 0 0 1-3.84-1.33c-1.68-1.3-2.65-3.31-2.65-5.52l-.02-8.72c0-2.29 1.07-4.43 2.87-5.71 1.68-1.19 3.76-1.49 5.68-.81l14.35 5.06c2.65.93 4.43 3.54 4.44 6.49 0 3.18-2.03 5.93-4.96 6.68l-14.34 3.66c-.51.13-1.02.19-1.54.19Zm-.02-17.83c-.4 0-.72.16-.94.32-.58.41-.93 1.13-.93 1.93l.02 8.72c0 .76.32 1.46.86 1.87.3.23.78.47 1.4.31l14.34-3.66c.86-.22 1.49-1.14 1.49-2.19 0-.98-.56-1.86-1.35-2.14l-14.35-5.06c-.19-.07-.37-.09-.53-.09Z"/><path style="fill:#e1771e" d="m109.95 176.19-6.09.02"/><path d="M103.86 178.52c-1.27 0-2.31-1.03-2.31-2.31s1.03-2.31 2.3-2.32h6.09v-.01c1.27 0 2.31 1.03 2.31 2.31s-1.03 2.31-2.3 2.32h-6.09v.01Z"/><path d="m120.95 172.57 14.33-5.12c2.71-.97 5.49 1.22 5.5 4.31l.02 8.72c0 2.93-2.5 5.1-5.13 4.44l-14.35-3.61c-1.9-.48-3.24-2.31-3.25-4.42 0-1.97 1.16-3.72 2.88-4.33Z" style="fill:#e1771e"/><path d="M136.62 187.36c-.5 0-1.01-.06-1.51-.19l-14.35-3.61c-2.93-.74-4.99-3.47-4.99-6.66 0-2.95 1.77-5.56 4.41-6.51l14.33-5.12c1.93-.69 4-.4 5.69.79 1.81 1.27 2.89 3.4 2.9 5.69l.02 8.72c0 2.2-.95 4.22-2.63 5.53a6.275 6.275 0 0 1-3.86 1.35Zm-14.89-12.61c-.79.28-1.35 1.17-1.35 2.15 0 1.05.63 1.97 1.5 2.19l14.35 3.61c.62.15 1.11-.09 1.4-.32.54-.42.86-1.12.86-1.88l-.02-8.72c0-.8-.35-1.52-.93-1.93-.32-.22-.84-.44-1.48-.22l-14.33 5.12Z"/><path style="fill:#e1771e" d="m122.16 176.17 6.09-.01"/><path d="M122.16 178.48c-1.27 0-2.31-1.03-2.31-2.31s1.03-2.31 2.3-2.32h6.09v-.01c1.27 0 2.31 1.03 2.31 2.31s-1.03 2.31-2.3 2.32h-6.09v.01Z"/><circle cx="116.03" cy="176.59" r="4.86" style="fill:#e1771e"/><path d="M116.03 183.76c-3.95 0-7.17-3.21-7.17-7.16 0-1.92.74-3.72 2.09-5.08a7.093 7.093 0 0 1 5.07-2.11h.02c1.91 0 3.71.74 5.06 2.09a7.093 7.093 0 0 1 2.11 5.07c0 3.95-3.2 7.18-7.16 7.19h-.01Zm0-9.73c-.68 0-1.32.27-1.8.75s-.75 1.13-.74 1.81c0 1.41 1.15 2.55 2.55 2.55 1.41 0 2.55-1.15 2.55-2.56 0-.68-.27-1.32-.75-1.8s-1.12-.74-1.8-.74Z"/></svg>