<svg xmlns="http://www.w3.org/2000/svg" viewBox="0 0 60 60" style="enable-background:new 0 0 60 60" xml:space="preserve"><path d="M39 38.7h0c-1.3.2-2.7 0-4-.5l-1.2-.5-2.6-1.2c-.3-.2-.7-.2-1.1-.2h-.5c-.4 0-.7.1-1.1.2l-2.6 1.2-.9.5c-1.2.5-2.6.7-4 .5h0" style="fill:none;stroke:#000;stroke-width:2.54;stroke-linecap:round;stroke-linejoin:round"/><path d="M34.5 29.5c-.4-.5-1.6-1.5-4.8-1.6h-.2c-3.1 0-4.3 1-4.8 1.6-.2.2-.2.6 0 .9.5.8 2.6 2 3.9 2.6.6.3 1.4.3 2 0 1.3-.6 3.4-1.7 3.9-2.6.2-.3.2-.7 0-.9z" style="fill:#c77c72"/></svg>