<svg xmlns="http://www.w3.org/2000/svg" viewBox="0 0 64 64"><path d="M46.67 20.77c-3.51-1.59-6.38 1.28-6.38 1.28a4.493 4.493 0 0 0-3.19-2.55 7.15 7.15 0 0 0-4.46 1.28h-1.28a7.187 7.187 0 0 0-4.46-1.28 4.513 4.513 0 0 0-3.19 2.55s-2.87-2.87-6.38-1.27c-5.34 2.42-5.11 10.2-3.51 16.26 1.75 6.66 4.14 11.8 7.97 11.8.69.03 1.38-.19 1.91-.64.9 1.2 2.32 1.91 3.83 1.91 1.39.07 2.75-.39 3.83-1.28h1.28a5.61 5.61 0 0 0 3.83 1.28c1.51 0 2.92-.71 3.83-1.91.54.44 1.22.67 1.91.64 3.83 0 6.22-5.14 7.97-11.8 1.59-6.06 1.83-13.84-3.51-16.26" style="fill:#e1771e"/><path d="M39.39 33.31h-3.97c-.42 0-.75-.34-.75-.75 0-.13.04-.27.1-.38l1.99-3.38c.21-.36.67-.48 1.03-.27.11.07.2.16.27.27l1.99 3.38a.752.752 0 0 1-.65 1.13m1.75 2.54c-1.14.52-2.31.96-3.51 1.33v2.53h-2.36v-2c-2.37.37-4.79.37-7.16 0v2.01h-2.36v-2.53c-1.2-.36-2.37-.81-3.51-1.33-.79-.32-.65 2.5 1.73 4.88.91.89 1.98 1.6 3.16 2.07v-.97h2.36v1.67c.72.14 1.46.22 2.2.22.74 0 1.48-.08 2.2-.22v-1.67h2.36v.97a9.782 9.782 0 0 0 3.16-2.07c2.38-2.38 2.52-5.19 1.73-4.88M27.3 33.33h-3.97c-.42 0-.75-.34-.75-.75 0-.13.04-.27.1-.38l1.99-3.38c.21-.36.67-.48 1.03-.27.11.07.2.16.27.27l1.99 3.38a.752.752 0 0 1-.65 1.13m19.87-13.59c-2.79-1.27-5.21-.23-6.55.64a5.649 5.649 0 0 0-3.26-1.99c-.06-.01-.12-.02-.17-.02-1.54-.08-3.07.3-4.42 1.04-.12-.63-.5-3.02.36-4.73a1.214 1.214 0 1 0-2.17-1.09c-.92 1.83-.87 4.01-.72 5.34a8.316 8.316 0 0 0-3.38-.55.88.88 0 0 0-.17.02c-1.29.27-2.44.98-3.25 1.99-1.34-.87-3.76-1.91-6.55-.64-7.28 3.31-5.01 14.31-4.14 17.6 1.43 5.43 3.93 12.66 9.03 12.66.6.03 1.2-.08 1.75-.32 1.09 1.01 2.53 1.59 3.99 1.59 1.54.07 3.04-.38 4.27-1.27h.49c1.15.83 2.53 1.28 3.91 1.28h.31c1.5 0 2.95-.58 4.04-1.59a3.8 3.8 0 0 0 1.69.32c5.16 0 7.66-7.22 9.08-12.66.87-3.29 3.13-14.3-4.14-17.6Zm1.92 17.02c-1.91 7.26-4.22 10.94-6.92 10.94-.4.01-.81-.11-1.13-.38-.24-.2-.55-.29-.87-.25-.31.04-.59.2-.78.45-.68.91-1.77 1.45-2.96 1.46-1.11.04-2.19-.31-3.04-1.01-.21-.17-.47-.26-.73-.26h-1.28c-.27 0-.53.09-.73.26-.85.71-1.93 1.07-3.09 1.01-1.14 0-2.22-.54-2.91-1.45-.19-.25-.47-.42-.78-.45-.31-.04-.63.05-.87.25-.32.26-.73.4-1.18.37-2.68 0-4.92-3.58-6.86-10.94-1.55-5.88-1.61-12.89 2.87-14.92 2.72-1.23 5 .95 5.09 1.04.27.27.65.39 1.02.32s.69-.31.84-.66c.43-.95 1.28-1.64 2.29-1.88 1.29-.06 2.59.33 3.66 1.07.19.13.42.21.66.21h1.28c.24 0 .46-.07.66-.21A5.979 5.979 0 0 1 37 20.66c1.01.24 1.86.93 2.29 1.88.16.34.47.59.84.66.37.07.75-.05 1.02-.32.02-.02 2.34-2.29 5.09-1.04 4.48 2.03 4.42 9.04 2.87 14.92Z"/></svg>