<svg xmlns="http://www.w3.org/2000/svg" viewBox="0 0 280 280" style="enable-background:new 0 0 280 280" xml:space="preserve"><path d="M234.7 76.1c-13 0-8.1 29-12.9 65.1-3 22.6-9.4 40.1-12.4 47.4-2.4-4.3-5.6-8.9-9.8-13.7-13.5-15.7-28.9-24.4-42-26-11.3-1.7-28-8-33-11-2.9-1.7-7.6-6-11-9.1-.1-.4-.1-.9-.1-1.4 0-7 4-7.2 4.1-16.6.1-7.4-.4-13.9-6.4-21.5 1-3.6 6.9-25.1 2.9-27.5-3.8-2.2-19 9.9-23 13.2-4.7-1.2-9.2-1.2-14.2-1.2h-.7c-5.3 0-10.2-.1-15.2 1.4-3.6-3-19.4-15.6-23.2-13.4-4.4 2.6 3 28 3 28s.7-.5 1.7-1.2c-6.8 9.3-7.2 19.8-4.3 27 3.4 8.7 11.8 18.4 14.5 22-1 5.1-6.6 35.9-3.9 48.3 3 13.5 4.9 19.2 13.6 34 7.9 13.5 3.6 23.5 3.6 23.5s-3.8 5.6-1.8 10.5c2 4.9 5.8 5.6 11.5 4.7 5.2-.8 12.3-3.7 12.3-3.7s3.2 6.5 13.8 5c7.6-1.1 9.9-5.8 10-11 0-1.3-1.7-7.5-2-10 .3.5 20.3 5.8 30.3 6 1.5 0-1.8 9.2.9 11.5 2.7 2.3 1.6 3.2 8.7 2.9 7.2-.2 21.8 3.7 28.6.9s30.3-10.1 34.3-26.3c.5-2.2 1.1-4.3 1.5-6.4.4.2.8.4 1.3.5 0 0 17.3-14.5 24.5-67.7 5.1-38.2 9.9-84.2-5.2-84.2z" style="fill:#fff"/><path d="M245.6 90.1c-.1-1-1-1.8-2.1-1.7-1 .1-1.8 1.1-1.7 2.1.5 4.1.3 7.7.1 10.2-.1.9-.1 1.7-.1 2.3v2.3c-.2 11.4-.5 32.8-3.8 52.5-4.2 25.2-12.7 46.5-14.4 50.5-2.4 5.8-4.4 9.5-6.2 12-.6-6.6-2.5-11.9-2.6-12.3-.4-1-1.4-1.5-2.4-1.1s-1.5 1.4-1.1 2.4c.1.2 6.2 17.6-.6 27.5-6.9 10.1-24.1 20-32.3 20.3-5.6.2-9 .1-12.6.1-1.8 0-3.7-.1-6-.1h-.2c-3 0-12.8-.1-16.5-1.4-2-.7-2.5-1.6-2.5-5 0-3.8 14.7-8.3 28.4-10.1 1-.1 1.8-1.1 1.6-2.1-.1-1-1.1-1.8-2.1-1.6-7.4 1-31.6 4.9-31.6 13.9 0 2.6 0 6.9 5.1 8.6 4.2 1.4 13.7 1.6 17.7 1.6h.2c2.2 0 4.1 0 5.9.1 1.8 0 3.5.1 5.5.1s4.4 0 7.3-.1c9.2-.3 27.7-10.7 35.3-22 2.6-3.8 3.6-8.4 3.8-12.9 2.9-3 5.7-7.1 9.5-16.3 1.7-4.1 10.4-25.8 14.7-51.4 3.4-20.1 3.7-41.6 3.9-53.1v-2.3c0-.6.1-1.3.1-2.1-.1-2.6.2-6.5-.3-10.9zM90.7 211.8c1 0 1.8-.8 1.9-1.8 0-1-.8-1.9-1.8-2 0 0-4.3-.3-10-3.6-5.6-3.3-8.5-9.6-8.5-9.7-.4-1-1.5-1.4-2.5-1s-1.4 1.5-1 2.5c.1.3 3.3 7.6 10.1 11.5 6.6 3.8 11.5 4.1 11.8 4.1-.1 0-.1 0 0 0z"/><path d="M139.4 243.4c0-1-.9-1.9-1.9-1.9-.1 0-5.9 0-10.6-1-5.7-1.1-10.7-2.9-10.7-2.9-1-.3-2.1.2-2.4 1.1s.2 2.1 1.1 2.4c.2.1 5.2 1.9 11.3 3.1 5.1 1 11.1 1 11.4 1 1 .1 1.8-.8 1.8-1.8zM60.6 77.3c.1 0 5.4-3.3 14.6-3.3 9.5 0 18.3 3.5 18.4 3.5.2.1.5.1.7.1.8 0 1.5-.5 1.8-1.2.4-1-.1-2.1-1.1-2.5-.4-.2-9.6-3.8-19.8-3.8-10.5 0-16.4 3.8-16.7 3.9-.9.6-1.1 1.7-.6 2.6.6 1 1.8 1.3 2.7.7zm-21 9.4c.4 0 .7-.1 1.1-.3.9-.6 1.1-1.8.5-2.6-1.7-2.6-4.1-17.2-3-20h.1c2.8 0 13.8 5.9 16 8.7.6.8 1.8 1 2.7.3.8-.6 1-1.8.3-2.7C55 67.3 41 58.3 36.4 60.3c-.9.4-1.5 1.2-1.9 2.5-1.5 5.1 1.4 19.9 3.5 23.1.4.5 1 .8 1.6.8zm55.1-13.9c.8.6 2 .5 2.7-.3 2.2-2.8 13.5-8.8 16-8.7 1.2 2.8-1.3 17.5-3 20-.6.9-.3 2.1.5 2.6.3.2.7.3 1.1.3.6 0 1.2-.3 1.6-.8 2.1-3.2 5-18 3.5-23.1-.4-1.3-1-2.1-1.9-2.5-4.6-2.1-18.6 7-20.8 9.8-.6.9-.5 2.1.3 2.7zm-8 175.7c.1 0 .1 0 0 0 1.1 0 1.9-.8 1.9-1.9 0-.1.2-9.2-.1-19.6-.3-8.5-1.5-10.5-2.6-11.3-.6-.4-1.3-.5-2-.3-1 .3-1.5 1.4-1.2 2.4.2.5.5.9.9 1.1.2.6.8 2.6 1 8.2.3 10.2.1 19.3.1 19.3.2 1.2 1 2 2 2.1zm-4.6 5.4c-.1.1-2.8 2.3-8.7 2.3-3.5 0-7.7-1-7.7-5.7 0-2.2.5-2.9 1.4-3.9 1.1-1.3 2.4-3 2.4-7V238c0-5.3-.1-5.9-2.6-12.8-.9-2.4-2.2-4.8-3.7-7.5-3.4-6.2-8.1-14.7-12.9-31.9-5-17.7 3-43.2 3.1-43.4.3-1-.2-2.1-1.2-2.4-1-.3-2.1.2-2.4 1.2-.3 1.1-8.4 26.8-3.1 45.6 4.9 17.5 9.7 26.3 13.2 32.7 1.5 2.7 2.7 4.9 3.5 7 2.4 6.4 2.4 6.6 2.4 11.5v1.6c0 2.7-.7 3.5-1.6 4.6-1 1.2-2.3 2.8-2.3 6.4.1 6 4.3 9.5 11.4 9.5h.1c7.5 0 11-3.2 11.2-3.3.8-.7.8-1.9.2-2.7-.7-.8-1.9-.9-2.7-.2zm30.2-36.8c-1-.3-2.1.2-2.4 1.2-1.4 4.3-4.1 21.4-2.6 25.3.1.4.3.8.5 1.2 1.4 3.4 2.2 6.1.1 8.9-2.3 3.1-6.7 4.6-11.8 3.9-3.9-.5-6.1-1.9-6.7-2.9-.3-.4-.3-.8-.2-1 .3-1-.4-2.1-1.4-2.3-1-.3-2.1.4-2.3 1.4-.3 1.4-.1 2.8.8 4 1.5 2.3 4.9 3.9 9.4 4.6 1 .1 2 .2 3 .2 5.2 0 9.7-2 12.3-5.6 3.5-4.7 1.6-9.4.3-12.6-.2-.4-.3-.7-.4-1.1-.8-2.2 1-17.7 2.7-22.7.2-1.1-.3-2.2-1.3-2.5zm-63-79.7c.4.6 1 .9 1.6.9.3 0 .7-.1 1-.3.9-.5 1.2-1.7.7-2.6-1-1.6-2.4-3.3-4-5.2-4.5-5.2-10-11.8-10-21.4 0-9.4 3.8-18.1 3.8-18.2.4-1 0-2.1-1-2.5s-2.1 0-2.5 1c-.2.4-4.2 9.5-4.2 19.8 0 11 6.3 18.4 10.9 23.8 1.6 1.8 2.9 3.3 3.7 4.7zm69.5-28.6c0-10.3-4-19.4-4.2-19.8-.4-1-1.5-1.4-2.5-1s-1.4 1.5-1 2.5c0 .1 3.8 8.8 3.8 18.2 0 3.9-.9 7.7-2.9 11.4-1.5 2.9-1.6 6.3-.3 9.3 0 .1.1.2.1.3 7.1 11.3 21.2 14.9 36.1 18.8 11.5 3 23.5 6 33.4 12.8 27.1 18.4 27.4 36.1 27.4 36.3 0 1 .8 1.9 1.9 1.9 1 0 1.9-.8 1.9-1.9 0-.4 0-4.6-2.9-10.9 0 0 .1 0 .1.1.3.1.5.2.8.2.7 0 1.4-.4 1.7-1.1 4.8-10.5 8.2-26.7 12.1-49.5 2.4-13.7 2.5-25.7 2.6-35.4.2-14.2.5-21.7 5.7-23 1.4-.3 2.6.2 3.5.7 1.9 1.2 3.4 3.4 3.8 5.5.2 1 1.2 1.7 2.2 1.5s1.7-1.2 1.5-2.2c-.6-3.1-2.8-6.3-5.5-8-2.1-1.3-4.3-1.7-6.4-1.2-8.3 2.1-8.4 11.8-8.6 26.6-.1 9.5-.3 21.4-2.6 34.8-3.9 22.4-7.2 38.4-11.9 48.5-.1.1-.1.3-.1.4-3.7-7.3-11-16.8-25.3-26.6-10.5-7.1-22.8-10.3-34.6-13.3-14.1-3.6-27.4-7.1-33.8-17-.8-2-.7-4.1.2-6 2.7-4 3.8-8.3 3.8-12.9z"/></svg>