<svg xmlns="http://www.w3.org/2000/svg" viewBox="0 0 280 280"><path d="M220.77 173c-17.86-49.21-67.12-38.73-73.2-46.02-3.93-4.72-5.98-7.46-1.22-20.67 4.15-11.5 2.12-24.34 1.22-26.74-1.76-4.67 1.22-6.08 4.86-17.02 3.75-11.24 5.1-30.86-1.22-34.04-8.46-4.27-28.6 22.28-32.82 25.67-6.3-2.26-11.3-2.57-18.26-2.57-6.65 0-10.37.44-16.27 2.57-4.72-3.77-24.04-28.64-32.34-24.46-6.9 3.48-4.86 20.68-1.22 31.61 2.43 7.29 7.48 12.31 6.17 15.65-2.49 6.37-3.66 17.15-1.19 24 4.76 13.2 9.19 18.31 12.04 24.77 4.61 10.47-2.51 29.26-3.7 49.64-1.19 20.4 9.44 65.92 15.48 72.01 6.04 6.09 6.94-3.64 21.43-1.2 14.49 2.44 12.89 7.2 27.38 7.2s8.18-11.98 19.05-13.2c10.87-1.22 14.06 7.2 29.76 7.2s12.05-12.76 23.81-13.2 11.9 18 28.57 7.2c7.75-5.02 3.88-34.76-8.33-68.41ZM73.18 90.79c0-8.29 4.8-15 10.71-15s10.71 6.72 10.71 15-4.8 15-10.71 15-10.71-6.72-10.71-15Zm46.4 15c-5.92 0-10.71-6.72-10.71-15s4.8-15 10.71-15 10.71 6.72 10.71 15-4.8 15-10.71 15Z" style="fill:#fff"/><path d="M127.92 255.72c-8.55 0-12.04-1.66-15.74-3.41-2.89-1.37-5.89-2.79-12.03-3.82-6.61-1.11-9.93.51-12.59 1.82-2.79 1.36-5.94 2.91-10.09-1.27-7.04-7.09-17.3-53.98-16.14-73.77.46-7.8 1.78-15.47 2.95-22.23 1.9-10.97 3.54-20.45.94-26.34-.96-2.19-2.12-4.22-3.46-6.58-2.45-4.3-5.49-9.64-8.63-18.35-2.74-7.6-1.42-18.88 1.21-25.63.37-.94-1.04-3.47-2.28-5.71-1.33-2.4-2.85-5.13-3.93-8.37-3.81-11.43-6.32-30.02 2.37-34.4C57.76 24 68.6 34.69 80 46.94c1.74 1.87 3.31 3.55 4.4 4.61 5.69-1.92 9.6-2.26 15.74-2.26 7.08 0 11.93.36 17.7 2.25 1-1.01 2.47-2.64 4.11-4.45 11.73-13.02 22.88-24.4 30.31-20.65 8.35 4.21 6.02 25.88 2.37 36.83-1.4 4.2-2.72 7.07-3.68 9.17-1.63 3.53-1.94 4.35-1.21 6.31 1.02 2.7 3.21 16.1-1.2 28.34-4.39 12.16-2.76 14.12.82 18.4 1.07 1.29 6.38 2.03 11.51 2.75 18.18 2.54 48.6 6.78 62.09 43.97 10.75 29.61 17.65 64.5 7.42 71.14-11.57 7.49-16.87 2.2-21.12-2.05-2.64-2.64-4.93-4.9-8.62-4.78-4.33.16-5.9 2.23-8.09 5.09-2.76 3.61-6.2 8.11-15.81 8.11-8.68 0-13.94-2.5-18.16-4.51-3.78-1.8-6.77-3.21-11.34-2.71-3.71.42-4.6 2.23-5.95 4.97-1.71 3.48-4.05 8.25-13.36 8.25ZM96.04 243.5c1.46 0 3.08.13 4.88.43 6.77 1.14 10.21 2.77 13.24 4.21 3.49 1.65 6.24 2.96 13.76 2.96 6.43 0 7.6-2.38 9.21-5.67 1.49-3.04 3.35-6.82 9.58-7.52 5.88-.66 9.74 1.18 13.84 3.13 4.2 2 8.55 4.06 16.18 4.06s9.56-2.92 12.14-6.3c2.38-3.12 5.08-6.66 11.58-6.9 5.71-.24 9.08 3.15 12.06 6.13 4.16 4.16 6.91 6.91 15.34 1.44 5.68-3.68 3.76-29.84-9.25-65.68-12.55-34.57-41.24-38.58-58.39-40.97-7.35-1.03-12.2-1.7-14.42-4.36-4.41-5.29-6.65-8.96-1.61-22.93 3.86-10.72 2.04-22.98 1.23-25.15-1.44-3.83-.34-6.23 1.33-9.87.97-2.11 2.18-4.73 3.5-8.7 4.08-12.24 4.04-29.18-.06-31.25-4.91-2.46-19.36 13.58-24.8 19.62-2.55 2.83-4.4 4.88-5.54 5.8l-1.01.81-1.22-.44c-5.77-2.07-10.23-2.44-17.48-2.44-6.16 0-9.67.34-15.48 2.44l-1.22.44-1.01-.81c-1.27-1.01-3.17-3.06-5.81-5.89-5.77-6.2-19.29-20.71-24.04-18.31-3.92 1.97-4.9 14.29-.06 28.82.95 2.84 2.35 5.36 3.59 7.59 1.99 3.58 3.7 6.67 2.55 9.63-2.31 5.92-3.41 16.16-1.17 22.38 3.01 8.33 5.82 13.27 8.3 17.63 1.35 2.36 2.62 4.6 3.68 7 3.16 7.17 1.41 17.28-.62 28.99-1.21 6.97-2.45 14.17-2.89 21.71-1.21 20.77 9.63 65.03 14.81 70.25 1.81 1.83 2.15 1.66 4.78.38 2.26-1.11 5.43-2.66 10.51-2.66Zm23.54-135.4c-7.18 0-13.02-7.77-13.02-17.31s5.84-17.31 13.02-17.31 13.02 7.77 13.02 17.31-5.84 17.31-13.02 17.31Zm0-30c-4.56 0-8.4 5.81-8.4 12.69s3.85 12.69 8.4 12.69 8.4-5.81 8.4-12.69-3.85-12.69-8.4-12.69Zm-35.69 30c-7.18 0-13.02-7.77-13.02-17.31s5.84-17.31 13.02-17.31 13.02 7.77 13.02 17.31-5.84 17.31-13.02 17.31Zm0-30c-4.56 0-8.4 5.81-8.4 12.69s3.85 12.69 8.4 12.69 8.4-5.81 8.4-12.69-3.85-12.69-8.4-12.69Z"/><path d="M92.86 188.98s4.86 8.7 4.86 23.1-1.22 19.45-1.22 19.45" style="fill:#fff"/><path d="M96.51 233.84c-.18 0-.36-.02-.54-.06-1.24-.3-2-1.55-1.7-2.79 0-.04 1.15-5.11 1.15-18.91s-4.53-21.89-4.57-21.98a2.312 2.312 0 0 1 4.04-2.25c.21.38 5.16 9.39 5.16 24.23s-1.23 19.77-1.28 19.99a2.304 2.304 0 0 1-2.24 1.77Z"/><path d="M136.63 178.04s-1.22 13.37.66 26.2c1.26 8.64 2.99 23.65 2.99 23.65" style="fill:#fff"/><path d="M140.27 230.19c-1.16 0-2.16-.87-2.29-2.05-.02-.15-1.73-15.07-2.98-23.58-1.89-12.95-.73-26.18-.67-26.74a2.291 2.291 0 0 1 2.51-2.09 2.31 2.31 0 0 1 2.09 2.51c-.01.13-1.17 13.26.65 25.65 1.25 8.58 2.98 23.57 3 23.72.15 1.27-.76 2.41-2.03 2.56-.09.01-.18.02-.27.02Z"/><path d="M193.39 177.8s7.14 13.2 7.14 26.4c0 15.6-1.19 20.4-1.19 20.4" style="fill:#fff"/><path d="M199.35 226.91a2.32 2.32 0 0 1-2.25-2.87c0-.04 1.12-4.91 1.12-19.85 0-12.44-6.8-25.18-6.86-25.31a2.309 2.309 0 1 1 4.06-2.2c.3.56 7.42 13.87 7.42 27.5 0 15.7-1.21 20.75-1.26 20.96a2.305 2.305 0 0 1-2.24 1.75Z"/></svg>