<svg xmlns="http://www.w3.org/2000/svg" viewBox="0 0 280 280"><path d="M96.84 81.04s-1.22-20.67-3.65-25.53 9.73-7.29 21.88-7.29 20.67 4.86 20.67 4.86l-4.86 27.96h9.73v6.08H85.9v-6.08h10.94Z" style="fill:#323232"/><path d="M140.61 89.43H85.9c-1.28 0-2.31-1.03-2.31-2.31v-6.08c0-1.28 1.03-2.31 2.31-2.31h8.48c-.56-7.93-1.79-19.27-3.25-22.19-.79-1.58-.74-3.25.15-4.69 3.41-5.52 19.08-5.95 23.8-5.95 12.63 0 21.44 4.96 21.81 5.17.84.48 1.3 1.44 1.13 2.4l-4.39 25.26h6.98c1.28 0 2.31 1.03 2.31 2.31v6.08c0 1.28-1.03 2.31-2.31 2.31Zm-52.4-4.62h50.09v-1.46h-7.42c-.68 0-1.33-.3-1.77-.82-.44-.52-.62-1.21-.51-1.88l4.57-26.26c-2.81-1.28-9.53-3.86-18.1-3.86-12.34 0-19.38 2.42-19.89 3.79 0 0 .02.06.07.16 2.57 5.14 3.76 24.26 3.89 26.43.04.64-.19 1.26-.63 1.72s-1.04.73-1.68.73H88.2v1.46Z"/><path d="M152.76 127.24s28.03 1.47 21.88 6.08c-4.86 3.65-14.59 17.02-14.59 17.02l-13.37 4.86s1.22-11.58 1.22-17.02c0-6.08 4.86-10.94 4.86-10.94Z" style="fill:#e1771e"/><path d="M146.69 157.51c-.51 0-1.01-.17-1.42-.49-.63-.49-.96-1.27-.87-2.06.01-.12 1.2-11.53 1.2-16.78 0-6.96 5.31-12.35 5.54-12.57.46-.46 1.1-.7 1.75-.67 23.3 1.22 24.44 4.95 24.81 6.18.21.69.47 2.45-1.67 4.05-3.76 2.82-11.46 12.89-14.11 16.53-.27.37-.65.66-1.08.81l-13.37 4.86c-.26.09-.52.14-.79.14Zm7.07-27.9c-1.18 1.43-3.54 4.79-3.54 8.57s-.51 9.69-.87 13.6l9.27-3.37c1.83-2.48 9.03-12.1 13.68-16.15-3.2-1.14-11.27-2.21-18.54-2.65Z"/><path d="M144.25 155.2a400.618 400.618 0 0 1-12.16 18.24l23.1-13.37 20.67-27.96s-25.53 13.37-31.61 23.1Z" style="fill:#323232"/><path d="M132.1 175.74c-.63 0-1.26-.26-1.71-.76-.73-.8-.8-2.01-.17-2.9.06-.08 6.11-8.57 12.08-18.12 6.34-10.14 31.43-23.36 32.49-23.92.95-.5 2.13-.27 2.83.54.7.82.74 2.01.1 2.88l-20.67 27.96c-.19.26-.43.47-.7.63l-23.1 13.37c-.36.21-.76.31-1.16.31Zm35.42-36.24c-7.72 4.66-17.91 11.5-21.3 16.91-2.23 3.56-4.47 6.98-6.41 9.88l13.82-8 13.89-18.79Z"/><path d="M132.1 174.65s13.89 12.15 19.45 21.88c4.86 8.51 13.37 29.18 13.37 29.18s21.88-8.51 32.82-18.24c10.36-9.21 13.37-23.1 13.37-23.1s-17.3-5.43-26.74-10.94c-14.59-8.51-27.96-15.8-27.96-15.8s-5.9 5.49-10.94 8.51c-6.08 3.65-13.37 8.51-13.37 8.51Z" style="fill:#323232"/><path d="M164.92 228.02c-.91 0-1.77-.54-2.14-1.43-.08-.21-8.51-20.63-13.24-28.91-5.3-9.28-18.83-21.17-18.97-21.29-.54-.47-.83-1.17-.78-1.89.05-.72.43-1.37 1.02-1.77.07-.05 7.41-4.94 13.47-8.57 4.77-2.86 10.5-8.17 10.56-8.22.73-.68 1.81-.81 2.68-.34.13.07 13.57 7.41 28.02 15.84 9.11 5.31 26.1 10.68 26.27 10.73 1.14.36 1.82 1.53 1.57 2.69-.13.6-3.3 14.74-14.1 24.33-11.12 9.89-32.61 18.31-33.52 18.66-.27.11-.56.16-.84.16Zm-29.06-53.08c4.23 3.92 13.32 12.79 17.7 20.45 4.01 7.01 10.3 21.78 12.62 27.32 5.67-2.37 21.48-9.35 30.04-16.96 7.42-6.59 10.87-15.83 12.1-19.85-4.96-1.64-17.42-5.98-25.1-10.46-11.65-6.8-22.63-12.88-26.47-14.98-2.04 1.81-6.26 5.38-10.08 7.68-3.81 2.29-8.15 5.09-10.8 6.82Z"/><path d="M99.27 168.57s-.53 17.82-2.43 27.96c-3.65 19.45-6.08 35.25-6.08 35.25l-21.88-8.51 14.59-32.82c4.86-10.94 4.86-19.45 4.86-19.45l10.94-2.43Z" style="fill:#323232"/><path d="M90.76 234.09c-.28 0-.57-.05-.84-.16l-21.88-8.51c-.59-.23-1.06-.69-1.3-1.27-.24-.58-.23-1.24.02-1.82l14.59-32.82c4.58-10.31 4.66-18.44 4.66-18.52 0-1.08.76-2.02 1.81-2.25l10.94-2.43c.7-.15 1.42.02 1.97.47.55.45.86 1.14.84 1.85-.02.73-.56 18.12-2.47 28.32-3.6 19.19-6.04 35.02-6.07 35.18a2.318 2.318 0 0 1-2.29 1.96Zm-18.79-12.1 16.95 6.59c.87-5.42 2.93-18.01 5.64-32.49 1.39-7.39 2.04-19.16 2.28-24.63l-6.3 1.4c-.27 3.2-1.26 10.17-4.96 18.51l-13.6 30.61Z"/><path d="M87.12 140.61s5.67 6.24 7.29 9.73c8.51 18.24 3.65 38.9 3.65 38.9s-6.97-15.23-12.16-24.31c-4.86-8.51-14.59-14.59-14.59-14.59l15.8-9.73Z" style="fill:#e1771e"/><path d="M98.06 191.55c-.9 0-1.72-.52-2.1-1.35-.07-.15-6.98-15.24-12.06-24.13-4.51-7.89-13.72-13.72-13.81-13.78a2.284 2.284 0 0 1-1.08-1.97c0-.8.42-1.54 1.1-1.96l15.8-9.73c.95-.58 2.17-.41 2.92.41.6.67 5.95 6.61 7.68 10.3 8.75 18.75 4.01 39.53 3.8 40.41-.23.96-1.04 1.67-2.02 1.77-.08 0-.15.01-.23.01Zm-22.54-41.09c3.42 2.57 8.98 7.34 12.39 13.32 2.96 5.19 6.45 12.25 8.95 17.47.62-7.41.47-19.19-4.54-29.93-.96-2.05-3.76-5.52-5.65-7.72l-11.15 6.86Z"/><path d="M102.61 190.78c-.39 0-.78-.04-1.17-.11-1.38-.27-3.29-1.18-4.52-4.02-1.12-2.58-.43-4.5.35-5.66 3.54-5.29 16.95-5.33 19.61-5.28.95.02 1.79.61 2.12 1.5.33.89.08 1.89-.62 2.53-.61.55-1.36 1.28-2.19 2.11-4.95 4.88-9.42 8.94-13.58 8.94Zm8.27-10.21c-4.61.45-8.76 1.49-9.77 2.99-.11.16-.3.45.05 1.26.34.79.73 1.24 1.16 1.32 1.93.38 5.73-2.88 8.56-5.57Z"/><path d="M132.33 190.78c-4.16 0-8.63-4.05-13.58-8.94-.84-.83-1.58-1.56-2.19-2.11-.71-.64-.95-1.64-.62-2.53a2.29 2.29 0 0 1 2.12-1.5c2.65-.04 16.07 0 19.61 5.28.78 1.16 1.47 3.09.35 5.66-1.23 2.84-3.13 3.75-4.52 4.02-.39.07-.78.11-1.17.11Zm-8.27-10.21c2.83 2.68 6.63 5.94 8.56 5.57.42-.08.81-.53 1.16-1.32.35-.81.15-1.1.05-1.26-1-1.5-5.16-2.54-9.77-2.99Z"/><path d="M106.57 206.13c-.51 0-1.02-.17-1.44-.51-1-.8-1.16-2.25-.36-3.25.05-.06 4.68-5.9 6.95-11.57 1.68-4.21 1.88-10.84 1.89-10.9.04-1.28 1.11-2.32 2.37-2.24 1.28.03 2.28 1.09 2.25 2.37 0 .31-.22 7.52-2.22 12.5-2.53 6.32-7.43 12.48-7.63 12.74-.46.57-1.13.87-1.81.87Z"/><path d="M126.86 206.13c-.68 0-1.35-.3-1.81-.87-.21-.26-5.11-6.42-7.63-12.74-1.99-4.98-2.21-12.19-2.22-12.5-.03-1.28.97-2.34 2.25-2.37 1.28-.07 2.34.97 2.37 2.24 0 .07.2 6.7 1.89 10.9 2.27 5.68 6.91 11.51 6.95 11.57a2.316 2.316 0 0 1-1.8 3.76Z"/><path d="M114.4 181.95c-5.75 0-14.61-2.34-15.73-2.64a2.312 2.312 0 0 1-1.63-2.83c.33-1.23 1.6-1.96 2.83-1.63 3.23.87 12.4 2.99 16.04 2.38 7.06-1.18 19.05-4.76 19.17-4.8 1.22-.36 2.51.33 2.88 1.55s-.33 2.51-1.55 2.88c-.5.15-12.38 3.7-19.73 4.93-.67.11-1.44.16-2.27.16Z"/><path style="fill:#e1771e" d="M94.41 81.04h38.9l-.6-7.29H94.7l-.29 7.29z"/><path d="M133.31 83.35h-38.9c-.63 0-1.23-.26-1.67-.71-.44-.45-.67-1.06-.64-1.69l.29-7.29a2.313 2.313 0 0 1 2.31-2.22h38.01c1.2 0 2.2.92 2.3 2.12l.61 7.29c.05.64-.17 1.28-.6 1.76-.44.48-1.05.75-1.7.75Zm-36.5-4.62h33.99l-.22-2.67H96.92l-.11 2.67Z"/></svg>