<svg xmlns="http://www.w3.org/2000/svg" viewBox="0 0 50 50" style="enable-background:new 0 0 50 50" xml:space="preserve"><path d="M18.5 36.6c-3.2 0-5.8-2.5-5.8-5.7 0-2 1.1-3.9 2.9-4.9.1 0 .1-.1.2-.2l5.5-4.2c1.1-.6 1.8-1.7 1.8-3l.2-3.4h11.4v9.1c0 1.9-1.1 3.6-2.7 4.5h-.1L21 36.1c-.8.3-1.6.5-2.5.5" style="fill:#fff"/><path d="m22.2 14.2-.2 4.4c0 .9-.5 1.7-1.3 2.1l-5.8 4.5c-.9.6-1.7 1.4-2.3 2.3-.6 1-.9 2.2-.9 3.4 0 3.8 3.1 6.8 6.9 6.7.9 0 1.7-.2 2.5-.5v.1l11.4-7.5c2-1.1 3.3-3.2 3.3-5.5v-10H22.2zm9.2 13.7c-.1 0-.1.1-.1.1l-10.8 7.1c-.6.3-1.3.4-2 .4-2.6 0-4.7-2-4.8-4.6 0-1.6.9-3.2 2.3-4 .1-.1.3-.2.4-.3l5.3-4.1c1.4-.8 2.3-2.2 2.3-3.8l.1-2.4h2.1v3.3h.9v-3.3H30v3.3h.9v-3.3h2.7v8c0 1.5-.9 2.9-2.2 3.6z"/></svg>