<svg version="1.1" id="レイヤー_1" xmlns="http://www.w3.org/2000/svg" xmlns:xlink="http://www.w3.org/1999/xlink" x="0" y="0" viewBox="0 0 64 64" style="enable-background:new 0 0 64 64" xml:space="preserve"><style>.st0{fill:#fff}.st0,.st1{clip-path:url(#SVGID_00000114786553426055552940000004163464426428146312_)}.st2{clip-path:url(#SVGID_00000052794824335026659180000009340408692882480815_)}</style><defs><path id="SVGID_1_" d="M0 0h64v64H0z"/></defs><clipPath id="SVGID_00000121264739191433016820000016715432006368143784_"><use xlink:href="#SVGID_1_" style="overflow:visible"/></clipPath><path id="パス_5099" style="clip-path:url(#SVGID_00000121264739191433016820000016715432006368143784_);fill:#fff" d="M21.4 68.8S17.3 40 28.8 25.9c7.8-9.5 17.7-11.7 19.9-6.5 2.4 5.7-6.7 4.9-12.5 12.3C29.1 41 32 64.5 33.8 68"/><path id="パス_5100" style="clip-path:url(#SVGID_00000121264739191433016820000016715432006368143784_)" d="M21.4 70.1c-.6 0-1.1-.5-1.2-1.1-.7-5.4-.9-10.9-.6-16.4.2-4.8.9-9.6 2-14.3 1.1-4.8 3.3-9.2 6.3-13.1 2.5-3.1 5.5-5.7 9-7.6 2.5-1.5 5.5-2.2 8.4-2 2 .2 3.8 1.5 4.6 3.4.4.8.5 1.8.4 2.7-.1.8-.5 1.6-1 2.2-1.2 1.1-2.6 2.1-4.1 2.7-3.1 1.4-5.8 3.4-7.9 6-1.8 2.6-3 5.5-3.4 8.6-.7 3.6-1 7.3-.9 10.9.1 7.8 1.3 14.1 2 15.4.3.6.1 1.4-.5 1.7-.6.3-1.4.1-1.7-.5-.8-2-1.3-4.1-1.5-6.2-.5-3.4-.7-6.9-.8-10.3-.1-3.8.3-7.7 1-11.5.6-3.5 1.9-6.7 3.9-9.6 2.4-2.8 5.4-5.1 8.8-6.6 1.2-.5 2.4-1.3 3.4-2.2.4-.4.7-.9.1-2.3-.5-1.1-1.5-1.8-2.7-1.9-2.4-.1-4.8.5-6.8 1.7-3.2 1.8-6 4.2-8.3 7C27 30.3 25 34.5 24 38.9c-1.1 4.5-1.8 9.2-2 13.8-.2 5.3 0 10.7.6 15.9.1.7-.4 1.3-1.1 1.4 0 .1 0 .1-.1.1z"/><g style="clip-path:url(#SVGID_00000121264739191433016820000016715432006368143784_)"><defs><path id="SVGID_00000135651234980936893540000012909977859130023353_" d="M28.8 26c-11.5 14-7.4 42.9-7.4 42.9l12.4-.9c-1.8-3.5-4.7-27 2.5-36.3 5.8-7.4 14.8-6.6 12.5-12.3-.8-1.8-2.5-2.7-4.7-2.7-4.2 0-10.2 3.1-15.3 9.3"/></defs><clipPath id="SVGID_00000080199972955362974190000010256050298526944173_"><use xlink:href="#SVGID_00000135651234980936893540000012909977859130023353_" style="overflow:visible"/></clipPath><g id="グループ_1176" style="clip-path:url(#SVGID_00000080199972955362974190000010256050298526944173_)"><path id="パス_5101" d="M33 61.3c-.6 0-1.2-.2-1.7-.7-1.4-1.2-3.1-1.8-4.9-1.8-1.7 0-3.3.3-4.8.9-1.2.5-2.6 0-3.1-1.2s0-2.6 1.2-3.1c2.1-.9 4.4-1.3 6.7-1.3 3 0 6 1.1 8.2 3.2.9.9.9 2.4 0 3.3-.4.4-1 .7-1.6.7"/><path id="パス_5102" d="M32.8 51.9c-.7 0-1.3-.3-1.8-.8-1.3-1.3-3-2.1-4.8-2.2-1.7-.1-3.3 0-4.9.5-1.2.4-2.5-.2-3-1.5-.4-1.2.2-2.5 1.5-3 2.2-.7 4.5-.9 6.8-.7 3 .3 5.9 1.6 7.9 3.9.8 1 .7 2.5-.3 3.3-.3.3-.8.5-1.4.5"/><path id="パス_5103" d="M33.6 42.2c-.7 0-1.4-.3-1.8-.9-1.2-1.3-2.9-2.2-4.7-2.4-1.6-.2-3.3-.1-4.9.3-1.2.4-2.5-.3-2.9-1.5s.3-2.5 1.5-2.9c2.2-.6 4.5-.8 6.8-.5 3 .4 5.8 1.8 7.8 4.1.8 1 .6 2.5-.4 3.3-.4.3-.9.5-1.4.5"/><path id="パス_5104" d="M37.6 35c-1 0-1.9-.6-2.2-1.6-.7-1.7-2-3-3.7-3.7-1.5-.7-3.1-1.1-4.8-1.2-1.3-.1-2.3-1.2-2.2-2.4.1-1.3 1.1-2.2 2.4-2.2 2.3.1 4.5.7 6.6 1.7 2.7 1.3 4.9 3.6 6.1 6.4.4 1.2-.2 2.6-1.4 3-.3-.1-.6 0-.8 0"/><path id="パス_5105" d="M42.8 28.4s.8-2.5-2.5-5.8C38 20.3 32.8 20 32.8 20s13.4-11.5 17.4-4.9c5 8.4-7.4 13.3-7.4 13.3"/></g></g></svg>