<svg xmlns="http://www.w3.org/2000/svg" viewBox="0 0 60 60" style="enable-background:new 0 0 60 60" xml:space="preserve"><path d="M23.7 26.1s2-2.9 5.6-2.9c4.2 0 6.1 2.9 6.1 2.9" style="fill:none;stroke:#000;stroke-width:2.08;stroke-linecap:round;stroke-linejoin:round"/><path d="M33.6 28.4c-.3-.5-1.4-1.3-4-1.3h-.2c-2.6 0-3.6.9-4 1.3-.2.2-.2.5 0 .7.4.7 2.2 1.6 3.2 2.1.5.2 1.1.2 1.6 0 1.1-.5 2.8-1.5 3.3-2.1.3-.2.2-.5.1-.7z" style="fill:#666"/><path d="M18.5 44.7s1.7.7 3.8-1.1c2.2-1.9 3.5-3.5 4.7-5.6l1.5-2.6c.5-.6 1.5-.6 2 0l1.5 2.5c1.3 2.2 3.3 4.8 4.9 5.8s3.6 1 3.6 1" style="fill:none;stroke:#000;stroke-width:2.54;stroke-linecap:round;stroke-linejoin:round"/></svg>