<svg xmlns="http://www.w3.org/2000/svg" viewBox="0 0 280 280" style="enable-background:new 0 0 280 280" xml:space="preserve"><path d="M226.5 66.1c-13 0-8.1 29-12.9 65.1-2.6 19.6-7.8 35.3-11.1 43.9-2.2-5.6-5.1-12-8.9-19.5-14.1-27.9-44.3-35.4-44.3-35.4-7.8-3.5-20.5-9.1-20.6-9.2-1.2-1-2.5-2.5-2.8-4.7-.8-5.6.9-6.4 1-16.2.1-7.5-.4-13.4-6.1-20.7 1.2-4.8 5.5-22.7 1.7-25-3.7-2.2-15.1 7.8-18.6 11.1-6.2-2.6-11.8-2.5-18.3-2.5h-.7c-6.7 0-12.4 0-18.8 3-2.8-2.6-15.3-13.8-19.1-11.5-4.4 2.6 2 26.2 2 26.2s.8-1 2.2-2.3c-6.8 8.8-6.9 17.3-6.8 25.4.1 9.8 8.5 22 10 24.7s1.5 12.7 1.5 12.7h.1c-1.2 7.3-3.9 25.8-1.6 36.5 3 13.5 9.4 31.2 18.2 46.1 8 13.5 2.5 28.5 2.5 28.5s-3.8 5.6-1.8 10.5 5.9 5.6 11.7 4.7c5.2-.8 5.3-3.1 11.1-3.1s6.7 4.1 17.4 2.6c7.7-1.1 10.8-5.1 10.9-10.3 0-1.1-.8-3.6-1.6-5.8 0 0 3.5-.6 7 4.5.9 1.3-1 4.9 1.6 7.7s1.5 3.9 8.3 3.6c6.8-.3 27.3 3 33.7-.5 6.5-3.5 28.5-14.4 32.3-34.4.3-1.4.5-2.7.7-4 .2 0 .3.1.4.1 0 0 17.3-14.5 24.5-67.7 5.4-38.1 10.3-84.1-4.8-84.1z" style="fill:#fff"/><path d="M237.3 80.1c-.1-1-1-1.8-2.1-1.7-1 .1-1.8 1.1-1.7 2.1.5 4.1.3 7.7.1 10.2-.1.9-.1 1.7-.1 2.3v2.3c-.2 11.4-.5 32.8-3.8 52.5-4.2 25.2-12.7 46.5-14.4 50.5-2.4 5.7-4.3 9.3-6 11.8-.5-8.7-2.5-16-2.7-16.5-.3-1-1.3-1.6-2.4-1.3-1 .3-1.6 1.3-1.3 2.4.1.2 6.3 22.2-.6 34.7-7.4 13.4-24.8 24.8-32.3 25.2-5.6.2-9 .2-12.5.1-1.8 0-3.7-.1-6-.1h-.2c-7.8 0-13.9-.6-16.4-1.7-2.7-1.1-3.5-2.7-2.9-5.7.8-4 7.7-5.5 10.3-5.8 1-.1 1.8-1 1.7-2.1-.1-1-1-1.8-2.1-1.7-.5 0-12.2 1.2-13.7 8.8-.9 4.7.9 8.1 5.2 9.9 4.1 1.7 12.9 1.9 17.9 1.9h.1c2.2 0 4.2 0 6 .1 1.8 0 3.5.1 5.5.1 2.1 0 4.4 0 7.3-.2 11.1-.5 29.1-15.6 35.4-27.1 2.5-4.5 3.5-9.9 3.7-15.2 2.9-3 5.7-7.1 9.5-16.2 1.7-4.1 10.4-25.8 14.7-51.4 3.4-20.1 3.7-41.6 3.9-53.1v-2.3c0-.6.1-1.3.1-2.1.1-2.4.4-6.3-.2-10.7zM88.6 195.3c-5.6-3.2-8.4-9.6-8.5-9.7-.4-1-1.5-1.4-2.5-1s-1.4 1.5-1 2.5c.1.3 3.3 7.6 10.1 11.5 6.6 3.8 11.5 4.1 11.7 4.1h.1c1 0 1.9-.8 1.9-1.8s-.8-1.9-1.8-2c-.1 0-4.2-.2-10-3.6zm-43-128.2c0 1 .9 1.9 1.9 1.9s1.9-.9 1.9-1.9c0-.9-.3-2.5-.8-5.6-.6-3.7-2.3-13.5-1.5-15.8 2.8 0 13.8 5.9 16 8.7.6.8 1.8 1 2.7.3s1-1.8.3-2.7c-2.2-2.8-16.2-11.9-20.8-9.8-3 1.4-2.6 7-.4 20 .3 2.1.7 4.3.7 4.9zm59-12.4c.8.6 2 .5 2.7-.3 2.1-2.8 13.2-8.7 15.9-8.7.8 2.3-.9 12.1-1.6 15.9-.5 3.1-.8 4.7-.8 5.6 0 1 .9 1.9 1.9 1.9s1.9-.9 1.9-1.9c0-.6.4-2.8.7-4.9 2.2-13 2.7-18.6-.4-20-4.6-2.1-18.6 7-20.8 9.8-.5.8-.3 2 .5 2.6zm-38.8 2.9c.6.9 1.7 1.1 2.6.6.1 0 5.4-3.3 14.6-3.3 9.5 0 18.3 3.5 18.4 3.5.2.1.5.1.7.1.8 0 1.5-.5 1.8-1.2.4-1-.1-2.1-1.1-2.5-.4-.2-9.6-3.8-19.8-3.8-10.5 0-16.4 3.8-16.7 3.9-.8.7-1.1 1.8-.5 2.7zm-11.2 67.8c-.1 1 .6 2 1.6 2.1h.3c.9 0 1.7-.7 1.9-1.6.1-.4.4-3.8-3-9.7l-1.5-2.4c-3.3-5.2-7.7-12.3-7.7-23.8 0-9.5 3.1-17.4 3.1-17.5.4-1-.1-2.1-1.1-2.5s-2.1.1-2.5 1.1c-.1.3-3.4 8.7-3.4 18.9 0 12.6 4.8 20.2 8.3 25.8.5.8 1 1.6 1.4 2.3 2.8 4.8 2.6 7.3 2.6 7.3zm36.3 127.4c-.1.1-2.8 2.3-8.7 2.3h-.1c-3.5 0-7.6-1-7.6-5.7 0-2.2.5-2.9 1.4-3.9 1.1-1.3 2.4-3 2.4-7v-1.6c0-6.4 0-13.7-2.6-20.8-.9-2.5-2.5-5.2-4.4-8.7-4-7-9.5-16.7-13.5-31.4-4.8-17.9 0-43.3 0-43.5.2-1-.5-2-1.5-2.2s-2 .5-2.2 1.5c-.2 1.1-5 26.4 0 45.2 4.1 15.2 9.7 25.1 13.8 32.3 1.9 3.3 3.4 5.9 4.2 8.1 2.4 6.5 2.4 13.4 2.4 19.4v1.6c0 2.7-.7 3.5-1.6 4.6-1 1.2-2.3 2.8-2.3 6.4.1 6 4.3 9.5 11.4 9.5h.1c7.5 0 11-3.2 11.2-3.3.8-.7.8-1.9.2-2.7-.6-.7-1.8-.8-2.6-.1zm34.2-45.8c-1-.3-2.1.2-2.4 1.2-1.6 4.6-4.1 29.5-2.6 33.3.1.4.3.8.5 1.2 1.4 3.4 2.2 6.1.1 8.9-2.3 3.1-6.7 4.6-11.8 3.9-3.9-.6-6.1-1.9-6.7-2.9-.3-.4-.3-.8-.2-1 .3-1-.4-2.1-1.4-2.3-1-.3-2.1.4-2.3 1.4-.3 1.4-.1 2.8.8 4 1.5 2.3 4.9 3.9 9.4 4.6 1 .1 2 .2 3 .2 5.2 0 9.7-2 12.3-5.6 3.5-4.7 1.6-9.4.3-12.6-.2-.4-.3-.7-.4-1.1-.9-2.7 1.2-26.2 2.7-30.8.2-1-.3-2.1-1.3-2.4z"/><path d="M170.8 133.1c14.6 11.5 22 23.8 25.6 32.1 3.9 9 4.4 15.4 4.4 15.5.1 1 .9 1.8 1.9 1.8h.1c1-.1 1.8-1 1.8-2 0-.2-.1-1.7-.6-4 .1-.1.2-.3.3-.5 4.8-10.5 8.2-26.7 12.1-49.5 2.4-13.7 2.5-25.7 2.6-35.4.2-14.2.5-21.7 5.7-23 1.4-.3 2.6.2 3.5.7 1.9 1.2 3.4 3.4 3.8 5.5.2 1 1.2 1.7 2.2 1.5s1.7-1.2 1.5-2.2c-.6-3.1-2.8-6.3-5.5-8-2.1-1.3-4.3-1.7-6.4-1.2-8.3 2.1-8.4 11.8-8.6 26.6-.1 9.5-.3 21.4-2.6 34.8-3.4 19.8-6.4 34.5-10.3 44.7-3.1-9.9-10.8-25.8-29.3-40.4-8.8-6.9-18.4-10.3-26.9-13.3-9.6-3.4-17.2-6.1-19.1-12.4-.5-1.6 0-4.2.6-7.3.6-3.2 1.3-6.8 1.2-10.7-.2-8.6-4.2-15.3-4.4-15.5-.5-.9-1.7-1.2-2.6-.6-.9.5-1.2 1.7-.6 2.6 0 .1 3.6 6.1 3.8 13.7.1 3.5-.6 6.9-1.2 9.8-.7 3.5-1.3 6.6-.5 9.1 2.5 8.2 11.3 11.3 21.5 14.9 8.4 2.9 17.7 6.2 26 12.7zM99.6 246.3c1.1 0 1.9-.8 1.9-1.9 0-.1.2-9.2-.1-19.6-.3-10.5-2-17.9-2.1-18.2-.2-1-1.2-1.7-2.3-1.4-1 .2-1.7 1.2-1.4 2.3 0 .1 1.7 7.4 2 17.5.3 10.2.1 19.3.1 19.3 0 1.1.8 2 1.9 2z"/></svg>