<svg xmlns="http://www.w3.org/2000/svg" viewBox="0 0 280 280"><path d="M108.29 146.94c-1.15 0-2.27-.47-3.08-1.32-.5-.32-3.04-1.69-11.22-3.26-10.5-2.01-16.51.52-16.57.54a4.28 4.28 0 0 1-5.6-2.16 4.24 4.24 0 0 1 2.08-5.59c.83-.39 8.52-3.67 21.68-1.15 12.61 2.41 15.37 4.86 16.34 6.49a4.24 4.24 0 0 1-1.46 5.83c-.69.41-1.44.61-2.19.61Zm-3.64-2.04v-.01Zm67.04 2.04c-.75 0-1.5-.2-2.19-.61-2.01-1.21-2.67-3.82-1.46-5.83.98-1.63 3.73-4.07 16.34-6.49 13.15-2.52 20.84.77 21.68 1.15 2.13.98 3.07 3.51 2.08 5.64a4.243 4.243 0 0 1-5.64 2.08c-.02 0-6.03-2.53-16.52-.52-8.18 1.57-10.72 2.94-11.22 3.26-.81.85-1.94 1.32-3.08 1.32Zm3.64-2.05v-.01Z"/></svg>