<svg version="1.1" id="ear" xmlns="http://www.w3.org/2000/svg" xmlns:xlink="http://www.w3.org/1999/xlink" x="0" y="0" viewBox="0 0 140 140" style="enable-background:new 0 0 140 140" xml:space="preserve"><style>.st0{clip-path:url(#SVGID_00000036239831362957253620000008084308294008774286_)}</style><defs><path id="SVGID_1_" d="M-10-1h160v105H-10z"/></defs><clipPath id="SVGID_00000013893387952312191460000006522136654353782672_"><use xlink:href="#SVGID_1_" style="overflow:visible"/></clipPath><g style="clip-path:url(#SVGID_00000013893387952312191460000006522136654353782672_)"><path d="M209.5 77.4c-13 0-8.1 29-12.9 65.1-2.9 21.6-8.9 38.6-12 46.4-2.3-6.3-5.6-13.6-10.1-22.5-14.1-27.9-44.3-35.4-44.3-35.4-7.8-3.5-20.5-9.1-20.6-9.2-1.2-1-2.5-2.6-2.8-4.7-.8-5.6.9-6.4 1-16.2.1-6.8-.3-12.3-4.6-18.6 1.2-6.5 4.2-24.8.7-26.9-3.3-2-14 6.9-18.8 11-6.3-2.8-12-2.7-18.6-2.7h-.7c-6.5 0-12.1 0-18.3 2.8-4-3.4-12.3-10.2-16.9-11.3-1-.2-1 3.1-1.6 3.5-.5.3-3.7-1-4 0-1.5 5.7 2.9 20.1 4.3 24.5-4.1 7.3-4.1 14.4-4.1 21.2.1 9.8 8.5 22.1 10 24.7s1.5 12.7 1.5 12.7h.1c-1.2 7.3-4 25.8-1.6 36.5 3 13.5 9.4 31.2 18.2 46.1 8 13.6 2.5 28.5 2.5 28.5s-3.8 5.6-1.8 10.5c2 4.9 5.9 5.6 11.7 4.7 5.2-.8 5.3-3.1 11.1-3.1s6.7 4.1 17.4 2.6c7.7-1.1 10.8-5.1 10.9-10.3 0-1.1-.8-3.6-1.6-5.8 0 0 3.5-.6 7 4.6.9 1.3-1 4.9 1.6 7.7s1.5 3.9 8.3 3.6 27.3 3 33.7-.5c6.5-3.5 28.5-14.4 32.3-34.4.3-1.5.6-3 .8-4.4.7.6 1.6 1 2.5 1.2 0 0 17.3-14.4 24.5-67.7 5.4-38.3 10.2-84.2-4.8-84.2z" style="fill:#fff"/><path d="M28.8 79.8c-1 0-1.9-.8-1.9-1.9 0-.6-.7-2.9-1.3-4.8-1.9-6.2-3.4-11.7-2.5-14.9.5-2.1 2.8-1.6 3.6-1.4.4.1 1 .2 1.3.2 0-.3 0-.9-.1-1.1-.1-.7-.3-1.7.5-2.5.5-.5 1.1-.7 1.7-.6 5.1.7 14.8 7 17.2 10 .6.8.5 2-.3 2.7-.8.6-2 .5-2.7-.3-1.6-2-8.1-6.4-12.5-8-.1 1.2-.5 2.5-2.1 3.2-1 .5-2.2.4-3.1.2.1 3 1.6 8.2 2.6 11.4.9 3.1 1.4 4.8 1.4 5.9s-.8 1.9-1.8 1.9zm75.3 0c-1.1 0-1.9-.8-1.9-1.9 0-.9.3-2.5.8-5.6.7-3.8 2.3-13.6 1.6-15.9-2.7 0-13.8 5.9-15.9 8.7-.6.8-1.8 1-2.7.3-.8-.6-1-1.8-.3-2.7 2.2-2.8 16.2-11.9 20.8-9.8 3 1.4 2.6 7 .4 20-.4 2.1-.7 4.3-.7 4.9-.2 1.2-1.1 2-2.1 2zM83.4 69.3c-.2 0-.5 0-.7-.1-.1 0-8.9-3.5-18.4-3.5S49.8 69 49.7 69c-.9.6-2.1.3-2.6-.6-.6-.9-.3-2.1.6-2.6.2-.2 6.2-3.9 16.7-3.9s19.5 3.6 19.8 3.8c1 .4 1.4 1.5 1.1 2.5-.4.7-1.1 1.1-1.9 1.1zm-45.6 69.1h-.3c-1-.1-1.8-1.1-1.6-2.1 0 0 .2-2.6-2.5-7.2-.4-.7-.9-1.5-1.4-2.3-3.5-5.6-8.3-13.2-8.3-25.8 0-10.2 3.3-18.5 3.4-18.9.4-1 1.5-1.4 2.5-1.1s1.5 1.5 1.1 2.5c0 .1-3.1 8-3.1 17.5 0 11.5 4.5 18.6 7.7 23.8.5.8 1 1.7 1.5 2.4 3.5 5.8 3.1 9.3 3 9.6-.2.9-1.1 1.6-2 1.6zm148.1 56.2c-.9 0-1.8-.7-1.9-1.6 0-.1-1-6.8-5.4-16.2-4.1-8.6-12-21.4-26.6-32.9-8.3-6.5-17.6-9.8-25.8-12.7-10.2-3.6-19-6.7-21.5-14.9-.8-2.5-.2-5.6.5-9.1.6-3 1.3-6.3 1.2-9.8-.2-7.6-3.8-13.6-3.8-13.7-.5-.9-.2-2.1.7-2.6s2.1-.2 2.6.7c.2.3 4.1 6.9 4.4 15.5.1 3.9-.6 7.5-1.2 10.7-.6 3-1.1 5.7-.6 7.3 2 6.4 9.5 9 19.1 12.4 8.5 3 18.1 6.4 26.9 13.3 29.2 23 33.3 50.3 33.4 51.5.1 1-.6 2-1.6 2.1h-.4z"/></g></svg>