<svg xmlns="http://www.w3.org/2000/svg" viewBox="0 0 180 180"><path d="M53.81 172.65s28.65-14.27 37.77-67.54c6.52-38.13 12.59-84.06-6.41-84.06-16.46 0-10.27 29.03-16.34 65.06-5.06 30-17.7 51-17.7 51s-12.19 32.71 2.68 35.54Z" fill="#fff"/><path d="M57.18 91.85c-14.27-23.32-43.28-31-63-34-20.05-3.05-24-11-24-11s-20.44 19.93-39.16 22.93c-15 2.4-25.84 5.07-36.84 3.07 0 0 3.74 3 0 24-2.44 13.67.57 33 9 53 6.14 14.58 4 29.46 4 29.46s-4.03 4.63-2 9.54c2.03 4.9 9.24 5.92 15 5 5.2-.83 3-2 9-2 4.12 0 8.33 6.54 19 5 7.61-1.1 10.86-2.79 11-8 .02-.86-1.79-7.08-2-11-.29-5.5 1-9 1-9s2 4 8 7 19.85 2.93 13 6c-2.4 1.07-1.15 5.94 1 9 2.81 4 19.35 3.93 25.74 3.93 12.17 0 31.4-4.53 37.45-8 6.05-3.47 18.21-5.93 21.81-25.93 4.14-22.99 10.68-38.48-8-69Z" fill="#fff"/><g fill="none" stroke="#000" stroke-linecap="round" stroke-linejoin="round" stroke-width="3.8"><path d="M96.46 35.21c.84 5.74.05 10.32 0 12.76-.22 10.43-.35 33.75-4.88 55.13-4.7 22.16-13.87 42.37-18.37 50.96-2.63 5.01-4.86 8.49-6.99 11.1m-2.1-59.32c1.97-7.11 3.9-15.32 5.97-24.73 7.33-33.33-2.28-57 12.35-59.9 5.44-1.08 11.05 3.39 12.14 7.74"/><path d="M68.18 124.85s1.73-26.25-27.24-49.07C24.21 62.59-.04 59.02-16.32 56.94c-8.49-1.09-14.08-9.68-13.79-15.88s-2.43-15.38-3.65-19.13m101.7 109.84s2.37 27.63-5 41c-7.37 13.37-32.7 20.4-41.3 20.77-8.6.37-12.06 1.23-18.7 1.23-3.74 0-15.07.63-19-1-3.43-1.42-5.77-7.07-5-11 1.24-6.29 18.81-7.73 18.81-7.73"/></g></svg>