<svg xmlns="http://www.w3.org/2000/svg" viewBox="0 0 60 60"><path d="M38 38.72h0a7.63 7.63 0 0 1-3.95-.55l-1.15-.49-2.58-1.2c-.34-.15-.71-.24-1.08-.25h-.47c-.37.01-.74.09-1.08.25l-2.58 1.2-1.15.49c-1.25.53-2.61.72-3.95.55h0" style="fill:none;stroke:#000;stroke-linecap:round;stroke-linejoin:round;stroke-width:2.54px"/><path d="M31.58 35.08c-1.46-.47-2.87-3.66-1.01-4.84s3.3.43 5.63.14 4.75.23 3.39 2.31-4.22 3.61-8.01 2.4Z" style="fill:#666"/><path d="M33.53 29.46c-.43-.55-1.63-1.54-4.77-1.57s-.06 0-.09 0h-.09c-3.14.04-4.34 1.03-4.77 1.58-.19.25-.21.6-.05.87.5.83 2.62 1.98 3.91 2.57.63.29 1.36.29 1.99 0 1.29-.59 3.41-1.74 3.91-2.57.16-.27.14-.62-.05-.87Z"/></svg>