<svg version="1.1" id="ear" xmlns="http://www.w3.org/2000/svg" xmlns:xlink="http://www.w3.org/1999/xlink" x="0" y="0" viewBox="0 0 140 140" style="enable-background:new 0 0 140 140" xml:space="preserve"><style>.st0{clip-path:url(#SVGID_00000150800899253837360390000010374977772559789961_)}</style><defs><path id="SVGID_1_" d="M-9-1h160v105H-9z"/></defs><clipPath id="SVGID_00000027566208019627057450000000111884123507911318_"><use xlink:href="#SVGID_1_" style="overflow:visible"/></clipPath><g style="clip-path:url(#SVGID_00000027566208019627057450000000111884123507911318_)"><path d="M210.5 76.4c-13 0-8.1 29-12.9 65.1-2.6 19.5-7.7 35.1-11 43.8-2.2-5.7-5.2-12.2-9.1-19.9-14.1-27.9-44.3-35.4-44.3-35.4-7.8-3.5-20.5-9.1-20.6-9.2-1.2-1-2.5-2.6-2.8-4.7-.8-5.6.9-6.4 1-16.2.1-7.2-.4-12.8-5.3-19.6 0 0 .1 0 .1-.1.8-.2 1.7-.7 2.8-1.7 3.2-2.8 1.4-7.7-3.2-11.3-5.7-4.5-9.8-3.8-14-1.1-.3.2-.5.3-.8.5-7.3-4.2-13.7-4-21.1-4h-.7c-7.7 0-14.1 0-21.7 4.6-.5-.3-1.1-.6-1.8-1.1-4.1-2.7-8.3-3.4-14 1.1-4.5 3.6-6.4 8.5-3.1 11.3 1.1.9 2 1.4 2.8 1.7.7.2 1.3.7 1.7 1.4-4.4 7.6-4.5 14.8-4.4 21.8.1 9.8 8.5 22 10 24.7s1.5 12.7 1.5 12.7h.1c-1.2 7.3-4 25.8-1.6 36.5 3 13.5 9.4 31.2 18.2 46.1 8 13.6 2.5 28.5 2.5 28.5s-3.8 5.6-1.8 10.5c2 4.9 5.9 5.6 11.7 4.7 5.2-.8 5.3-3.1 11.1-3.1s6.7 4.1 17.4 2.6c7.7-1.1 10.8-5.1 10.9-10.3 0-1.1-.8-3.6-1.6-5.8 0 0 3.5-.6 7 4.6.9 1.3-1 4.9 1.6 7.7s1.5 3.9 8.3 3.6 27.3 3 33.7-.5c6.5-3.5 28.5-14.4 32.3-34.4.2-1.2.4-2.3.6-3.4.2.1.4.2.7.2 0 0 17.3-14.4 24.5-67.7 5.5-38.3 10.3-84.2-4.7-84.2z" style="fill:#fff"/><path d="M39.8 137.4h-.3c-1-.1-1.8-1.1-1.6-2.1 0 0 .2-2.6-2.5-7.2-.4-.7-.9-1.5-1.4-2.3-3.5-5.6-8.3-13.2-8.3-25.8 0-10.2 3.3-18.5 3.4-18.9.4-1 1.5-1.4 2.5-1.1s1.4 1.5 1.1 2.5c0 .1-3.1 8-3.1 17.5 0 11.5 4.5 18.6 7.7 23.8.5.8 1 1.7 1.5 2.4 3.5 5.8 3.1 9.3 3 9.6-.2.9-1.1 1.6-2 1.6zm148.1 56.2c-.9 0-1.8-.7-1.9-1.6 0-.1-1-6.8-5.4-16.2-4.1-8.6-12-21.4-26.6-32.9-8.3-6.5-17.6-9.8-25.8-12.7-10.2-3.6-19-6.7-21.5-14.9-.8-2.5-.2-5.6.5-9.1.6-3 1.3-6.3 1.2-9.8-.2-7.6-3.8-13.6-3.8-13.7-.5-.9-.2-2.1.7-2.6s2.1-.2 2.6.7c.2.3 4.1 6.9 4.4 15.5.1 3.9-.6 7.5-1.2 10.7-.6 3-1.1 5.7-.6 7.3 2 6.4 9.5 9 19.1 12.4 8.5 3 18.1 6.4 26.9 13.3 29.2 23 33.3 50.3 33.4 51.5.1 1-.6 2-1.6 2.1h-.4zM85.4 68.3c-.2 0-.5 0-.7-.1-.1 0-8.9-3.5-18.4-3.5S51.8 68 51.7 68c-.9.6-2.1.3-2.6-.6-.6-.9-.3-2.1.6-2.6.2-.2 6.2-3.9 16.7-3.9s19.5 3.6 19.8 3.8c1 .4 1.4 1.5 1.1 2.5-.4.7-1.1 1.1-1.9 1.1z"/><path d="M35.7 82.5h-.2c-1.5-.1-5.4-.4-7.7-2.3-2-1.7-2.6-4-1.8-6.8 1-3.5 5.5-9.2 10.8-10.4 6.7-1.5 12.7 2 13 2.2.9.5 1.2 1.7.7 2.6s-1.7 1.2-2.6.7c0 0-5-2.9-10.2-1.7-3.6.8-7.1 5.2-7.9 7.8-.5 1.8.1 2.3.6 2.8 1.1.9 3.5 1.4 5.4 1.5.9 0 1.4-.4 2.7-1.9.4-.5.8-1 1.3-1.5l2-2c.7-.7 2-.7 2.7 0s.7 1.9 0 2.7l-2 2c-.4.4-.8.9-1.2 1.3-1.5 1.3-3 3-5.6 3zm65.2 0c-2.6 0-4.1-1.7-5.4-3.2-.4-.4-.8-.8-1.2-1.3l-2-2c-.7-.7-.7-1.9 0-2.7s1.9-.7 2.7 0l2 2c.5.5.9 1 1.3 1.5 1.3 1.5 1.8 1.9 2.7 1.9 1.9-.1 4.3-.6 5.4-1.5.5-.4 1.1-.9.6-2.8-.8-2.6-4.3-7-7.9-7.8-5.2-1.1-10.2 1.7-10.2 1.7-.9.5-2.1.2-2.6-.7s-.2-2.1.7-2.6c.2-.2 6.2-3.6 12.9-2.2 5.3 1.2 9.7 6.9 10.8 10.4.8 2.8.2 5.1-1.8 6.8-2.3 1.9-6.2 2.3-7.7 2.3-.1.2-.2.2-.3.2z"/></g></svg>