<svg xmlns="http://www.w3.org/2000/svg" viewBox="0 0 280 280"><path d="M167.78 107.59c-1.21-5.97-6.66-11.06-16.68-14.28l-6.47-9.5c-.52-.94-2.07-1.11-2.87-.31l-6.94 8.73s-5.01-1.08-12.52-1.08-14.26 1.5-14.26 1.5l-9.15-9.15c-.8-.8-2.34-.63-2.87.31l-6.1 10.96c-6.68 2.87-11.51 6.85-12.72 12.83-1.4 6.95 1.26 20.14 22.55 19.06 10.92-.55 13.77-9.68 22.54-9.68 10.02 0 11.61 9.68 22.54 9.68 21.29 0 24.35-12.12 22.94-19.06Zm-63.5 11.07c-5.02 0-9.1-4.73-9.1-10.57s4.07-10.57 9.1-10.57 9.1 4.73 9.1 10.57-4.07 10.57-9.1 10.57Zm35.58 0c-4.77 0-8.65-4.73-8.65-10.57s3.87-10.57 8.65-10.57 8.65 4.73 8.65 10.57-3.87 10.57-8.65 10.57Z" style="fill:#323232"/><path d="M97.34 128.61c-8.36 0-14.54-2.26-18.39-6.74-4.94-5.73-4.01-12.67-3.6-14.66 1.2-5.93 5.53-10.49 13.23-13.93l5.78-10.4c.53-.96 1.51-1.6 2.67-1.76 1.2-.17 2.4.22 3.21 1.03l8.43 8.43c2.21-.43 7.65-1.33 13.64-1.33 5.58 0 9.8.57 11.74.9l6.23-7.83c.04-.06.09-.11.14-.16.81-.81 2.01-1.21 3.21-1.03 1.12.16 2.07.76 2.61 1.67l6.07 8.91c12.57 4.22 16.37 10.75 17.34 15.51.98 4.83-.25 9.92-3.27 13.62-4.19 5.13-11.44 7.73-21.54 7.73-6.26 0-9.84-2.88-13-5.42-2.85-2.29-5.31-4.26-9.54-4.26-3.59 0-6.09 1.85-8.98 4-3.39 2.52-7.23 5.37-13.47 5.68-.86.04-1.7.07-2.52.07Zm.26-43.72-6 10.79c-.21.37-.53.66-.91.82-6.84 2.94-10.64 6.69-11.6 11.45-.65 3.22-.27 7.91 2.76 11.42 3.43 3.98 9.43 5.78 17.83 5.36 5.08-.26 8.15-2.53 11.39-4.94 3.14-2.33 6.4-4.75 11.25-4.75 5.57 0 8.94 2.71 11.92 5.1 2.93 2.35 5.7 4.58 10.62 4.58 8.77 0 15.2-2.19 18.59-6.33 3.42-4.18 2.77-9.06 2.48-10.45-1.12-5.52-6.44-9.96-15.4-12.85-.4-.13-.75-.39-.99-.74l-6.45-9.47-6.76 8.5c-.45.56-1.18.83-1.89.68-.05 0-4.93-1.03-12.12-1.03s-13.78 1.44-13.85 1.45c-.63.14-1.3-.05-1.76-.51l-9.1-9.1Zm45.5-.02s.02.01.03.02l-.02-.02Zm-45.55-.03s0 .02.02.02l-.02-.02Zm42.32 35.72c-5.82 0-10.55-5.6-10.55-12.48s4.73-12.48 10.55-12.48 10.55 5.6 10.55 12.48-4.73 12.48-10.55 12.48Zm0-21.15c-3.72 0-6.74 3.89-6.74 8.67s3.02 8.67 6.74 8.67 6.74-3.89 6.74-8.67-3.02-8.67-6.74-8.67Zm-35.58 21.15c-6.07 0-11-5.6-11-12.48s4.93-12.48 11-12.48 11 5.6 11 12.48-4.93 12.48-11 12.48Zm0-21.15c-3.97 0-7.19 3.89-7.19 8.67s3.23 8.67 7.19 8.67 7.19-3.89 7.19-8.67-3.23-8.67-7.19-8.67Z"/><path d="M172.33 147.06s-20.77 13.49-47.41 15.8c-27.96 2.43-52.27-15.8-52.27-15.8s-3.86 5.4-8.51 17.02c-7.29 18.24-4.86 31.61-4.86 31.61s60.24 4.02 80.23-4.86c32.82-14.59 34.04-40.12 34.04-40.12s57.13-3.21 46.2-12.16c-13.37-10.94-43.76-18.24-43.76-18.24l10.94 13.37-8.51 6.08-6.08 7.29Z" style="fill:#323232"/><path d="M89.28 198.92c-15.84 0-29.01-.85-30.17-.93a2.308 2.308 0 0 1-2.12-1.89c-.1-.57-2.46-14.24 4.99-32.88 4.7-11.74 8.61-17.28 8.78-17.51.36-.51.91-.84 1.53-.94.61-.1 1.24.06 1.74.43.24.18 23.97 17.68 50.69 15.35 24.08-2.09 43.52-13.68 46.07-15.26l5.84-7.01c.13-.15.27-.29.43-.4l6.5-4.65-9.38-11.46c-.63-.77-.7-1.85-.17-2.69s1.54-1.25 2.5-1.02c1.26.3 31.06 7.55 44.69 18.69 2.58 2.11 2.38 4.19 2.04 5.25-.92 2.81-4.78 6.06-26.49 8.86-8.73 1.12-17.38 1.77-21.14 2.02-1.04 6.62-6.52 27.31-35.17 40.04-10.89 4.84-32.81 5.99-51.16 5.99Zm-27.94-5.43c10.38.58 59.95 2.9 77.23-4.78 31.01-13.78 32.62-37.14 32.67-38.12 0-.06 0-.12.02-.18-6.22 3.59-24.09 12.84-46.14 14.76-24.14 2.11-45.29-10.46-51.82-14.83-1.46 2.45-4.09 7.27-7.02 14.6-5.43 13.58-5.27 24.44-4.94 28.56Zm118.65-52.02-5.73 6.88c22.09-1.3 41.98-4.71 44.46-7.6-.09-.1-.22-.24-.44-.41-8.99-7.35-26.31-13.11-35.95-15.91l6.38 7.79c.4.49.59 1.13.5 1.77-.08.63-.43 1.2-.95 1.57l-8.27 5.91Zm-7.66 5.59Z"/></svg>