<svg xmlns="http://www.w3.org/2000/svg" viewBox="0 0 280 280" style="enable-background:new 0 0 280 280" xml:space="preserve"><path d="M219.8 56.1c-13 0-8.1 29-12.9 65.1-3.1 23.1-9.7 40.9-12.6 47.8-1.7-5-3.8-10.4-6.5-16.2-8.2-17.4-22.8-24.9-36.8-35.9-4.5-3.5-10.6-5.5-16-10-12-10-12-27-12-27s-.2.2-.6.4c2.1-2.5 3.9-5 5.4-7.5 2.1-3.5 3.2-11.2.8-17.8 1.6-2.4 3.6-5.6 5.2-9.2 3.2-7.4 2.7-24.4 1-26C132 17 114 33.9 109.1 38.6c-4-1.3-8.7-1.8-15.3-1.8-6.2 0-10.7.3-14.5 1.2-5.6-5.3-22.4-20.9-25.1-18.2-1.7 1.6-2.2 18.6 1 26 1.7 3.9 4 7.5 5.6 9.9-1.6 5.2-1.6 11.2-.1 16.1 1.2 4.1 6.4 9.8 13 14.5.8 2.6 2 7.1 2 11.5-.1 9.5-2.4 21.5-3 32-1.3 23 7.1 62.7 14 77 6.3 13 6 39 6 39s-8.6 5.3-7 10 6.4 4.9 11 4c4.1-.8 1.4-1.9 6-1.9s6.5 4.4 15 2.9c6.1-1.1 8-3.8 3-9.6-1-1.1-1.6-3.7-1.9-5 .2-.8.5-2.4 1.1-5.3 2.4 5 9.5 1 11.9 4.7.8 1.3-.9 4.7 1.4 7.4s1.3 3.8 7.4 3.5 24.6 2.1 30.4-1.3c5.8-3.3 22.3-11.2 25.7-30.4 1.1-5.9 2-11.6 2.4-17.4.4.2.8.3 1.2.4 0 0 17.3-14.5 24.5-67.7 5.2-38 10-84-5-84z" style="fill:#fff"/><path d="M230.6 70.1c-.1-1-1-1.8-2.1-1.7-1 .1-1.8 1.1-1.7 2.1.5 4.1.3 7.7.1 10.2-.1.9-.1 1.7-.1 2.3v2.3c-.2 11.4-.5 32.8-3.8 52.5-4.2 25.2-12.7 46.5-14.4 50.5-2.9 7.1-5.2 10.9-7.3 13.5-.4-5.6-1-9.8-1.1-10.2-.2-1-1.1-1.7-2.2-1.6-1 .2-1.7 1.1-1.6 2.2 0 .3 4.1 26.2-2 38.1-6.4 12.6-21.3 23.3-27.7 23.6-4.8.2-7.7.2-10.8.1-1.6 0-3.2-.1-5.2-.1h-.1c-5.2 0-11.6-.4-14-1.5-2.2-1-2.9-2.5-2.4-5.3.4-2.3 13.6-5.4 27.7-6.4 1-.1 1.8-1 1.8-2-.1-1-1-1.8-2-1.8-9 .7-30 2.9-31.2 9.6-1 5.6 1.9 8.2 4.6 9.4 3.6 1.6 11.3 1.9 15.6 1.9h.1c1.9 0 3.5 0 5.1.1 1.5 0 3.1.1 4.8.1 1.8 0 3.8 0 6.3-.2 9.7-.5 25.4-14.7 30.9-25.6 3.4-6.6 3.9-16.7 3.7-25.1.2-.1.4-.2.6-.4 3.1-3 6-7 10-16.8 1.7-4.1 10.4-25.8 14.7-51.4 3.4-20.1 3.7-41.6 3.9-53.1v-2.3c0-.6.1-1.3.1-2.1 0-2.6.2-6.5-.3-10.9z"/><path d="M125.3 81.9c.6-2.8 1.8-4.7 3-6.7 1.5-2.4 3-4.9 3.5-8.7.6-4.3.1-8.9-.5-11.9-.2-1-1.2-1.7-2.2-1.5s-1.7 1.2-1.5 2.2c.5 2.8 1 6.8.5 10.7-.4 3.1-1.6 5-3 7.3-1.3 2.1-2.7 4.4-3.5 7.8-2.3 9.8 3.7 22.3 13.8 29 3.4 2.3 6.6 4.2 9.6 6 8.9 5.3 17.3 10.3 29.9 23.6 10.2 10.7 14.9 20.9 17.1 27.5 2.3 7.2 2.3 12 2.3 12 0 1 .8 1.9 1.9 1.9 1 0 1.9-.8 1.9-1.9 0-.4.1-5.1-2.1-12.2.7-.1 1.3-.4 1.6-1.1 4.8-10.5 8.2-26.7 12.1-49.5 2.4-13.7 2.5-25.7 2.6-35.4.2-14.2.5-21.7 5.7-23 1.4-.3 2.6.2 3.5.7 1.9 1.2 3.4 3.4 3.8 5.5.2 1 1.2 1.7 2.2 1.5s1.7-1.2 1.5-2.2c-.6-3.1-2.8-6.3-5.5-8-2.1-1.3-4.3-1.7-6.4-1.2-8.3 2.1-8.4 11.8-8.6 26.6-.1 9.5-.3 21.4-2.6 34.8-3.7 21.5-7 37.1-11.3 47.3-2.8-7.4-7.8-16.6-17-26.2-13-13.7-21.6-18.8-30.7-24.2-3-1.8-6.2-3.7-9.5-5.9-8.6-5.7-14-16.6-12.1-24.8zM77.9 40c.3.7 1 1.1 1.7 1.1.3 0 .5-.1.8-.2 0 0 4.9-2.2 14.4-2.2 9.3 0 13.6 2.1 13.6 2.1.9.5 2.1.1 2.6-.8s.1-2.1-.8-2.6c-.2-.1-5-2.6-15.4-2.6s-15.8 2.4-16 2.5c-.9.6-1.4 1.8-.9 2.7zm32.8-2.6c.8.7 2 .5 2.7-.3 1.4-1.7 4.3-5.1 6.8-7.2 5.3-4.6 11.9-8.4 13.9-9.1 1.5 2.5 2.7 14.9-.2 21.2-.9 1.9-2.3 4.4-4.2 7.2-.6.9-.3 2.1.5 2.6.3.2.7.3 1 .3.6 0 1.2-.3 1.6-.8 2-3 3.5-5.6 4.5-7.8 3.1-6.7 2.4-20.2.2-24.5-.7-1.3-1.5-2-2.5-2.2-3-.6-12.8 6.2-17.3 10.1-2.7 2.3-5.9 5.9-7.3 7.7-.6 1-.5 2.2.3 2.8zM58.8 49.3c-1.9-2.9-3.3-5.3-4.2-7.2-2.9-6.3-1.7-18.8-.2-21.2 2.1.7 8.6 4.5 13.9 9.1 2.5 2.1 5.5 5.5 6.8 7.2.7.8 1.9.9 2.7.3.8-.7 1-1.9.3-2.7-1.5-1.8-4.6-5.4-7.3-7.7-2.8-2.4-6.3-4.9-9.7-7-5.6-3.4-7-3.2-7.6-3.1-1 .2-1.9.9-2.5 2.2-2.2 4.3-2.9 17.7.2 24.5 1 2.1 2.5 4.7 4.5 7.8.4.6 1 .8 1.6.8.4 0 .7-.1 1.1-.3.8-.7 1-1.8.4-2.7zm13.8 39.1c1.8 2.7 1.4 5.1 1.4 5.2-.2 1 .5 2 1.5 2.2h.3c.9 0 1.7-.7 1.9-1.6 0-.2.7-4-2-8-.7-1.1-2-2.3-3.6-3.8-3.8-3.6-9.7-9.1-10.8-16.6-.6-3.8 0-7.9.5-10.7.2-1-.5-2-1.5-2.2s-2 .5-2.2 1.5c-.6 3-1.2 7.6-.5 11.9 1.3 8.8 7.7 14.8 11.9 18.8 1.5 1.5 2.6 2.6 3.1 3.3zm26.2 97.1c0-.1-.1-.3-.2-.4l-4.3-7.3c-.5-.9-1.7-1.2-2.6-.7s-1.2 1.7-.7 2.6l4.2 7.1.2.5c.9 2.6 3 8.8 4.4 19.7 1.1 8.6 2.5 41.2 2.5 41.5 0 1 .9 1.8 1.9 1.8h.1c1 0 1.9-.9 1.8-2-.1-1.3-1.4-33-2.5-41.8-1.5-11.2-3.6-17.7-4.5-20.4l-.3-.6z"/><path d="M120.5 245.3c-.3-4.2 9.3-49.4 11-54.9.3-1-.3-2.1-1.3-2.4-1-.3-2.1.3-2.4 1.3-.1.5-12.4 53.1-11 57.2.4 1.3 1.3 2.4 2.2 3.6 1.5 2 3 3.8 2.7 6.6-.1.5-.3.9-.7 1.2-1.5 1.1-5 1.4-9 .8-3-.5-4.8-1.6-5.4-2.5-.3-.5-.3-.8-.2-1.1.2-1-.4-2-1.4-2.3a2 2 0 0 0-2.3 1.4c-.2.7-.2 1.4 0 2.1-.7-.5-1.7-.4-2.3.2-.1.1-2 1.8-6.8 1.9h-.1c-4 0-6.1-1.7-6.1-5.1 0-1.4.6-2 2.5-3.1 2-1.2 4.7-2.8 4.7-7 0-5.9-2.7-27.7-5.1-34.9-.4-1.1-.9-2.5-1.5-4.3-3.3-9.1-10.2-28.1-12.4-45.4-2.7-20.8-1.5-27.9.2-37.8.3-1.5.5-3 .8-4.7.8-4.9 1.2-15.7 1.2-16.1 0-1-.8-1.9-1.8-2s-1.9.8-2 1.8c0 .1-.5 11-1.2 15.7-.3 1.7-.5 3.2-.8 4.7-1.7 10.1-3 17.5-.2 38.9 2.3 17.7 9.2 37 12.6 46.2.6 1.7 1.1 3.2 1.5 4.2 2.2 6.4 4.9 27.5 4.9 33.7 0 1.9-.9 2.6-2.8 3.7s-4.4 2.6-4.4 6.4c.1 5.5 3.9 8.9 9.9 8.9h.1c6.3 0 9.1-2.7 9.4-3s.4-.6.5-.9c1.4 2.1 4.3 3.6 7.9 4.1 1 .2 2.7.4 4.5.4 2.6 0 5.5-.4 7.4-1.9 1.3-1 2-2.3 2.2-3.8.4-4.3-1.8-7.2-3.5-9.3-.5-1-1.2-1.8-1.5-2.5z"/></svg>