<svg version="1.1" id="substantial" xmlns="http://www.w3.org/2000/svg" xmlns:xlink="http://www.w3.org/1999/xlink" x="0" y="0" viewBox="0 0 280 280" style="enable-background:new 0 0 280 280" xml:space="preserve"><style>.st0{fill:#483700}.st1{fill:#f8eddb}</style><g id="pattern_1"><path class="st0" d="M213.6 234.6c0-3.2 6.4-7 10.9-11.5s4.9-7.5 4.9-7.5c.4-5.3-1.1-8.9-1.1-8.9s2.6-6.6 3.8-10.7 0-6.3 0-6.3c-.7-4.3-3.8-11.3-3.8-11.3s1.3-3.8 1.9-8.1 0-7.6 0-7.6l-1.9-4.5s3.8-6.7 3.8-10.4-.6-14.1-1.9-19.9 1.9-7.5 1.9-12.8v-7s-1.9-3.2-1.9-7 7.7-10.2 10.9-18c2.1-5.1.6-12.1 0-15.9l-3.2-8.9c-1.3-5.8-5.8-7.7-5.8-3.2s-6.5.6-12.5 4.2-8.5 9.7-9.4 11.3c-.5.9-1.1 1.8-1.9 2.6-2.2 2.4-6.7 4.3-8.9 10.7-2.2 6.7-1.6 8.8-1.1 11.3.4 1.8-.2 3.7-1.6 4.9-.9.8-1.8 1.9-2.6 3.3-1.5 2.5-2.4 7.7-2.7 10.5-.2 1.2-.6 2.3-1.3 3.4-1.2 1.9-3.1 5.6-3.8 10.7-1 7.7-1.5 8.9-1.5 8.9s-4.4 38.7-4.4 45 33.2 52.7 33.2 52.7z"/><path class="st1" d="M139.6 120.4s-33 12-48 12.6c-22.5.8-40.2-5.2-40.2-5.2v1.3s-1.9 1.3-2.6 3.2l-1.9 2.6s-2 2.9-2.6 12.5c-.6 9.6 3 23.2 3 23.2l.9 3.3.6 5.1-.1-.1s0 13.2 7.5 26.1c5.7 9.9 15.5 27.2 15.9 33s-1 15.2 1.9 18.2c2.9 2.9 9.3 3.6 13.1 2.9 3.8-.6 5.8-3.2 5.1-6.4-.9-4.6 0-7 0-7-.1-.3.6 0 .6 0s.9 2.5 0 7c-.6 3.2 1.3 5.7 5.1 6.4s10.2 0 13.1-2.9c.9-.9 1.4-2.6 1.7-4.5l3.3.2s2 3 7.1 2.8c5.1-.2 7.5 0 7.5 0l2.1-5.4c-.6 4.5.6 8 1.3 9.1.6 1.1 6.4 4.8 10.6 2.6 4.1-2.1 9.2-1.5 9.2-1.5 2.5-.3 7.7 1.5 7.7 1.5 7.1.9 8.3-2.8 11.4-3.6 3.2-.8 11.5-4.4 11.5-4.4 1.8-.4 4.5-1.2 4.5-1.2s3.8-.9 8.3-1.3c5.5-.5 15.8-9.9 17.2-23 1.5-13.3-3.5-29.4-3.5-29.4-1-5.4-4.1-4.5-4.1-4.5s-.3-12.9-2.6-18.5c-3.8-9.6-7.3-12.8-10.2-14.1-3.9-1.6-7-13.1-7-13.1l-1.8-4.5s-4.8-9.5-9.6-14.4c-9.6-9.6-21.4-11.8-21.4-11.8H150c-3.3-.2-8.8 2.8-10 3.2m-27 127.5c.1-3.4-.2-7.2 0-10.1.1-2.6 2.2-7.4 4.9-12.9l-4.9 23z"/><defs><path id="SVGID_1_" d="M139.6 120.4s-33 12-48 12.6c-22.5.8-40.2-5.2-40.2-5.2v1.3s-1.9 1.3-2.6 3.2l-1.9 2.6s-2 2.9-2.6 12.5c-.6 9.6 3 23.2 3 23.2l.9 3.3.6 5.1-.1-.1s0 13.2 7.5 26.1c5.7 9.9 15.5 27.2 15.9 33s-1 15.2 1.9 18.2c2.9 2.9 9.3 3.6 13.1 2.9 3.8-.6 5.8-3.2 5.1-6.4-.9-4.6 0-7 0-7-.1-.3.6 0 .6 0s.9 2.5 0 7c-.6 3.2 1.3 5.7 5.1 6.4s10.2 0 13.1-2.9c.9-.9 1.4-2.6 1.7-4.5l3.3.2s2 3 7.1 2.8c5.1-.2 7.5 0 7.5 0l2.1-5.4c-.6 4.5.6 8 1.3 9.1.6 1.1 6.4 4.8 10.6 2.6 4.1-2.1 9.2-1.5 9.2-1.5 2.5-.3 7.7 1.5 7.7 1.5 7.1.9 8.3-2.8 11.4-3.6 3.2-.8 11.5-4.4 11.5-4.4 1.8-.4 4.5-1.2 4.5-1.2s3.8-.9 8.3-1.3c5.5-.5 15.8-9.9 17.2-23 1.5-13.3-3.5-29.4-3.5-29.4-1-5.4-4.1-4.5-4.1-4.5s-.3-12.9-2.6-18.5c-3.8-9.6-7.3-12.8-10.2-14.1-3.9-1.6-7-13.1-7-13.1l-1.8-4.5s-4.8-9.5-9.6-14.4c-9.6-9.6-21.4-11.8-21.4-11.8H150c-3.3-.2-8.8 2.8-10 3.2m-27 127.5c.1-3.4-.2-7.2 0-10.1.1-2.6 2.2-7.4 4.9-12.9l-4.9 23z"/></defs><clipPath id="SVGID_00000106131383717378761900000006444568442247093379_"><use xlink:href="#SVGID_1_" style="overflow:visible"/></clipPath><g style="clip-path:url(#SVGID_00000106131383717378761900000006444568442247093379_)"><linearGradient id="SVGID_00000163756597307135965250000010409324710627114895_" gradientUnits="userSpaceOnUse" x1="92.051" y1="28.95" x2="92.051" y2="62.29" gradientTransform="matrix(1 0 0 -1 0 282)"><stop offset=".58" style="stop-color:#483700"/><stop offset=".61" style="stop-color:#52410c"/><stop offset=".66" style="stop-color:#6d5d2e"/><stop offset=".74" style="stop-color:#998b65"/><stop offset=".83" style="stop-color:#d5c9b0"/><stop offset=".88" style="stop-color:#f8eddb"/></linearGradient><path style="fill:url(#SVGID_00000163756597307135965250000010409324710627114895_)" d="M124.5 211.5c.7 3.3-8 16.4-12 26-3 7.2 3 18-6 22-9.4 4.2-8.6-2-14-2s-1.1 2.7-6 4c-5.4 1.4-15-2.2-15-10 0-6.3 2.2-7.9 1-13-3.4-14.7-13-26-13-26s12.5-.2 18 1c6 1.3 12.2 3.1 15 3.1s12.4-3.2 16-4.1c5.2-1.3 16-1 16-1z"/><path class="st1" d="M91.5 208.5c-5 0-15-7-25-16s-22-16-23-44 10-27 10-27 23 8 37 7 46-8 46-8 13 14 11 30-16 34-25 41-26 17-31 17z"/><linearGradient id="SVGID_00000175280663246006616510000010584482283989214123_" gradientUnits="userSpaceOnUse" x1="132.624" y1="34.018" x2="193.743" y2="34.018" gradientTransform="matrix(1 0 0 -1 0 282)"><stop offset=".58" style="stop-color:#483700"/><stop offset=".63" style="stop-color:#4b3a04"/><stop offset=".69" style="stop-color:#564511"/><stop offset=".74" style="stop-color:#685827"/><stop offset=".81" style="stop-color:#807146"/><stop offset=".87" style="stop-color:#a0926e"/><stop offset=".93" style="stop-color:#c7bb9f"/><stop offset="1" style="stop-color:#f5ead7"/><stop offset="1" style="stop-color:#f8eddb"/></linearGradient><path style="fill:url(#SVGID_00000175280663246006616510000010584482283989214123_)" d="M161.5 243.5s-17.4-1.1-22.2.9c-4.8 2.1-7.4 4.4-6.6 10.2s8.1 4.8 8.1 4.8 28.3 1.8 34 .4c5.7-1.4 14.3-7.3 18-10.3s-4.3-14.1-14.3-14.1-13 6.1-17 8.1z"/></g><path class="st1" d="M120.7 73.6c3.7 4.5 4.4 7.9 4.4 7.9s.8 1 4 4.8 7 4.5 6.4 6.4-5.3 3.1-5.3 3.1.8 3.9 3.4 5.8c2.6 1.9-.6 4.5-.6 4.5s5.3 6.2 5.9 6.8c0 0 4.9 3.8 4.4 4.7-2.1 3.1-1.9.9-2.6 1.3-1 .5-27.9 14.7-49.7 14.7s-43.2-5.8-43.2-5.8-1.5-3.2-1.5-4.9v-1.4s-1.1-.7-4.3-.1-5.1-3.8-4.5-4.5 9.6-10.9 9.6-10.9-3.2-2.6-.6-4.5 3.4-5.8 3.4-5.8-4.7-1.2-5.3-3.1 3.2-2.6 6.4-6.4c3.2-3.8 4.2-5 4.2-5s.7-3.3 4.5-7.8c5-6 15-12 31-12s24.9 6.2 30 12.2z"/><path class="st0" d="M58.7 78.6s-3.4-5.5-1.5-15.3c1.7-8.8 2.6-12 5.1-12.6 2.5-.6 10.2 7.7 11.5 9.6l3.8 5.8-18.9 12.5zm63 0s3.8-7.5 1.9-17.3c-1.7-8.8-2.6-12-5.1-12.6-2.6-.6-10.2 7.7-11.5 9.6l-3.8 5.8 18.5 14.5z"/><radialGradient id="SVGID_00000011712268614526100570000013023596903970305197_" cx="-103.418" cy="-60.687" r="31.485" gradientTransform="matrix(1.09 -.00342 -.00346 -.86 202.545 48.51)" gradientUnits="userSpaceOnUse"><stop offset=".58" style="stop-color:#483700"/><stop offset=".67" style="stop-color:#52420d;stop-opacity:.94"/><stop offset=".77" style="stop-color:#736335;stop-opacity:.75"/><stop offset=".88" style="stop-color:#a99b78;stop-opacity:.45"/><stop offset=".99" style="stop-color:#f3e8d5;stop-opacity:2.000000e-02"/><stop offset="1" style="stop-color:#f8eddb;stop-opacity:0"/></radialGradient><path style="fill:url(#SVGID_00000011712268614526100570000013023596903970305197_)" d="M129.1 98.1c-4.1-15.9-19.4-26.6-38.8-26.6S55.1 83.1 51 98.1c-4.1 15 18.9 30.4 39.3 30.4s42.7-15.1 38.8-30.4z"/><path d="M83.9 262.9c-3.8 0-8.7-.9-11.5-3.7-2.7-2.7-2.6-8.5-2.4-14.1 0-1.9.1-3.8 0-5.3-.3-5.5-11-24.2-15.6-32.1-7.6-13.3-7.7-26.5-7.7-27.1 0-1.1.8-1.9 1.9-1.9 1 0 1.9.9 1.9 1.9 0 .1.1 12.8 7.2 25.2 8.2 14.2 15.8 28.2 16.1 33.8.1 1.7.1 3.6 0 5.6-.1 4.1-.2 9.8 1.4 11.4 2.2 2.2 7.7 3 11.4 2.4 1.5-.2 2.6-.8 3.2-1.7.5-.7.6-1.5.4-2.5-1-4.9 0-7.8.1-8.1.4-1 1.5-1.5 2.4-1.1s1.5 1.5 1.1 2.4c0 0-.7 2.1.1 6 .4 2 .1 3.8-1 5.4-1.2 1.7-3.1 2.9-5.7 3.3-1 .1-2.1.2-3.3.2z"/><path d="M91.9 242.2c-1.1 0-1.9-.9-1.9-1.9v-16c0-6-1.8-12.2-1.8-12.2-.3-1 .3-2.1 1.3-2.4 1-.3 2.1.3 2.4 1.3.1.3 2 6.7 2 13.3v16c0 1.1-.9 1.9-2 1.9zm-44.8-68.1c-.8 0-1.6-.6-1.8-1.4-.2-.6-3.7-14-3.1-23.8.7-10 4.6-16 4.8-16.3.6-.9 1.8-1.1 2.6-.5.9.6 1.1 1.8.5 2.6 0 .1-3.6 5.5-4.2 14.4-.6 9.1 2.9 22.4 3 22.6.3 1-.3 2.1-1.3 2.3-.2 0-.4.1-.5.1zm53.6 88.8c-1.2 0-2.4-.1-3.3-.2-2.5-.4-4.5-1.5-5.7-3.3-1.1-1.5-1.4-3.4-1-5.4.8-3.9.1-6 .1-6-.3-1 .2-2.1 1.2-2.4 1-.4 2.1.1 2.4 1.1.1.3 1.1 3.1.1 8.1-.2 1-.1 1.8.4 2.5.6.9 1.7 1.4 3.2 1.7 3.8.6 9.3-.2 11.4-2.4 1.6-1.6 1.4-7.3 1.4-11.4 0-2-.1-3.9 0-5.6.3-5.6 7.9-19.6 16.1-33.8 7.1-12.4 7.2-25.1 7.2-25.2 0-1.1.9-1.9 1.9-1.9 1.1 0 1.9.9 1.9 1.9 0 .6-.1 13.8-7.7 27.1-4.6 8-15.3 26.7-15.6 32.1-.1 1.5-.1 3.4 0 5.3.1 5.6.2 11.4-2.4 14.1-2.9 2.8-7.8 3.7-11.6 3.7z"/><path d="M92.6 242.2c-1.1 0-1.9-.9-1.9-1.9v-16c0-6.6 1.9-13.1 2-13.3.3-1 1.4-1.6 2.4-1.3 1 .3 1.6 1.4 1.3 2.4 0 .1-1.8 6.2-1.8 12.2v16c-.1 1.1-.9 1.9-2 1.9zM56 186.9c-.6 0-1.1-.2-1.5-.7 0-.1-1.3-1.7-3.2-5-3.6-6.5-1.6-11.5-1.5-11.7.4-1 1.5-1.4 2.5-1 1 .4 1.4 1.5 1 2.5-.1.2-1.3 3.6 1.3 8.4 1.6 2.9 2.8 4.5 2.8 4.5.6.8.5 2-.3 2.7-.3.2-.7.3-1.1.3zm13.9 11c-.5 0-1-.2-1.4-.6 0 0-1-1.1-5.3-4.7-5.2-4.5-3.8-12.1-3.8-12.4.2-1 1.2-1.7 2.2-1.5s1.7 1.2 1.5 2.2c0 .1-1 5.8 2.5 8.8 4.4 3.8 5.5 4.8 5.6 4.9.7.8.7 2-.1 2.7-.3.4-.7.6-1.2.6zM86 208.6c-.3 0-.6-.1-.8-.2-.7-.4-7.1-3.6-9-8.2-2.1-5-1.2-9.2-1.2-9.4.2-1 1.2-1.7 2.3-1.4 1 .2 1.7 1.2 1.4 2.3 0 .1-.7 3.2 1 7 1.2 2.8 5.6 5.5 7.2 6.3.9.5 1.3 1.6.9 2.5-.4.7-1.1 1.1-1.8 1.1zm45.3-22.2c-.4 0-.8-.1-1.2-.4-.8-.7-.9-1.9-.3-2.7 0 0 1.2-1.6 3-4.6 2.8-4.9 1.5-8.5 1.4-8.6-.4-1 .1-2.1 1.1-2.5 1-.4 2.1.1 2.5 1 .1.2 2.2 5.3-1.6 12-1.9 3.3-3.2 5-3.3 5.1-.5.4-1 .7-1.6.7zm-14.6 11.2c-.5 0-1-.2-1.3-.6-.7-.7-.8-1.9 0-2.7.1-.1 1.2-1.2 5.8-5.1 3.8-3.2 2.7-9 2.7-9-.2-1 .5-2 1.5-2.2 1-.2 2 .5 2.2 1.5.1.3 1.6 8.1-3.9 12.7-4.5 3.8-5.5 4.8-5.6 4.8-.4.4-.9.6-1.4.6zm-16.9 11c-.7 0-1.4-.4-1.7-1.1-.4-.9-.1-2.1.9-2.5 1.7-.8 6.3-3.5 7.6-6.4 1.7-3.9 1-7.1 1-7.2a2 2 0 0 1 1.4-2.3c1-.2 2 .4 2.3 1.4 0 .2 1 4.5-1.2 9.6-2.1 4.7-8.7 8-9.5 8.4-.3 0-.5.1-.8.1zm88-59.6c-.7 0-1.4-.4-1.7-1-.1-.1-6.5-12.8-11.1-17.4-9-9-20.3-11.3-20.4-11.3-1-.2-1.7-1.2-1.5-2.2.2-1 1.2-1.7 2.2-1.5.5.1 12.5 2.5 22.4 12.3 5.1 5.1 11.6 17.8 11.9 18.4.5.9.1 2.1-.8 2.6-.4 0-.7.1-1 .1zm-44.2 18.3c-.5 0-1-.2-1.4-.6-.7-.8-.6-2 .1-2.7 0 0 2.1-2 2.5-4.8.5-3.2 0-8 0-8.1-.1-1 .6-2 1.7-2.1 1.1-.1 2 .6 2.1 1.7 0 .2.5 5.3 0 9-.6 4.1-3.6 6.9-3.7 7-.3.4-.8.6-1.3.6z"/><path d="M185.2 138.7c-.2 0-.4 0-.7-.1-1-.4-1.5-1.4-1.1-2.4 0-.1.5-1.7 1.4-8.6.8-5.6 2.9-9.6 4.1-11.5.5-.8.9-1.7 1-2.6.5-3.7 1.4-8.6 3-11.2.8-1.3 1.8-2.6 3-3.7.9-.8 1.3-2 1-3.2l-.1-.3c-.5-2.5-1.1-5.1 1.2-11.9 1.8-5.2 5-7.8 7.3-9.7.8-.6 1.5-1.2 2-1.7.6-.7 1.2-1.4 1.6-2.2.1-.2.2-.5.4-.8 1.2-2.3 3.9-7.9 9.7-11.3 3.2-1.9 6.6-2 9-2 .9 0 2.1 0 2.5-.2V55c0-3 1.6-4.2 3.1-4.3 2.7-.3 5.5 2.8 6.5 7.1.2 1-.4 2-1.4 2.3a2 2 0 0 1-2.3-1.4c-.5-2.1-1.4-3.4-2-3.9v.3c0 4.2-3.8 4.3-6.3 4.3-2.2 0-4.7 0-7.1 1.5-4.8 2.8-7.1 7.5-8.2 9.7-.2.4-.4.7-.5.9-.6 1-1.3 2-2.1 2.9-.7.8-1.5 1.4-2.4 2.1-2.2 1.8-4.7 3.7-6.1 7.9-2 5.9-1.6 7.8-1.1 10l.1.4c.5 2.4-.3 4.9-2.1 6.7-.9.9-1.7 1.8-2.3 2.9-1 1.6-1.9 5.2-2.5 9.8-.2 1.5-.7 2.9-1.5 4.2-1.1 1.6-2.9 5.1-3.6 9.9-1 7.3-1.5 9-1.6 9.4-.4.6-1.1 1-1.9 1zm47.3-28.7c-.6 0-1.3-.3-1.6-.9-.1-.2-2.2-3.7-2.2-8 0-2.6 2.1-5.4 4.8-8.8 2.2-2.9 4.8-6.3 6.2-9.8 1.7-4.2.7-10.3 0-13.9l-.2-.9c-.2-1 .5-2 1.6-2.2 1-.2 2 .5 2.2 1.6l.2.9c.7 4.1 1.9 10.8-.3 16-1.7 4-4.4 7.6-6.7 10.7-2 2.6-4 5.2-4 6.6 0 3.2 1.6 6 1.6 6.1.5.9.2 2.1-.6 2.6-.3-.1-.7 0-1 0zm-3.8 50.1c-.3 0-.6-.1-.9-.2-.9-.5-1.2-1.7-.7-2.6 1-1.7 3.6-6.8 3.6-9.5 0-3.9-.6-13.9-1.9-19.5-.9-3.8 0-6.2.8-8.4.5-1.5 1.1-2.9 1.1-4.8 0-1.1.9-1.9 1.9-1.9s1.9.8 1.9 1.9c0 2.6-.7 4.5-1.3 6.1-.7 2-1.3 3.5-.7 6.3 1.3 5.8 2 16.3 2 20.3s-3.7 10.6-4.1 11.4c-.4.6-1.1.9-1.7.9zm0 20.2c-.2 0-.4 0-.6-.1-1-.3-1.5-1.4-1.2-2.4 0 0 1.2-3.7 1.8-7.8.6-3.9 0-6.9 0-6.9-.2-1 .5-2 1.5-2.2 1-.2 2 .5 2.2 1.5 0 .1.7 3.7 0 8.2-.7 4.4-1.9 8.3-2 8.4-.2.7-1 1.2-1.7 1.3zm0 28.3c-.2 0-.5 0-.7-.1-1-.4-1.5-1.5-1.1-2.5 0-.1 2.5-6.6 3.8-10.6 1-3.1.2-4.7.1-4.8-.5-.9-.2-2 .7-2.6.9-.5 2.1-.2 2.6.7.2.3 1.7 3 .2 7.8-1.3 4.1-3.8 10.6-3.9 10.8-.3.8-1 1.3-1.7 1.3zM214 236.5c-1.1 0-1.9-.9-1.9-1.9 0-3.1 3.2-5.7 6.9-8.8 1.5-1.3 3.1-2.6 4.5-4 3.9-3.9 4.4-6.5 4.4-6.5.2-1 1.2-1.7 2.2-1.5 1 .2 1.7 1.1 1.6 2.2-.1.4-.7 3.8-5.5 8.6-1.5 1.5-3.2 2.9-4.8 4.2-2.3 2-5.5 4.6-5.5 5.9 0 .9-.9 1.8-1.9 1.8zm-6.4-40.9c-1 0-1.9-.8-1.9-1.9 0-.1-.3-12.6-2.4-17.9-2.6-6.6-5.6-9.3-7.7-11.3-.9-.8-1.6-1.5-2.2-2.3-.6-.8-.5-2 .4-2.7.8-.6 2-.5 2.7.4.4.5 1 1.1 1.8 1.8 2.3 2.1 5.7 5.2 8.7 12.7 2.3 5.9 2.7 18.6 2.7 19.2-.2 1.1-1 2-2.1 2z"/><path d="M189.7 253.7c-.9 0-1.6-.6-1.9-1.5a2 2 0 0 1 1.4-2.3c.2 0 4-.9 8.6-1.3s14.1-9 15.5-21.3c1.4-12.7-3.4-28.4-3.4-28.6-.3-1 .2-2.1 1.2-2.4s2.1.2 2.4 1.2c.2.7 5.1 16.6 3.6 30.1-1.6 14-12.4 24.1-19 24.7-4.3.4-8 1.2-8 1.2-.1.2-.3.2-.4.2zm-25.4 9.3c-.7 0-1.4 0-2.2-.1-1-.1-1.8-1.1-1.7-2.1.1-1 1.1-1.8 2.1-1.7 4 .5 5.6-.6 7.4-1.8 1-.7 2-1.4 3.4-1.7 3-.7 11.1-4.2 11.2-4.3 1-.4 2.1 0 2.5 1s0 2.1-1 2.5c-.4.1-8.5 3.7-11.8 4.5-.7.2-1.4.6-2.2 1.2-1.6 1.1-3.8 2.5-7.7 2.5zm-21.9.6c-4.2 0-8.5-2.8-9.3-4.3-.9-1.6-2.2-5.5-1.5-10.3.2-1.4 1.8-6 14.9-9.3 1-.3 2.1.4 2.3 1.4.3 1-.4 2.1-1.4 2.3-5.5 1.4-11.8 4.3-12.1 6.2-.6 3.9.5 6.9 1 7.8.8.9 5.3 3.4 8.1 1.9 4.6-2.4 10.1-1.7 10.4-1.7 1.1.1 1.8 1.1 1.7 2.1-.1 1-1.1 1.8-2.1 1.7 0 0-4.6-.5-8.1 1.3-1.3.6-2.6.9-3.9.9zm-6-6.2z"/><path d="M131.4 256.5h-.2s-2.4-.2-7.2 0c-6.1.3-8.7-3.5-8.8-3.7-.6-.9-.3-2.1.6-2.6.9-.6 2-.3 2.6.5.1.1 1.6 2.1 5.4 2 5.2-.2 7.7 0 7.8 0 1 .1 1.8 1.1 1.7 2.1-.1 1-.9 1.7-1.9 1.7zm-74.5-179c-.7 0-1.4-.4-1.7-1.1-.1-.2-2.1-5.1-.1-15.3 1.7-8.5 2.6-13.1 6.5-14.1 1.2-.3 3.3-.1 8 4.3 2.4 2.3 4.8 4.9 5.6 6.1L79 63l-3.2 2.1-3.8-5.7c-1.5-2.2-7.7-8.4-9.6-8.8-1.4.5-2.2 4-3.6 11.1-1.8 8.9-.1 13.1-.1 13.1.4 1-.1 2.1-1 2.5-.3.1-.5.2-.8.2zm5.4-26.9zm61.5 26.9c-.2 0-.5-.1-.8-.2-1-.4-1.4-1.5-1-2.5 0-.1 1.6-4.3-.1-13.1-1.4-7.1-2.2-10.6-3.6-11.1-1.9.3-8.1 6.5-9.6 8.8l-3.8 5.8-3.2-2.1 3.8-5.8c.8-1.2 3.1-3.8 5.6-6.1 4.7-4.4 6.7-4.6 8-4.3 3.9 1 4.8 5.4 6.5 14.1 2 10.2 0 15.1-.1 15.3-.3.7-1 1.2-1.7 1.2zm-5.4-26.9z"/><path d="M106.7 67.2c-.3 0-.6-.1-.9-.2 0 0-4.6-2.3-14.8-2.3S75.4 67 75.3 67c-.9.4-2.1 0-2.5-.9-.4-.9 0-2.1.9-2.5.2-.1 6.1-2.7 17.2-2.7s16.4 2.7 16.6 2.8c.9.5 1.3 1.6.8 2.6-.3.5-.9.9-1.6.9zm-58.2 62.6c-.6 0-1.2-.3-1.6-.9-1.1-1.7-1.7-3.7-1.8-5.8-.5 0-1.2.1-2 .2-2.9.6-5-1.4-6.1-3.4-1-1.8-1-3.4-.1-4.3.4-.4 5-5.6 8.4-9.5-.5-.7-1-1.7-1-2.8 0-.9.3-2.1 1.8-3.2 1-.8 1.7-2 2.1-3.1-1.8-.7-4.1-1.9-4.7-3.8-.8-2.4 1.2-3.8 2.8-4.9 1.2-.8 2.6-1.8 3.9-3.3 3-3.6 3.7-4.6 3.7-4.6.6-.9 1.8-1.1 2.6-.5.9.6 1.1 1.7.5 2.6-.1.1-.8 1.2-4 5-1.6 1.9-3.4 3.2-4.7 4-.4.2-.8.6-1.1.8.6.5 2.3 1.2 3.7 1.6 1 .3 1.6 1.2 1.4 2.2-.1.5-1 4.7-4.1 6.9-.2.1-.2.2-.2.2 0 .2.4.8.9 1.2.4.3.7.8.7 1.3s-.1 1-.5 1.4c-1.3 1.5-7.2 8.3-9.1 10.4.2.4.6 1.1 1.1 1.6.5.4.8.3 1.1.3 3.5-.7 5.2 0 5.7.3s.9.9.9 1.6v1.4c0 1.4.4 2.7 1.1 3.8.6.9.3 2.1-.6 2.6-.1.6-.5.7-.8.7zm-2.3-6.5zm-6.6-4.9zm93.4 11.4c-.4 0-.7-.1-1-.3-.9-.6-1.1-1.8-.6-2.6.8-1.2 1.1-2.5 1.1-3.8v-1.4c0-.7.3-1.3.9-1.6.5-.3 2.1-1 5.7-.3.2.1.6.1 1.1-.3.6-.4.9-1.1 1.1-1.6-1.9-2.1-7.8-8.9-9.1-10.4-.3-.4-.5-.9-.5-1.4s.3-1 .7-1.3c.5-.4.9-1 .9-1.3l-.2-.2c-3-2.3-4-6.5-4.1-6.9-.2-1 .4-2 1.4-2.2 1.5-.4 3.1-1.1 3.7-1.6-.3-.2-.8-.6-1.1-.8-1.3-.9-3.1-2.1-4.7-4-3.2-3.8-4-4.8-4-4.8-.7-.8-.6-2 .2-2.7s2-.6 2.7.2c0 0 .8 1 4 4.8 1.3 1.5 2.7 2.5 3.9 3.3 1.6 1.1 3.6 2.5 2.8 4.9-.6 1.9-2.9 3.1-4.7 3.8.4 1.1 1.1 2.3 2.1 3.1 1.4 1.1 1.7 2.3 1.8 3.2 0 1.1-.4 2.1-1 2.8 3.4 3.9 7.9 9 8.4 9.5.9.9.9 2.5-.1 4.3-1.1 2-3.2 4-6.1 3.4-.9-.2-1.6-.2-2-.2 0 2.1-.6 4.1-1.8 5.8-.3.3-.9.6-1.5.6zm2.3-6.5z"/></g></svg>