<svg version="1.1" id="ear" xmlns="http://www.w3.org/2000/svg" xmlns:xlink="http://www.w3.org/1999/xlink" x="0" y="0" viewBox="0 0 140 140" style="enable-background:new 0 0 140 140" xml:space="preserve"><style>.st1{fill:#fff}</style><defs><path id="SVGID_1_" d="M-9-1h160v105H-9z"/></defs><clipPath id="SVGID_00000053511816866654894160000011649839999777243805_"><use xlink:href="#SVGID_1_" style="overflow:visible"/></clipPath><g style="clip-path:url(#SVGID_00000053511816866654894160000011649839999777243805_)"><path class="st1" d="M84.7 69.2s26.5-26 30.2-22.4c1.9 1.8 2.5 20.8-1.1 29.1-3.5 8-9 14.6-9 14.6S95.4 81 91.3 77.1c-4.1-3.9-6.6-7.9-6.6-7.9zm-30 0s-26.5-26-30.2-22.4c-1.9 1.8-2.5 20.8 1.1 29.1 3.5 8 9 14.6 9 14.6S44 81 48.1 77.1c4.1-3.9 6.7-7.9 6.6-7.9z"/><path class="st1" d="M36.9 78.1c-6 6.6-7.6 18.2-4.9 27.1S55.5 131 71.2 131s28.9-13.1 35.9-24.7c3.4-5.6 4.5-20.4-4.7-28.2C91.6 69 85.9 65.9 69 65.9s-22.6 1.7-32.1 12.2z"/><path class="st1" d="M174.3 195.9c-9.1-19.6-25.5-27.9-41.2-40.2-5-3.9-11.8-6.1-17.9-11.2-13.4-11.2-13.4-30.3-13.4-30.3s-15.9 11.1-29.4 11.1-18.8-1-26.7-6.6c0 0 3.2 7.9 3.1 15.6-.1 10.6-2.7 24.1-3.4 35.9-1.4 25.7 7.9 70.3 15.7 86.3 7.1 14.6 6.7 43.7 6.7 43.7s-9.7 5.9-7.8 11.2c1.8 5.3 7.2 5.5 12.3 4.5 4.6-.9 1.6-2.1 6.7-2.1s7.3 4.9 16.8 3.2c6.8-1.2 9-4.3 3.4-10.8-1.5-1.7-2.2-6.5-2.2-6.5s-.7 6 1.4-5.1c2.7 5.6 10.7 1.1 13.3 5.2.9 1.4-1 5.3 1.6 8.3s1.5 4.2 8.3 3.9c6.8-.3 27.6 2.3 34.1-1.4s25-12.5 28.8-34.1c4.3-24.7 6.2-45.5-10.2-80.6z"/><path d="M183.8 227.4c-1.1 0-1.9-.9-1.9-1.9 0-.1.1-5.4-2.6-13.6-2.4-7.5-7.7-19-19.2-31-14.2-14.9-23.6-20.5-33.6-26.5-3.4-2.1-7-4.2-10.8-6.7-11.3-7.5-17.9-21.4-15.4-32.3.9-3.8 2.4-6.3 3.9-8.7 1.6-2.5 2.9-4.7 3.4-8.2.6-4.3.1-8.9-.6-12-.2-1 .5-2 1.5-2.2 1-.2 2 .5 2.2 1.5.7 3.4 1.3 8.5.6 13.3-.6 4.2-2.3 7-3.9 9.7-1.4 2.3-2.7 4.4-3.4 7.6-2.1 9.3 3.9 21.7 13.8 28.3 3.7 2.5 7.2 4.6 10.6 6.6 10.2 6.1 19.8 11.8 34.4 27.1 23.1 24.2 22.8 46.3 22.8 47.2.1 1-.7 1.8-1.8 1.8zm-97.4-157c-.3 0-.6-.1-.9-.2 0 0-4.8-2.4-15.3-2.4S54 70.2 53.9 70.3c-1 .4-2.1 0-2.5-.9-.4-.9 0-2.1.9-2.5.2-.1 6.2-2.8 17.8-2.8S87 66.8 87.2 67c.9.5 1.3 1.6.8 2.6-.3.5-1 .8-1.6.8zm24.7 12.5c-.4 0-.7-.1-1.1-.3-.9-.6-1.1-1.8-.5-2.6 2.1-3.2 3.7-6 4.8-8.2 3.3-7.2 1.9-21.7.1-24.2-2.2.6-9.7 5-15.9 10.3-2.8 2.4-6.2 6.2-7.7 8.1-.7.8-1.8.9-2.7.3-.8-.7-.9-1.8-.3-2.7 1.6-2 5.2-6 8.2-8.6 4.9-4.2 15.9-11.9 19.2-11.2 1.1.2 2 1 2.7 2.3 2.5 4.8 3.3 19.7-.2 27.2-1.1 2.4-2.8 5.3-5 8.7-.4.6-1 .9-1.6.9zm-83.1 0c-.6 0-1.2-.3-1.6-.8-2.2-3.4-3.9-6.3-5-8.7-3.5-7.5-2.6-22.5-.2-27.2.7-1.3 1.6-2.1 2.7-2.3 3.3-.6 14.2 7 19.2 11.2 3 2.6 6.5 6.6 8.2 8.6.7.8.5 2-.3 2.7s-2 .5-2.7-.3c-1.5-1.9-4.9-5.7-7.7-8.1-6.2-5.3-13.7-9.7-15.9-10.3-1.7 2.4-3.2 16.9.1 24.2 1 2.2 2.6 4.9 4.8 8.2.6.9.3 2.1-.5 2.6-.3.1-.7.2-1.1.2zm21 48.9h-.3c-1-.2-1.7-1.1-1.5-2.2 0-.2.4-3-1.6-6-.6-.8-1.9-2.1-3.4-3.5-4.7-4.4-11.9-11.1-13.3-20.9-.7-4.8-.1-9.9.6-13.3.2-1 1.2-1.7 2.2-1.5 1 .2 1.7 1.2 1.5 2.2-.6 3.1-1.2 7.7-.5 12 1.2 8.5 7.8 14.7 12.1 18.7 1.8 1.7 3.2 3 4 4.2 2.9 4.4 2.3 8.6 2.2 8.8-.3.8-1.1 1.5-2 1.5zm19.8 186.4c-6.8 0-10.8-3.6-10.9-9.8 0-4.1 2.7-5.7 4.8-7 2.1-1.3 3.3-2.1 3.3-4.4 0-6.9-3.1-30.6-5.5-37.8-.4-1.2-1-2.8-1.7-4.7-3.8-10.4-11.6-31.9-14.1-51.8-3.1-23.9-1.7-32.2.3-43.5.3-1.7.6-3.4.9-5.2.8-5.3 1.3-17.5 1.3-17.6 0-1.1 1-1.9 2-1.8 1 0 1.9.9 1.8 2 0 .5-.5 12.6-1.4 18.1-.3 1.9-.6 3.6-.9 5.3-1.9 11-3.2 19-.2 42.4 2.5 19.4 10.2 40.7 13.9 50.9.7 2 1.3 3.6 1.7 4.8 2.7 8.1 5.7 32.4 5.7 39 0 4.5-2.9 6.3-5.1 7.6-2 1.2-3 1.9-2.9 3.7 0 4 2.4 6 7.1 6h.1c5.4 0 7.6-2.1 7.7-2.1.8-.7 1.9-.7 2.7 0 .7.7.7 1.9 0 2.6-.5.4-3.5 3.3-10.6 3.3z"/></g></svg>